<?xml version="1.0" encoding="utf-8"?>
<!-- Generator: Adobe Illustrator 22.1.0, SVG Export Plug-In . SVG Version: 6.00 Build 0)  -->
<svg version="1.1" id="Icons" xmlns="http://www.w3.org/2000/svg" xmlns:xlink="http://www.w3.org/1999/xlink" x="0px" y="0px"
	 viewBox="0 0 59.7 59.7" fill="#EA8801" style="enable-background:new 0 0 59.7 59.7;" xml:space="preserve">
<title>004-tiefkuehl</title>
<g>
	<path d="M37.6,30.2c-0.4-0.1-0.8-0.1-1.2-0.1c0.1,0.1,0.3,0.3,0.5,0.4C37.1,30.4,37.4,30.3,37.6,30.2z"/>
	<path d="M29.5,43.1c0.4-0.1,0.7-0.2,1.1-0.2c0-0.3,0.3-4.4,0.4-4.9c-0.4,0.1-0.8,0.2-1.1,0.3C29.8,38.6,29.5,42.7,29.5,43.1z"/>
	<path d="M29.2,31.7c-0.4,0.2-0.8,0.4-1.1,0.6c0.3,0,0.6,0,0.9-0.1C29,32.1,29.1,31.9,29.2,31.7z"/>
	<path d="M36.2,36.8c-0.4,0.1-0.8,0.2-1.1,0.3c0,0.3-0.4,4.5-0.4,4.9c0.4-0.1,0.7-0.2,1.1-0.3C35.8,41.4,36.2,37.3,36.2,36.8z"/>
	<path d="M36.2,30.8c-0.4-0.4-0.7-0.6-0.8-0.6c-0.8,0-1.6,0.1-2.4,0.3l0.3,1.2C34.3,31.3,35.3,31.1,36.2,30.8z"/>
	<path d="M32.4,30.5c-0.8,0.2-1.6,0.5-2.4,0.8c-0.1,0.2-0.2,0.5-0.4,0.9c1-0.1,2-0.3,3.1-0.5L32.4,30.5z"/>
	<path d="M36.7,47c0.8-0.2,1.5-0.4,2.3-0.8c0.1-0.1,0.3-0.5,0.5-1c-0.9,0.1-2,0.3-3,0.5L36.7,47z"/>
	<path d="M39.9,45.9c0.4-0.2,0.8-0.4,1.2-0.7c-0.3,0-0.6,0-0.9,0C40.1,45.5,40,45.7,39.9,45.9z"/>
	<path d="M32.8,46.8c0.4,0.4,0.8,0.6,0.9,0.7c0.8,0,1.6-0.1,2.5-0.3l-0.3-1.3C34.8,46.1,33.7,46.4,32.8,46.8z"/>
	<path d="M58.4,16.4c-0.3-0.2-0.7-0.1-1,0.2l-0.6,0.9l-5.6,1.5c0.4-1.4,0.9-2.8,1.9-4.3c0,0,0-0.1,0.1-0.1c0.1-0.1,0.2-0.3,0.3-0.5
		c0-0.1,0.1-0.4,0.2-0.8c0-0.1,0.1-0.3,0.1-0.4l0.1-0.4L40.4,9.8l-0.1,0.4c0,0.1,0,0.2-0.1,0.4c-0.1,0.4-0.2,0.7-0.2,0.8
		c0,0.2,0,0.4,0,0.6c0,0,0,0.1,0,0.1c0.4,2.4,0.1,4.6-0.3,6.4c-0.1,0.6-0.3,1.2-0.4,1.9c-0.1-1-0.3-2.1-0.7-3l-1.4-3.5
		c-0.2-0.5-0.3-1.1-0.3-1.6l0.3-4c0.2-0.2,0.3-0.5,0.3-0.7L37.8,6c0-0.3-0.1-0.6-0.2-0.8l0.1-1.5c0-0.5-0.3-0.9-0.8-0.9l-4.6-0.3
		c-0.2,0-0.4,0.1-0.6,0.2c-0.2,0.1-0.3,0.4-0.3,0.6l-0.1,1.5C31.1,5,31,5.3,30.9,5.5l-0.1,1.4c0,0.3,0.1,0.6,0.2,0.8l-0.3,4
		c0,0.5-0.2,1.1-0.5,1.6l-1.9,3.3c-0.7,1.3-1.2,2.7-1.3,4.2L27.1,22c-0.3-0.4-0.7-0.7-1.2-0.9c-1-0.6-2.6-0.9-3.8-0.1
		c-0.4,0.2-0.8,0.5-1.1,0.8c0-0.4,0.1-1.1,0.7-1.9c0.1-0.1,0.1-0.2,0.1-0.4c0-0.2-0.1-0.3-0.3-0.4c-0.3-0.2-0.6-0.1-0.8,0.2
		c-0.6,0.8-0.7,2.3-0.7,1.4c0-0.5-0.2-0.9-0.5-1.1c-0.3-0.2-0.6-0.3-0.9-0.2c-0.9,0-1.8,0.3-2.2,0.5L16,19.8l0.2,0.4
		c0.3,0.5,1,1.8,2.1,2.3c0.1,0,0.1,0.1,0.2,0.1c-1.2,0.5-2,1.6-2.3,3.1c-0.1,0.7-0.1,1.6,0.4,2.6l-4.9,1.3c-0.2-0.2-0.3-0.3-0.5-0.3
		l-0.3-0.1c-0.4,0-0.8,0.2-0.9,0.6c-0.1,0.4,0.1,0.8,0.4,0.9l0.2,0c0.1,0.1,0.3,0.4,0.5,1l2.3,8.8L4.2,52l8-5L0.9,58.2h0l15.5-6.6
		l0.4,1.5c0.2,0.6,1.1,1.7,2.6,1.3l33.4-6.7c0.7-0.2,2-1,2.2-2.7l3.2-27l0.3-0.5C58.8,17.1,58.7,16.7,58.4,16.4z M38.8,24.3
		l-0.4,2.3L30,28.7l-0.9-1.9L38.8,24.3z M29.9,17.4l1.9-3.3c0.2-0.4,0.5-2.6,0.9-6.8c0,0,0-0.1,0-0.1L36,7.3c0,0.2,0,0.4,0,0.7
		c-0.2,3.5-0.4,5.9-0.2,6.4l1.4,3.5c0.3,0.9,0.5,1.8,0.6,2.8l-8.8-0.6C29.1,19.1,29.4,18.2,29.9,17.4z M28.8,21.7l8.9,0.6l-0.1,0.4
		l-9.1,2.4L28.8,21.7z M32.5,29.6c4.9-1.1,9.6,0.2,12.2,3.1c0,0,0,0-0.1,0c0,0,0,0,0,0l0,0c-0.3,0.1-0.5,0.2-0.7,0.4
		c-1.3-1.3-3.1-2.2-5.1-2.7c-0.4,0.2-0.8,0.4-1.3,0.6c0.7,0.7,1.5,1.6,2.2,2.6c-0.1,0-0.1,0-0.2,0c-0.1,0-0.3,0.1-0.4,0.1
		c-0.7-1-1.5-1.9-2.2-2.5c-1,0.4-2.1,0.7-3.3,1l0.2,0.8l-0.1,0c-0.2,0.1-0.4,0.2-0.5,0.4l-0.3-1.2c-1.2,0.3-2.4,0.5-3.5,0.6
		c-0.4,0.9-0.8,2.1-1,3.5c0,0,0-0.1,0-0.1c0.1-0.5-0.1-0.9-0.3-1.2c0,0,0,0,0,0c0.2-0.8,0.4-1.5,0.6-2.1c-0.5,0-1,0-1.5,0
		c-1.6,1.2-2.8,2.8-3.5,4.5c-0.3,0.1-0.7,0.2-1,0.3C23.8,34,27.5,30.7,32.5,29.6z M40.9,40.4c0.2-1.9,0.4-3.8,0.5-5.6
		c0-0.5,0.4-1,0.9-1.1c0.3-0.1,0.6-0.1,0.8-0.2c-0.1,2.4-0.4,4.9-0.7,7.3c-0.1,0.5-0.5,1.1-0.9,1.2c-0.9,0.3-1.8,0.5-2.7,0.7
		c-0.1,0-0.1,0-0.2,0c-0.2,0-0.3-0.1-0.4-0.2c-0.2-0.2-0.2-0.4-0.2-0.7c0.2-2.5,0.5-5.1,0.6-7.6c0.3-0.1,0.5-0.1,0.8-0.2
		c0.1,0,0.1,0,0.1,0c0.2,0,0.3,0.1,0.5,0.2c0.2,0.2,0.2,0.4,0.2,0.7c-0.1,1.8-0.3,3.7-0.5,5.6C40.2,40.6,40.5,40.5,40.9,40.4z
		 M32.9,43.2c0.2-3.2,0.5-6.4,0.8-9.5c0.1,0,0.1,0,0.2,0c0.2,0,0.4-0.1,0.6-0.1c0.1,0,0.1,0,0.2,0c0.2,0,0.3,0.1,0.4,0.2
		c0.2,0.2,0.2,0.4,0.2,0.7c0,0.3,0,0.5-0.1,0.8c0.6-0.1,1.2-0.3,1.9-0.4c0.1,0,0.1,0,0.2,0c0.2,0,0.3,0.1,0.4,0.2
		c0.2,0.2,0.2,0.4,0.2,0.7c-0.2,2.2-0.3,4.4-0.6,6.6c-0.1,0.6-0.5,1.1-0.9,1.2c-0.9,0.2-1.8,0.4-2.7,0.6c-0.1,0-0.1,0-0.2,0
		c-0.2,0-0.3-0.1-0.5-0.2C33,43.7,32.9,43.5,32.9,43.2C32.9,43.2,32.9,43.2,32.9,43.2C32.9,43.2,32.9,43.2,32.9,43.2z M32.7,36.8
		c-0.2,2.2-0.4,4.4-0.5,6.6c0,0.6-0.4,1.1-0.9,1.2c-0.9,0.2-1.8,0.4-2.7,0.5c0,0-0.1,0-0.1,0c-0.2,0-0.4-0.1-0.5-0.2
		c-0.2-0.2-0.2-0.4-0.2-0.7c0.1-2.1,0.3-4.3,0.5-6.4c0.1-0.6,0.5-1.1,0.9-1.2c0.9-0.2,1.8-0.4,2.7-0.7l0,0c0.1,0,0.1,0,0.2,0
		c0.2,0,0.3,0.1,0.4,0.2C32.7,36.3,32.7,36.5,32.7,36.8z M17.8,28c-0.5-0.8-0.5-1.5-0.4-2.1c0.1-0.4,0.4-1.8,1.6-2.2
		c0.3-0.1,0.9-0.3,1.7-0.5l0.1,0c0.1,0,0.2-0.1,0.3-0.2c0.3-0.2,1-0.7,1.6-1.1c0.7-0.5,1.9-0.2,2.6,0.2c0.6,0.4,1.4,1,1.6,2.4
		l-0.1,1.2L17.8,28z M25.2,38.7c-0.1,0.5-0.1,1.1-0.2,1.6c-0.4,0.1-0.7,0.2-1.1,0.3c0,0-0.1,0-0.1,0c-0.2,0-0.4-0.2-0.4-0.4
		c0,0,0-0.3,0-0.3c-0.4,0.1-0.8,0.2-1.2,0.3c-0.1,0.3-0.4,4-0.4,4.4c0.4-0.1,0.8-0.1,1.2-0.2c0.1-0.8,0.1-1.1,0.2-1.4
		c-0.1,0-0.2,0-0.2,0c0,0,0,0-0.1,0c-0.2,0-0.4-0.2-0.4-0.5c0-0.4,0.1-0.7,0.1-1.1c0.6-0.1,1.2-0.3,1.8-0.4c0.1,0,0.1,0,0.2,0
		c0.2,0,0.4,0.1,0.3,0.5c-0.1,1-0.1,2.4-0.3,3.5c-0.1,0.6-0.3,0.9-0.8,1.1c-0.5,0.1-1.9,0.3-2.7,0.4c-0.1,0-0.1,0-0.2,0
		c-0.2,0-0.4,0-0.5-0.2c-0.2-0.2-0.2-0.5-0.3-0.7c0-0.6,0.2-3.5,0.4-5.7c0.1-0.5,0.6-1.1,1.1-1.3c0.9-0.3,2.1-0.6,2.7-0.8l0,0
		c0.1,0,0.1,0,0.2,0c0.2,0,0.3,0.1,0.4,0.2C25.2,38.2,25.3,38.4,25.2,38.7z M25.4,44.7c0.2-3,0.4-6,0.8-9.1c0.3-0.1,0.5-0.1,0.8-0.2
		c0,0,0,0,0,0c0.1,0,0.1,0,0.2,0c0.2,0,0.3,0.1,0.4,0.2c0.1,0.2,0.2,0.4,0.2,0.7c-0.3,3.1-0.6,6.2-0.7,9.2c-0.3,0-0.5,0.1-0.8,0.1
		c0,0-0.1,0-0.1,0c-0.2,0-0.4-0.1-0.5-0.2C25.5,45.2,25.4,45,25.4,44.7z M36.6,48c-4.1,0.9-8.2,0.1-10.9-1.9c0.1,0,0.3,0.1,0.4,0.1
		c0.1,0,0.2,0,0.2,0c0.3,0,0.5-0.1,0.8-0.1c0,0,0,0,0,0c0.9,0.5,2,0.9,3.1,1.2c0.4-0.2,0.9-0.4,1.4-0.6c-0.3-0.3-0.7-0.7-1.1-1.2
		c0.2,0,0.5-0.1,0.7-0.1c0.4,0.4,0.7,0.8,1,1.1c1-0.4,2.2-0.7,3.4-1l-0.2-1c0.2,0,0.4-0.1,0.6-0.1l0.2,1c1.2-0.3,2.4-0.4,3.4-0.5
		c0.2-0.5,0.4-1,0.5-1.6c0.2-0.1,0.5-0.1,0.7-0.2c-0.2,0.6-0.4,1.2-0.5,1.7c0.6,0,1.1,0,1.5,0c1-0.8,1.9-1.7,2.6-2.7
		c0.4-0.1,0.8-0.2,1.2-0.4C44.1,44.5,40.8,47.1,36.6,48z M48.2,33.6c0,0.5-0.1,0.9-0.1,1.4c-0.4,0.1-0.7,0.2-1.1,0.2
		c0,0-0.1,0-0.1,0c-0.2,0-0.4-0.2-0.4-0.4c0,0,0-0.1,0-0.1c0-0.1,0-0.1,0-0.2c-0.4,0.1-0.7,0.1-1.1,0.2c0,0.2-0.1,1-0.1,1.4
		c0.4-0.1,1.8-0.4,1.8-0.4c0.1,0,0.1,0,0.2,0c0.2,0,0.3,0.1,0.4,0.2c0.2,0.1,0.2,0.3,0.2,0.6c-0.1,1.3-0.2,2.1-0.3,2.8
		c-0.1,0.5-0.5,1.1-1,1.3c-1.3,0.5-1.7,0.6-2.7,0.8c-0.1,0-0.1,0-0.2,0c-0.1,0-0.3-0.1-0.4-0.2c-0.1-0.2-0.2-0.4-0.2-0.7
		c0.1-0.5,0.1-1.1,0.2-1.6c0.4-0.1,0.7-0.2,1.1-0.3c0,0,0.1,0,0.1,0c0.2,0,0.4,0.2,0.4,0.4c0,0,0,0.1,0,0.1c0,0.1,0,0.1,0,0.2
		c0.4-0.1,0.7-0.2,1.1-0.3c0-0.2,0.1-1,0.2-1.3c-0.4,0.1-1.8,0.4-1.8,0.4c-0.1,0-0.2,0-0.2,0c-0.1,0-0.2,0-0.3-0.1
		c-0.2-0.2-0.3-0.3-0.3-0.6c0.1-1.2,0.2-2.7,0.3-3.1c0-0.5,0.4-1,0.9-1.1l0,0c1.5-0.3,2.2-0.4,2.6-0.4c0,0,0,0,0.1,0
		c0.2,0,0.5,0.1,0.6,0.3C48.1,33.2,48.2,33.4,48.2,33.6z M40,22.1c0.4-1,0.7-2.1,1-3.4c0.5-2.5,0.7-4.5,0.4-6.4l10.7,2.3
		c-0.9,1.4-1.5,2.9-2,4.9L40,22.1z"/>
	<path d="M31.3,47.4c0.5,0.1,0.9,0.1,1.4,0.1c-0.2-0.1-0.3-0.3-0.5-0.5C31.8,47.1,31.6,47.2,31.3,47.4z"/>
</g>
</svg>
