<?xml version="1.0" encoding="utf-8"?>
<!-- Generator: Adobe Illustrator 22.1.0, SVG Export Plug-In . SVG Version: 6.00 Build 0)  -->
<svg version="1.1" id="Layer_1" xmlns="http://www.w3.org/2000/svg" xmlns:xlink="http://www.w3.org/1999/xlink" x="0px" y="0px"
	 viewBox="0 0 512 160.7" style="enable-background:new 0 0 512 160.7;" xml:space="preserve">
<style type="text/css">
	.st0{fill:#FFFFFF;}
</style>
<g>
	<polygon class="st0" points="294,76.4 301.9,76.4 310,76.4 310,46.4 310,16.3 301.9,16.3 294,16.3 294,46.2 	"/>
	<path class="st0" d="M285.6,35.8c0-11.6-8.3-19.5-21.5-19.5h-34.7v60.1h16V55.2h5.9l18.2,20.9h19.8l-19.8-21.7
		C279.5,52.5,285.6,45.1,285.6,35.8L285.6,35.8z M262.2,42h-16.9V29.9h16.9c4.8,0,7.2,2.8,7.2,6.1C269.4,39.4,267,42,262.2,42
		L262.2,42z"/>
	<path class="st0" d="M334.6,46.8v-1.1c0-9,5-15.4,15.2-15.4h17.8v-14h-19.3c-19.8,0-29.9,12.7-29.9,29.4V47
		c0,18.6,11.6,29.4,29.2,29.4h5.5l6.4-13.6h-9.4C340.5,62.8,334.6,57.2,334.6,46.8L334.6,46.8z"/>
	<path class="st0" d="M28,16.3L1.5,76.4h17.6l5.1-12.1H52l5.1,12.1h18.2L48.7,16.3H28L28,16.3z M29.8,51l8.5-20l8.5,20H29.8L29.8,51
		z"/>
	<polygon class="st0" points="117.3,54.1 103.5,16.3 78.3,16.3 78.3,76.4 94.1,76.4 94.1,33.2 109.9,76.4 124.3,76.4 140.1,33.2 
		140.1,76.4 155.9,76.4 155.9,16.3 130.9,16.3 	"/>
	<polygon class="st0" points="168.2,76.4 218.9,76.4 218.9,62.8 184.1,62.8 184.1,53 218,53 218,39.4 184.1,39.4 184.1,29.9 
		218.9,29.9 218.9,16.3 168.2,16.3 	"/>
	<path class="st0" d="M387.2,16.3l-26.5,60.1h17.6l5.1-12.1h27.7l5.1,12.1h18.2l-26.6-60.1H387.2L387.2,16.3z M388.8,51l8.5-20
		l8.5,20H388.8L388.8,51z"/>
	<polygon class="st0" points="482.2,52.8 457.5,16.3 437.3,16.3 437.3,76.4 453.3,76.4 453.3,38.3 478.5,76.4 498,76.4 498,16.3 
		482.2,16.3 	"/>
	<path class="st0" d="M429.2,116.8h-14.7c-3.1,0-5.5-1.8-5.5-4.8c0-2.8,2.4-4.8,5.5-4.8h26.6l6.2-13.6h-33.1
		c-13.6,0-21.5,8.1-21.5,18.9c0,11.4,7.5,18,19.3,18h14.7c3.3,0,5.5,1.8,5.5,4.8c0,2.9-2.2,4.8-5.5,4.8h-32.2v13.6H427
		c13.4,0,21.5-7.9,21.5-19.5C448.5,123.2,441.6,116.8,429.2,116.8L429.2,116.8z"/>
	<path class="st0" d="M327.1,112.9c0-11.6-8.3-19.5-21.5-19.5h-34.7v60.1h16v-20.9h5.9l18.2,20.9h19.8l-19.8-21.7
		C321,129.8,327.1,122.3,327.1,112.9L327.1,112.9z M303.8,119.3h-16.9v-12.1h16.9c4.8,0,7.2,2.8,7.2,6.1
		C310.9,116.6,308.5,119.3,303.8,119.3L303.8,119.3z"/>
	<polygon class="st0" points="335.5,153.5 386.3,153.5 386.3,139.9 351.5,139.9 351.5,130.4 385.3,130.4 385.3,116.8 351.5,116.8 
		351.5,107.2 386.3,107.2 386.3,93.4 335.5,93.4 	"/>
	<path class="st0" d="M242.6,93.4h-35.1v60.1h16V134H242c13.6,0,22-8.6,22-20.2C264.1,101.7,255.8,93.4,242.6,93.4L242.6,93.4z
		 M240.7,120.5h-17.3v-13.2h17.3c4.8,0,7.2,2.9,7.2,6.6C247.9,117.5,245.5,120.5,240.7,120.5L240.7,120.5z"/>
	<path class="st0" d="M488.2,116.8h-14.7c-3.1,0-5.5-1.8-5.5-4.8c0-2.8,2.4-4.8,5.5-4.8h26.6l6.2-13.6h-33.1
		c-13.6,0-21.5,8.1-21.5,18.9c0,11.4,7.5,18,19.3,18h14.7c3.3,0,5.5,1.8,5.5,4.8c0,2.9-2.2,4.8-5.5,4.8h-32.2v13.6H486
		c13.4,0,21.5-7.9,21.5-19.5C507.5,123.2,500.5,116.8,488.2,116.8L488.2,116.8z"/>
	<polygon class="st0" points="78.3,153.5 129,153.5 129,139.9 94.3,139.9 94.3,130.4 128.3,130.4 128.3,116.8 94.3,116.8 
		94.3,107.2 129,107.2 129,93.4 78.3,93.4 	"/>
	<polygon class="st0" points="204.5,93.4 184.1,93.4 168.5,111.6 152.9,93.4 132,93.4 158.2,123.2 131.4,153.5 151.8,153.5 
		168.2,134.6 184.5,153.5 205.5,153.5 178.5,122.8 	"/>
</g>
</svg>
