<?xml version="1.0" encoding="utf-8"?>
<!-- Generator: Adobe Illustrator 22.1.0, SVG Export Plug-In . SVG Version: 6.00 Build 0)  -->
<svg version="1.1" id="Ebene_1" xmlns="http://www.w3.org/2000/svg" xmlns:xlink="http://www.w3.org/1999/xlink" x="0px" y="0px"
	 viewBox="0 0 209.8 104.9" style="enable-background:new 0 0 209.8 104.9;" xml:space="preserve">
<style type="text/css">
	.st0{fill:#ffffff;}
</style>
<path class="st0" d="M26.7,71.5h-2.4v13.4h2.4V71.5L26.7,71.5z M19,78.3c0,0.3,0,1.7-0.8,2.9c-0.8,1.3-2,1.9-3.1,1.9
	c-0.9,0-1.8-0.4-2.5-1c-0.9-0.9-1.2-2.4-1.2-3.9c0-2,0.6-3.2,1.6-4c0.4-0.4,1.1-0.9,2.1-0.9c0.7,0,1.5,0.3,2.2,0.8
	C19.1,75.5,19,78.1,19,78.3 M20.2,88.7c1-1.3,1.1-2.7,1.2-5.5l0-11.7h-2.2v2.1c-0.1-0.1-0.5-0.8-1.1-1.3c-0.6-0.5-1.7-1.1-3.2-1.1
	c-1.3,0-2.4,0.5-2.9,0.9c-0.9,0.6-1.3,1.2-1.6,1.5c-1.1,1.4-1.3,3.2-1.3,4.7c0,0.4,0,1.6,0.4,2.8c0.1,0.3,0.6,1.8,1.9,3
	c0.7,0.6,1.9,1.2,3.6,1.1c1,0,2.3-0.4,3.2-1.2c0.3-0.3,0.5-0.4,0.9-1l0,1.8c-0.1,0.6-0.1,1.2-0.3,1.8c-0.1,0.4-0.3,0.7-0.6,1
	c-0.6,0.7-1.5,1.1-3.1,1.2c-1.6,0-2.8-0.4-3.4-0.6c-0.6-0.2-1-0.5-1.3-0.6L9.9,90c0.4,0.2,0.7,0.3,1.1,0.4c0.6,0.2,2.1,0.6,3.8,0.6
	c1.9,0,3-0.4,3.8-0.9C19.5,89.5,19.9,89.1,20.2,88.7 M24.2,68.3h2.6v-2.7h-2.6V68.3L24.2,68.3z M35.4,73.5c0.7,0,1,0.1,1.6,0.3v-2.4
	c-0.1,0-0.8-0.1-1.4-0.1c-1,0-2.2,0.2-3.2,1.4c-0.1,0.2-0.4,0.5-0.7,1l-0.1-2.2h-2.3c0.1,1.7,0.1,2.9,0.1,4.5c0,1.9,0,3.3,0,5.2v3.7
	H32v-6.6c0.1-1.3,0.1-3,1.5-4.1C34.3,73.5,35.1,73.5,35.4,73.5 M47.8,78.1c0,1.5-0.5,3.6-2.3,4.6c-0.4,0.2-1,0.5-1.9,0.5
	c-0.2,0-0.9,0-1.6-0.4c-0.2-0.1-0.3-0.2-0.7-0.4c-0.4-0.3-0.9-0.8-1.3-1.8c-0.3-0.8-0.5-1.7-0.4-2.6c0-1.9,0.8-3.2,1.6-3.9
	c0.5-0.4,1.4-1,2.6-1c2.1,0,3,1.5,3.5,2.5C47.5,76.1,47.8,77,47.8,78.1 M48.3,83.4c1.6-1.6,2-3.7,2-5.4c-0.1-3.3-1.8-5.3-3.4-6.1
	c-0.6-0.3-1.6-0.6-2.9-0.6c-3,0-4.9,1.6-5.9,3.2c-0.7,1.1-0.9,2.5-0.9,3.8c0,2.7,0.9,4.3,2.1,5.4c0.3,0.2,0.6,0.4,0.9,0.6
	c0.8,0.5,1.8,0.9,3.6,0.9c1.4,0,2.3-0.3,2.8-0.5C47.1,84.4,47.8,84,48.3,83.4 M58.2,85.1c1.6,0,2.5-0.4,3.2-0.7l-0.2-2.2
	c-0.5,0.2-1.5,0.7-2.8,0.7c-0.2,0-1,0-1.7-0.4c-2-1-2.5-3.1-2.5-4.6c0-2.3,1.1-3.6,2.3-4.2c1-0.6,2-0.5,2.3-0.5c1,0,1.7,0.4,2.1,0.6
	l0.1-2.2c-0.4-0.1-1.4-0.4-2.6-0.5c-2.7-0.1-4.4,1.2-5.3,2.5c-1.1,1.5-1.4,3.3-1.4,4.7c0.1,3.6,2.1,5.5,3.9,6.2
	C56.1,84.8,57,85.1,58.2,85.1 M71,78.8c0,0.9-0.1,1.4-0.2,1.8c0,0.2-0.2,0.6-0.6,1.1c-0.8,1.1-1.8,1.4-2.8,1.4
	c-1.1,0-2.6-0.6-2.6-2.2c0-1.6,1.4-2.2,2.6-2.5c0.4-0.1,0.9-0.1,1.8-0.1c0.6,0,1.2,0,1.8,0.1V78.8L71,78.8z M71.1,84.9h2.1v-9.4
	c-0.2-1.2-0.3-1.8-0.7-2.3c-0.7-1.2-2.2-2-4.3-2c-0.4,0-1.9,0-3.4,0.7c-0.3,0.2-0.5,0.3-0.8,0.5v2.1c0.5-0.3,2.1-1.3,3.8-1.3
	c1.6,0,2.6,0.9,3,1.8c0.2,0.5,0.2,1.2,0.2,1.8c-0.6,0-1.3-0.1-1.9-0.1c-1.3,0-2.9,0.1-4.2,0.7c-1,0.5-2.4,1.4-2.4,3.6
	c0,0.2,0,0.5,0.1,0.8c0.1,0.9,0.6,1.8,1.3,2.3c0.8,0.6,1.8,0.9,2.8,0.9c1.5,0,2.6-0.4,3.2-0.9c0.6-0.4,0.9-0.9,1.4-1.4V84.9
	L71.1,84.9z M81.9,73.5c0.7,0,1,0.1,1.6,0.3v-2.4c-0.1,0-0.8-0.1-1.4-0.1c-1,0-2.2,0.2-3.2,1.4c-0.2,0.2-0.4,0.5-0.7,1l-0.1-2.2
	h-2.3C76,73.2,76,74.3,76,76c0,1.9,0,3.3,0,5.2v3.7h2.4v-6.6c0.1-1.3,0.1-3,1.5-4.1C80.7,73.5,81.6,73.5,81.9,73.5 M93.8,78.3
	c0,0.2,0,1-0.3,1.9c-0.6,1.9-2,2.9-3.6,2.9c-1.3,0-2.6-0.7-3.3-2.2c-0.4-0.8-0.5-1.8-0.5-2.7c0-0.3,0-1.1,0.3-2.1
	c0.9-2.5,2.9-2.7,3.5-2.7c1.5,0,2.9,1,3.5,2.9C93.6,76.6,93.8,77.3,93.8,78.3 M96.1,82C96,79.4,96,77.6,96,75c0-3.3,0.1-6.5,0.1-9.8
	h-2.4v8.1c-0.4-0.5-0.5-0.6-0.8-0.9c-0.7-0.6-1.7-1.2-3.3-1.2c-0.5,0-2.6,0-4.2,1.8c-2,2.2-1.8,5.1-1.8,5.5c0,0.9,0.2,2,0.5,2.9
	c0.6,1.7,2.2,3.7,5.3,3.7c0.3,0,2.2,0,3.6-1.4c0.3-0.2,0.4-0.4,0.8-1l0.1,2h2.3C96.2,83.8,96.2,83.1,96.1,82"/>
<path class="st0" d="M51.6,36.8c-0.3,0-0.5,0-0.8-0.1c0-0.1,0-0.2,0-0.4c0.2,0.1,0.5,0.1,0.7,0.1c0.3,0,0.8-0.1,0.8-0.6
	c0-0.5-0.6-0.6-0.9-0.6c0,0-0.1,0-0.3,0c-0.1,0-0.3,0.1-0.3,0.1v-1.4h1.9v0.3h-1.4v0.7c0,0,0.1,0,0.2,0c0.1,0,0.2,0,0.2,0
	c0.5,0,1.2,0.3,1.2,0.9C52.9,36.6,52,36.8,51.6,36.8 M54.5,33.6c0-0.4-0.3-0.5-0.5-0.5h-4.4c-0.3,0-0.5,0.1-0.5,0.6L49,37.2
	c0,0.2,0.2,0.5,0.5,0.5h4.8c0.3,0,0.5-0.3,0.5-0.5L54.5,33.6L54.5,33.6z"/>
<path class="st0" d="M58.9,36.8c-1,0-1.3-0.9-1.3-1.6c0-0.8,0.3-1.3,1.3-1.3c0.2,0,0.5,0.1,0.7,0.1c0,0.1,0,0.2,0,0.3
	c-0.1-0.1-0.4-0.1-0.6-0.1c-0.5,0-0.8,0.2-0.9,0.9v0.2c0.1-0.2,0.5-0.3,0.7-0.3c0.6,0,1.1,0.4,1.1,1C60,36.6,59.4,36.8,58.9,36.8
	 M61.3,33.7c0-0.3-0.3-0.6-0.6-0.6h-4.4c-0.3,0-0.4,0.2-0.4,0.4l0.3,3.7c0,0.3,0.3,0.5,0.6,0.5h4.8c0.3,0,0.4-0.2,0.4-0.4
	C61.8,37.2,61.4,34.9,61.3,33.7"/>
<path class="st0" d="M58.8,35.2c-0.4,0-0.6,0.2-0.6,0.6c0,0.3,0.3,0.7,0.7,0.7c0.3,0,0.6-0.2,0.6-0.6C59.4,35.5,59.1,35.2,58.8,35.2
	"/>
<path class="st0" d="M45.6,40.2l-1.8,3.3h-0.6l1.8-3.1h-1.8c0-0.2,0-0.3,0-0.4h2.4V40.2L45.6,40.2z M46.9,39h-4.8
	c-0.5,0-0.6,0.3-0.6,0.6c-0.1,0.4-0.7,4.2-0.7,4.3c-0.1,0.4,0.2,0.8,0.4,0.8h5.3c0.5,0,0.6-0.4,0.6-0.8l0.3-4.4
	C47.4,39.2,47.2,39,46.9,39"/>
<path class="st0" d="M51.8,43.5c-0.5,0-1.3-0.3-1.3-1c0-0.5,0.3-0.7,0.8-1c-0.5-0.2-0.7-0.4-0.7-0.8c0-0.7,0.7-0.8,1.2-0.8
	c0.4,0,1.2,0.1,1.2,0.8c0,0.3-0.3,0.7-0.7,0.8c0.5,0.2,0.8,0.6,0.8,1C53.2,43.3,52.3,43.5,51.8,43.5 M54.8,39.5
	c0-0.3-0.3-0.5-0.5-0.5h-4.9c-0.2,0-0.5,0.2-0.5,0.5L48.7,44c0,0.3,0.2,0.6,0.6,0.6h5.3c0.4,0,0.5-0.4,0.5-0.6L54.8,39.5L54.8,39.5z
	"/>
<path class="st0" d="M51.9,41.3c0.2,0,0.7-0.5,0.7-0.7c0-0.4-0.4-0.5-0.6-0.5c-0.2,0-0.7,0.1-0.7,0.5C51.3,40.9,51.7,41.3,51.9,41.3
	"/>
<path class="st0" d="M51.8,41.7c-0.3,0-0.8,0.5-0.8,0.8c0,0.4,0.4,0.6,0.8,0.6c0.3,0,0.8-0.1,0.8-0.6C52.6,42.2,52.2,41.7,51.8,41.7
	"/>
<path class="st0" d="M60.7,42.2c-0.1,1-0.7,1.3-1.4,1.3c-0.2,0-0.6-0.1-0.8-0.1c0-0.2,0-0.3,0-0.4c0.2,0.1,0.5,0.2,0.7,0.2
	c0.7,0,0.9-0.6,0.9-1.1c0,0,0-0.1,0-0.2c-0.3,0.3-0.5,0.3-0.7,0.3c-0.7,0-1.3-0.5-1.3-1.2c0-0.7,0.6-1,1.1-1c1,0,1.3,0.8,1.4,1.8
	C60.8,41.9,60.8,42,60.7,42.2 M62.2,39.4c-0.1-0.3-0.3-0.5-0.6-0.5h-4.9c-0.3,0-0.5,0.3-0.5,0.5c0,0,0.3,4.3,0.3,4.3
	c0,0.4,0.1,0.8,0.6,0.8h5.3c0.3,0,0.5-0.3,0.5-0.5C62.9,44.1,62.5,40.7,62.2,39.4"/>
<path class="st0" d="M59.3,40.2c-0.4,0-0.6,0.3-0.6,0.6c0,0.4,0.3,0.8,0.8,0.8c0.4,0,0.6-0.3,0.6-0.6C60.1,40.7,59.9,40.2,59.3,40.2
	"/>
<polygon class="st0" points="70.1,56.8 62.7,25.9 62.7,25.9 62.7,25.9 59.4,25.9 59.4,26.4 59.4,26.4 59.4,26.4 62.2,26.4 
	69.3,56.2 34.5,56.2 41.5,26.4 44.4,26.4 44.3,25.9 44.3,25.9 44.3,25.9 41,25.9 33.6,56.8 33.6,56.8 33.6,56.8 70.1,56.8 "/>
<path class="st0" d="M58.6,14.1C58.4,14,58.3,14,58.1,14H45.7c-0.7,0-1.3,0.6-1.3,1.3l0,12.1h0v0h0.9l0-12.1c0-0.2,0.2-0.4,0.4-0.4
	H48v8.8h-2.5l3.4,3.7h0l0,0h6l3.4-3.7h-0.1l0,0h-2.5v-8.8h2.3c0.1,0,0.2,0.1,0.3,0.1c0.1,0.1,0.1,0.2,0.1,0.3v12.1h0v0h0.9V15.3
	C59.4,14.8,59.1,14.3,58.6,14.1L58.6,14.1z"/>
<path class="st0" d="M46.5,46.2c-0.1,0-0.2-0.1-0.3-0.1H41c-0.4,0-0.7,0.2-0.7,0.6c0,0.5-1,5.8-1,5.9c0,0.2,0.1,0.5,0.3,0.6
	c0.1,0,0.2,0.1,0.3,0.1h5.9c0.4,0,0.7-0.5,0.7-0.8l0.4-5.7C46.9,46.6,46.8,46.3,46.5,46.2L46.5,46.2z"/>
<path class="st0" d="M63.4,46.8c0-0.3-0.2-0.5-0.4-0.6c-0.1,0-0.2-0.1-0.3-0.1h-5.3c-0.4,0-0.6,0.3-0.6,0.7c0,0,0.4,5.9,0.4,5.7
	c0,0.4,0.2,0.6,0.4,0.7c0.1,0,0.2,0.1,0.3,0.1h5.9c0.4,0,0.5-0.4,0.5-0.6C64.3,52.6,63.6,48.7,63.4,46.8L63.4,46.8z"/>
<path class="st0" d="M52.1,47.8c-0.1,0-0.1-0.1-0.2-0.1c-0.7,0-0.8,1-0.8,1.7c0,0.7,0,1.6,0.6,1.8c0.1,0,0.2,0.1,0.3,0.1
	c0.7,0,0.8-1.1,0.8-1.9C52.7,48.8,52.5,48,52.1,47.8L52.1,47.8z"/>
<path class="st0" d="M55.2,48.2L55.2,48.2L55.2,47c0-0.3-0.1-0.6-0.4-0.7c-0.1-0.1-0.2-0.1-0.3-0.1h-5.3c-0.3,0-0.6,0.2-0.6,0.6
	l-0.1,1.5h0l-0.2,4.3c0,0.2,0.1,0.5,0.3,0.7c0.1,0.1,0.2,0.1,0.3,0.1h5.9c0.4,0,0.6-0.5,0.6-0.8L55.2,48.2L55.2,48.2z M51.8,51.8
	c-0.3,0-0.5-0.1-0.7-0.1c-0.6-0.3-0.7-1.1-0.8-2.1c0-0.5,0-1,0.2-1.4h0l0,0c0.2-0.5,0.6-0.9,1.3-0.9c0.3,0,0.6,0.1,0.8,0.2
	c0.2,0.2,0.4,0.4,0.5,0.7l0,0c0.1,0.4,0.2,0.8,0.2,1.3C53.3,50.8,53,51.8,51.8,51.8L51.8,51.8z"/>
<path class="st0" d="M60.4,28.5c0-0.1-0.1-0.2-0.2-0.2c-0.1-0.1-0.2-0.1-0.3-0.1h-3.9c-0.2,0-0.5,0.1-0.5,0.4l0.2,2.9
	c0,0.3,0.1,0.4,0.2,0.5C56,32,56.1,32,56.2,32h4.4c0.2,0,0.4-0.2,0.4-0.4C60.9,31.6,60.6,29.5,60.4,28.5L60.4,28.5z M57.3,30.9
	c0.2,0,0.3,0.1,0.5,0.1c0.2,0,0.2,0,0.3,0c0.2,0,0.7,0,0.7-0.4c0-0.2-0.1-0.3-0.3-0.4c-0.2-0.1-0.3-0.1-0.4-0.1h-0.4
	c0-0.1,0-0.2,0-0.3h0.4c0.2,0,0.6-0.1,0.6-0.4c0-0.2-0.1-0.3-0.3-0.3c-0.2-0.1-0.3-0.1-0.4-0.1c-0.2,0-0.4,0.1-0.6,0.1
	c0-0.1,0-0.1,0-0.2c0.1-0.1,0.3-0.1,0.5-0.1c0.2,0,0.5,0,0.5,0c0.1,0,0.3,0,0.5,0.1c0.2,0.1,0.3,0.3,0.3,0.5c0,0.3-0.3,0.4-0.6,0.5
	c0,0,0,0,0,0c0,0,0,0,0,0c0.1,0,0.2,0,0.3,0.1c0.3,0.1,0.5,0.3,0.5,0.6c0,0.6-0.9,0.6-1.1,0.6c-0.3,0-0.5-0.1-0.8-0.1V30.9
	L57.3,30.9z"/>
<path class="st0" d="M54.3,28.6c0-0.1-0.1-0.2-0.2-0.3c-0.1-0.1-0.2-0.1-0.3-0.1h-3.9c-0.2,0-0.5,0.1-0.5,0.4l-0.1,3
	c0,0.1,0.1,0.3,0.3,0.4c0.1,0,0.1,0.1,0.2,0.1H54c0.2,0,0.4-0.2,0.4-0.4L54.3,28.6L54.3,28.6z M50.8,30.9c0.1-0.1,1.4-0.9,1.4-1.4
	c0-0.2-0.1-0.3-0.2-0.3c-0.1-0.1-0.3-0.1-0.4-0.1c-0.2,0-0.4,0.1-0.7,0.1c0-0.1,0-0.2,0-0.3c0.3-0.1,0.6-0.1,0.9-0.1
	c0.2,0,0.4,0,0.6,0.1c0.2,0.1,0.3,0.3,0.3,0.5c0,0.6-1.1,1.1-1.5,1.5h0.1c0,0,0,0,0,0h1.5c0,0.1,0,0.1,0,0.3h-2V30.9L50.8,30.9z"/>
<path class="st0" d="M47.9,28.2c-0.1,0-0.1-0.1-0.2-0.1h-3.9c-0.4,0-0.5,0.1-0.5,0.3c-0.2,1-0.5,3.1-0.5,3.2c0,0.2,0,0.2,0.1,0.3
	C42.9,32,43,32,43.1,32h4.4c0.2,0,0.4-0.1,0.5-0.5c0,0.2,0.2-2.9,0.2-2.9C48.2,28.5,48.1,28.3,47.9,28.2L47.9,28.2z M45.8,31.3h-0.4
	l0.2-2c0,0,0,0,0,0l0,0c-0.2,0.1-0.5,0.2-0.5,0.3l-0.2-0.2l0.8-0.4h0.3L45.8,31.3L45.8,31.3z"/>
<path class="st0" d="M47.8,33.5c0-0.1-0.1-0.3-0.3-0.4c-0.1,0-0.1-0.1-0.2-0.1H43c-0.3,0-0.5,0.2-0.6,0.4c-0.1,0.4-0.6,3.6-0.6,3.6
	c0,0.3,0.1,0.5,0.3,0.5c0.1,0,0.1,0.1,0.2,0.1H47c0.3,0,0.5-0.2,0.5-0.5C47.5,37.3,47.8,33.5,47.8,33.5L47.8,33.5z M45.6,35.8
	L45.6,35.8l0.4,0c0,0.1,0,0.2,0,0.3h-0.4c0,0.2-0.1,0.4-0.1,0.6H45l0.1-0.6h0l0,0h-1.4c0-0.1,0-0.3,0-0.3s1-1.2,1.6-1.9h0.5
	L45.6,35.8L45.6,35.8L45.6,35.8z"/>
<polygon class="st0" points="45.3,34.3 44.1,35.8 44.1,35.8 44.1,35.8 45.1,35.8 45.3,34.3 45.3,34.3 45.3,34.3 "/>
<g>
	<polygon class="st0" points="148.1,24 147,18.8 189.4,9.8 195,36.5 182,39.2 182.5,41.7 198.1,38.4 191.3,6.7 126.8,20.4 
		128.3,27.5 	"/>
	<path class="st0" d="M187.6,21.4L187.6,21.4c1.6-0.3,2.2-1.8,1.7-4.2c-0.5-2.2-1.6-3.4-3.1-3.1c-1.4,0.3-2.2,1.8-1.7,4.2
		C185,20.6,186.2,21.7,187.6,21.4z M186.3,14.9c1-0.2,1.7,0.8,2,2.6c0.4,1.8,0.2,3-0.8,3.2l0,0c-0.9,0.2-1.7-0.8-2-2.6
		C185.1,16.3,185.4,15,186.3,14.9z"/>
	<path class="st0" d="M181.6,21.9c-0.7,0.1-1.3,0-1.6-0.1l-0.1,0.8c0.4,0.1,1.1,0.2,1.8,0.1c1.5-0.3,2.4-1.6,2.1-3
		c-0.2-0.9-0.8-1.4-1.4-1.6c-0.5-0.2-1-0.2-1.6-0.1c-0.3,0.1-0.4,0.1-0.6,0.2l-0.1-1.9l2.7-0.6l-0.2-0.8l-3.4,0.7l0.3,3.5
		c0.3-0.1,0.6-0.2,1-0.3c1.4-0.3,2.2,0.2,2.3,1.1C183.1,21,182.5,21.7,181.6,21.9z"/>
	<path class="st0" d="M162.7,19.6c-0.1,0.4,0.2,0.9,0.6,1c0.1,0,0.1,0,0.2,0c0.4,0,0.7-0.3,0.8-0.7c0.1-0.5-0.2-0.9-0.6-1
		C163.3,18.8,162.8,19.1,162.7,19.6z"/>
	<path class="st0" d="M166.5,19.5c-0.1,0.4,0.2,0.9,0.6,1c0.1,0,0.1,0,0.2,0c0.4,0,0.7-0.3,0.8-0.7c0.1-0.5-0.2-0.9-0.6-1
		C167,18.8,166.6,19.1,166.5,19.5z"/>
	<path class="st0" d="M177.6,19.8l-65,11.5l5.6,31.9l65-11.5L177.6,19.8z M130.2,58.5c-2,0.4-3.9-0.1-5.4-1.3
		c-1.1-0.8-2-2.2-2.5-3.9l-1.5,0.3l-0.2-1.2l1.4-0.2c0-0.1,0-0.2-0.1-0.4c-0.1-0.4-0.1-0.7-0.1-1.1l-1.4,0.3l-0.2-1.2l1.6-0.3
		c0-1.8,0.5-3.3,1.3-4.5c1-1.5,2.5-2.5,4.5-2.9c1.5-0.3,2.7,0,3.4,0.2l-0.2,1.7c-0.7-0.3-1.8-0.4-2.9-0.2c-1.3,0.2-2.3,0.9-3,1.9
		c-0.6,0.9-0.9,2.1-0.9,3.4l6.9-1.2L131,49l-7.1,1.2c0,0.3,0.1,0.7,0.1,1c0,0.1,0,0.3,0.1,0.4l7.1-1.3l0.2,1.2l-7,1.2
		c0.4,1.4,1.1,2.4,1.9,3c1.1,0.8,2.4,1,3.7,0.8c1.3-0.2,2.3-0.9,2.9-1.3l0.7,1.5C133,57.5,131.8,58.2,130.2,58.5z M132.8,30.4
		l42.7-7.5l4.7,26.8l-42.7,7.5L132.8,30.4z"/>
	<path class="st0" d="M165.2,34.9L165.2,34.9l0.5-0.7c1.3-1.8,2.1-3,1.8-4.4c-0.2-1-1-2-2.6-1.7c-0.8,0.1-1.5,0.6-1.9,1.1l0.4,0.6
		c0.3-0.3,0.8-0.8,1.4-0.9c1.1-0.2,1.6,0.4,1.7,1.2c0.2,1.1-0.5,2.2-2,4.3l-0.6,0.9l0.1,0.6l4.7-0.8l-0.1-0.8L165.2,34.9z"/>
	<path class="st0" d="M170.8,27.1c-1.5,0.3-2.3,1.8-1.9,4.2c0.4,2.4,1.7,3.6,3.1,3.3l0,0c1.6-0.3,2.3-1.8,1.8-4.3
		C173.5,28,172.3,26.8,170.8,27.1z M171.9,33.9L171.9,33.9c-0.9,0.2-1.7-0.9-2-2.8c-0.3-1.8,0.1-3.1,1-3.2c1-0.2,1.7,0.9,2,2.7
		C173.2,32.4,172.9,33.7,171.9,33.9z"/>
	<path class="st0" d="M155.7,48.6c-0.4,0.3-0.5,0.8-0.3,1.2c0.2,0.3,0.4,0.4,0.7,0.4c0.2,0,0.3,0,0.5-0.1c0.4-0.3,0.5-0.8,0.3-1.2
		C156.6,48.5,156.1,48.4,155.7,48.6z"/>
	<path class="st0" d="M155.8,33c-0.3,0.4-0.2,0.9,0.2,1.2c0.1,0.1,0.3,0.2,0.5,0.2c0.3,0,0.5-0.1,0.7-0.4c0.3-0.4,0.2-0.9-0.2-1.2
		C156.6,32.5,156.1,32.6,155.8,33z"/>
	<path class="st0" d="M158.1,46.3c-0.3,0.4-0.2,0.9,0.2,1.2c0.1,0.1,0.3,0.1,0.5,0.1c0.3,0,0.5-0.1,0.7-0.4c0.3-0.4,0.2-0.9-0.2-1.2
		C158.9,45.8,158.4,45.9,158.1,46.3z"/>
	<path class="st0" d="M153.3,31.2c-0.5-0.1-0.9,0.2-1,0.6c-0.1,0.4,0.2,0.9,0.6,1c0.1,0,0.1,0,0.2,0c0.4,0,0.7-0.3,0.8-0.7
		C154,31.7,153.7,31.3,153.3,31.2z"/>
	<path class="st0" d="M160.5,42.5c-0.5-0.1-0.9,0.2-1,0.6c-0.1,0.4,0.2,0.9,0.6,1c0.1,0,0.1,0,0.2,0c0.4,0,0.7-0.3,0.8-0.7
		C161.3,43.1,161,42.6,160.5,42.5z"/>
	<path class="st0" d="M141.5,40c0.1,0,0.1,0,0.2,0c0.4,0,0.7-0.3,0.8-0.7c0.1-0.5-0.2-0.9-0.6-1c-0.5-0.1-0.9,0.2-1,0.6
		C140.8,39.5,141.1,39.9,141.5,40z"/>
	<path class="st0" d="M142.5,45.7c-0.4,0.3-0.5,0.8-0.3,1.2c0.2,0.3,0.4,0.4,0.7,0.4c0.2,0,0.3,0,0.5-0.1c0.4-0.3,0.5-0.8,0.3-1.2
		C143.4,45.6,142.9,45.5,142.5,45.7z"/>
	<path class="st0" d="M159.1,37c0.2,0,0.3,0,0.5-0.1c0.4-0.3,0.5-0.8,0.3-1.2h0c-0.3-0.4-0.8-0.5-1.2-0.3c-0.4,0.3-0.5,0.8-0.3,1.2
		C158.5,36.9,158.8,37,159.1,37z"/>
	<path class="st0" d="M149.1,49.8c-0.5-0.1-0.9,0.2-1,0.6c-0.1,0.4,0.2,0.9,0.6,1c0.1,0,0.1,0,0.2,0c0.4,0,0.7-0.3,0.8-0.7
		C149.9,50.3,149.6,49.9,149.1,49.8z"/>
	<path class="st0" d="M145.4,32.5c-0.4,0.3-0.5,0.8-0.3,1.2c0.2,0.3,0.4,0.4,0.7,0.4c0.2,0,0.3,0,0.5-0.1c0.4-0.3,0.5-0.8,0.3-1.2
		C146.4,32.4,145.8,32.3,145.4,32.5z"/>
	<path class="st0" d="M142.5,35.3c-0.3,0.4-0.2,0.9,0.2,1.2c0.1,0.1,0.3,0.2,0.5,0.2c0.3,0,0.5-0.1,0.7-0.4c0.3-0.4,0.2-0.9-0.2-1.2
		C143.3,34.9,142.8,35,142.5,35.3z"/>
	<path class="st0" d="M144.9,48.6c-0.3,0.4-0.2,0.9,0.2,1.2c0.2,0.1,0.3,0.1,0.5,0.1c0.3,0,0.5-0.1,0.7-0.4c0.3-0.4,0.2-0.9-0.2-1.2
		C145.7,48.1,145.1,48.2,144.9,48.6z"/>
	<path class="st0" d="M142.4,43.1c0.1-0.5-0.2-0.9-0.6-1c-0.5-0.1-0.9,0.2-1,0.6c-0.1,0.4,0.2,0.9,0.6,1c0.1,0,0.1,0,0.2,0
		C142,43.8,142.4,43.5,142.4,43.1z"/>
	<path class="st0" d="M160.6,38.8c-0.5-0.1-0.9,0.2-1,0.6c-0.1,0.4,0.2,0.9,0.6,1c0.1,0,0.1,0,0.2,0c0.4,0,0.7-0.3,0.8-0.7
		C161.3,39.4,161.1,38.9,160.6,38.8z"/>
	<path class="st0" d="M152.9,49.9c-0.5-0.1-0.9,0.2-1,0.6c-0.1,0.4,0.2,0.9,0.6,1c0.1,0,0.1,0,0.2,0c0.4,0,0.7-0.3,0.8-0.7
		C153.6,50.4,153.3,50,152.9,49.9z"/>
	<path class="st0" d="M149.5,31.1c-0.5-0.1-0.9,0.2-1,0.6c-0.1,0.4,0.2,0.9,0.6,1c0.1,0,0.1,0,0.2,0c0.4,0,0.7-0.3,0.8-0.7
		C150.3,31.6,150,31.2,149.5,31.1z"/>
	<path class="st0" d="M159.3,21c-0.1,0.4,0.2,0.9,0.6,1c0.1,0,0.1,0,0.2,0c0.4,0,0.7-0.3,0.8-0.7c0.1-0.5-0.2-0.9-0.6-1
		C159.9,20.3,159.4,20.6,159.3,21z"/>
</g>
<g>
	<path class="st0" d="M127,69.3h3.6c2.5,0,4.2,0.8,4.2,3c0,1.2-0.6,2.3-1.8,2.6V75c1.5,0.3,2.5,1.2,2.5,2.9c0,2.4-1.9,3.6-4.6,3.6
		H127V69.3z M130.4,74.5c2.1,0,2.9-0.8,2.9-2c0-1.4-1-1.9-2.8-1.9h-1.9v3.9H130.4z M130.7,80.2c2.1,0,3.3-0.8,3.3-2.4
		c0-1.5-1.2-2.2-3.3-2.2h-2.1v4.6H130.7z"/>
	<path class="st0" d="M137.2,79.1c0-2,1.7-2.9,5.5-3.4c0-1.1-0.4-2.3-1.8-2.3c-1,0-2,0.5-2.7,1l-0.6-1.1c0.8-0.5,2.1-1.2,3.5-1.2
		c2.2,0,3.1,1.5,3.1,3.7v5.5H143l-0.1-1.1h-0.1c-0.9,0.7-1.8,1.3-3,1.3C138.3,81.7,137.2,80.7,137.2,79.1z M142.7,79.3v-2.5
		c-3,0.4-4,1.1-4,2.3c0,1,0.7,1.4,1.6,1.4C141.1,80.5,141.8,80,142.7,79.3z"/>
	<path class="st0" d="M146.9,72.5h1.3l0.1,1.6h0.1c0.6-1.1,1.5-1.8,2.6-1.8c0.4,0,0.7,0.1,1,0.2l-0.3,1.3c-0.3-0.1-0.5-0.1-0.9-0.1
		c-0.8,0-1.7,0.6-2.3,2.1v5.8h-1.5V72.5z"/>
	<path class="st0" d="M153.3,84.5l0.6-1.1c0.9,0.6,1.8,0.8,2.7,0.8c1.6,0,2.4-0.9,2.5-2.4l0-1.7c-0.7,0.7-1.6,1.2-2.7,1.2
		c-2.3,0-3.7-1.7-3.7-4.5c0-2.8,1.9-4.6,3.9-4.6c1,0,1.8,0.4,2.5,1.1h0l0.1-0.8h1.3v9.4c0,2.2-1.4,3.6-4,3.6
		C155.4,85.5,154.2,85.1,153.3,84.5z M159,78.9v-4.4c-0.8-0.7-1.5-0.9-2.2-0.9c-1.4,0-2.6,1.4-2.6,3.3c0,2,0.9,3.3,2.5,3.3
		C157.5,80.1,158.2,79.7,159,78.9z"/>
	<path class="st0" d="M162.8,77c0-2.9,2-4.7,4-4.7c2.3,0,3.6,1.6,3.6,4.2c0,0.3,0,0.6-0.1,0.9h-6.1c0.1,1.9,1.3,3.1,3,3.1
		c0.9,0,1.6-0.3,2.2-0.7l0.5,1c-0.8,0.5-1.7,0.9-3,0.9C164.7,81.7,162.8,79.9,162.8,77z M169.1,76.3c0-1.8-0.8-2.8-2.2-2.8
		c-1.3,0-2.4,1-2.6,2.8H169.1z"/>
	<path class="st0" d="M172.6,79.7V68.3h1.5v11.5c0,0.5,0.2,0.7,0.4,0.7c0.1,0,0.2,0,0.3,0l0.2,1.1c-0.2,0.1-0.5,0.1-0.9,0.1
		C173,81.7,172.6,81,172.6,79.7z"/>
	<path class="st0" d="M176.4,77c0-2.9,1.8-4.7,3.9-4.7c1,0,1.7,0.4,2.5,1l-0.1-1.5v-3.5h1.5v13.2H183l-0.1-1.1h-0.1
		c-0.7,0.7-1.7,1.3-2.7,1.3C177.9,81.7,176.4,80,176.4,77z M182.7,79.2v-4.7c-0.8-0.7-1.4-0.9-2.2-0.9c-1.4,0-2.6,1.4-2.6,3.4
		c0,2.1,0.9,3.4,2.5,3.4C181.3,80.4,182,80,182.7,79.2z"/>
	<path class="st0" d="M122.6,97.1c0-2,1.7-2.9,5.5-3.4c0-1.1-0.4-2.3-1.8-2.3c-1,0-2,0.5-2.7,1l-0.6-1.1c0.8-0.5,2.1-1.2,3.5-1.2
		c2.2,0,3.1,1.5,3.1,3.7v5.5h-1.3l-0.1-1.1h-0.1c-0.9,0.7-1.8,1.3-3,1.3C123.8,99.7,122.6,98.7,122.6,97.1z M128.1,97.3v-2.5
		c-3,0.4-4,1.1-4,2.3c0,1,0.7,1.4,1.6,1.4C126.6,98.5,127.3,98,128.1,97.3z"/>
	<path class="st0" d="M133.7,98.5L133.7,98.5l-0.2,0.9h-1.2V86.3h1.5v3.6l0,1.6c0.8-0.7,1.8-1.3,2.8-1.3c2.3,0,3.6,1.8,3.6,4.6
		c0,3.1-1.8,4.9-3.9,4.9C135.5,99.7,134.5,99.3,133.7,98.5z M138.6,94.8c0-2-0.7-3.3-2.4-3.3c-0.8,0-1.6,0.4-2.4,1.2v4.7
		c0.8,0.7,1.6,0.9,2.2,0.9C137.5,98.4,138.6,97.1,138.6,94.8z"/>
	<path class="st0" d="M142.5,86.3h1.5v3.6l-0.1,1.8c0.9-0.8,1.8-1.5,3-1.5c1.9,0,2.7,1.2,2.7,3.5v5.7h-1.5V94c0-1.7-0.5-2.4-1.7-2.4
		c-0.9,0-1.6,0.5-2.5,1.4v6.5h-1.5V86.3z"/>
	<path class="st0" d="M151.8,95c0-2.9,2-4.7,4-4.7c2.3,0,3.6,1.6,3.6,4.2c0,0.3,0,0.6-0.1,0.9h-6.1c0.1,1.9,1.3,3.1,3,3.1
		c0.9,0,1.6-0.3,2.2-0.7l0.5,1c-0.8,0.5-1.7,0.9-3,0.9C153.7,99.7,151.8,97.9,151.8,95z M158.1,94.3c0-1.8-0.8-2.8-2.2-2.8
		c-1.3,0-2.4,1-2.6,2.8H158.1z"/>
	<path class="st0" d="M163,98.5L163,98.5l-0.2,0.9h-1.2V86.3h1.5v3.6l0,1.6c0.8-0.7,1.8-1.3,2.8-1.3c2.3,0,3.6,1.8,3.6,4.6
		c0,3.1-1.8,4.9-3.9,4.9C164.7,99.7,163.8,99.3,163,98.5z M167.8,94.8c0-2-0.7-3.3-2.4-3.3c-0.8,0-1.6,0.4-2.4,1.2v4.7
		c0.8,0.7,1.6,0.9,2.2,0.9C166.8,98.4,167.8,97.1,167.8,94.8z"/>
	<path class="st0" d="M171.1,95c0-2.9,2-4.7,4-4.7c2.3,0,3.6,1.6,3.6,4.2c0,0.3,0,0.6-0.1,0.9h-6.1c0.1,1.9,1.3,3.1,3,3.1
		c0.9,0,1.6-0.3,2.2-0.7l0.5,1c-0.8,0.5-1.7,0.9-3,0.9C173,99.7,171.1,97.9,171.1,95z M177.4,94.3c0-1.8-0.8-2.8-2.2-2.8
		c-1.3,0-2.4,1-2.6,2.8H177.4z"/>
	<path class="st0" d="M180.9,90.5h1.3l0.1,1.3h0.1c0.9-0.9,1.8-1.5,3-1.5c1.9,0,2.7,1.2,2.7,3.5v5.7h-1.5V94c0-1.7-0.5-2.4-1.7-2.4
		c-0.9,0-1.6,0.5-2.5,1.4v6.5h-1.5V90.5z"/>
</g>
</svg>
