<?xml version="1.0" encoding="utf-8"?>
<!-- Generator: Adobe Illustrator 22.1.0, SVG Export Plug-In . SVG Version: 6.00 Build 0)  -->
<svg version="1.1" id="Ebene_1" xmlns="http://www.w3.org/2000/svg" xmlns:xlink="http://www.w3.org/1999/xlink" x="0px" y="0px"
	 viewBox="0 0 436 173.1" style="enable-background:new 0 0 436 173.1;" xml:space="preserve">
<style type="text/css">
	.st0{fill:#FFFFFF;}
</style>
<path class="st0" d="M206.2,84.6v50.8h-16.1V10h42.7c10.3-0.2,20.2,3.7,27.7,10.9c7.5,6.7,11.7,16.4,11.5,26.4
	c0.2,10.1-4,19.8-11.5,26.6c-7.5,7.1-16.7,10.7-27.6,10.7L206.2,84.6L206.2,84.6z M206.2,25.4v43.8h27c6,0.2,11.8-2.2,15.9-6.5
	c8.5-8.2,8.6-21.7,0.4-30.2c-0.1-0.1-0.3-0.3-0.4-0.4c-4.1-4.4-9.9-6.8-15.9-6.6L206.2,25.4L206.2,25.4z"/>
<path class="st0" d="M309.1,46.8c11.9,0,21.3,3.2,28.2,9.5c6.9,6.4,10.3,15.1,10.3,26.2v52.8h-15.4v-11.9h-0.7
	c-6.7,9.8-15.5,14.7-26.6,14.7c-9.4,0-17.4-2.8-23.7-8.4c-6.2-5.2-9.7-12.9-9.5-21c0-8.9,3.4-15.9,10.1-21.2s15.7-7.9,26.9-7.9
	c9.6,0,17.4,1.8,23.6,5.3v-3.7c0-5.5-2.4-10.7-6.6-14.3c-4.3-3.8-9.8-5.9-15.5-5.9c-9,0-16.1,3.8-21.4,11.4l-14.2-8.9
	C282.3,52.4,293.8,46.8,309.1,46.8z M288.3,109.1c0,4.2,2,8.1,5.3,10.5c3.6,2.8,8,4.3,12.5,4.2c6.8,0,13.3-2.7,18.1-7.5
	c5.3-5,8-10.9,8-17.7c-5-4-12-6-21-6c-6.5,0-12,1.6-16.4,4.7C290.5,100.5,288.3,104.4,288.3,109.1L288.3,109.1z"/>
<path class="st0" d="M436,49.6l-53.8,123.6h-16.6l20-43.2l-35.4-80.3h17.5l25.5,61.6h0.4l24.9-61.6H436z"/>
<path class="st0" d="M141.1,73.6c0-4.9-0.4-9.8-1.2-14.6H72v27.7h38.9c-1.6,8.9-6.8,16.9-14.4,21.9v18h23.2
	C133.3,114.1,141.1,95.6,141.1,73.6z"/>
<path class="st0" d="M72,144c19.4,0,35.8-6.4,47.7-17.4l-23.2-18c-6.5,4.4-14.8,6.9-24.5,6.9c-18.8,0-34.7-12.7-40.4-29.7H7.7v18.6
	C19.9,128.6,44.8,144,72,144z"/>
<path class="st0" d="M31.6,85.8c-3-8.9-3-18.6,0-27.6V39.7H7.7C-2.6,60-2.6,84,7.7,104.3L31.6,85.8z"/>
<path class="st0" d="M72,28.5c10.3-0.2,20.2,3.7,27.6,10.8l0,0l20.5-20.5C107.1,6.5,89.9-0.2,72,0C44.8,0,19.9,15.4,7.7,39.7
	l23.9,18.6C37.3,41.2,53.2,28.5,72,28.5z"/>
</svg>
