<svg xmlns="http://www.w3.org/2000/svg" viewBox="0 0 817.291 260.262" height="260.262" width="817.291"><path d="M271.99 5c-11.042 0-21.75 2.538-31.806 7.273-14.362 6.803-27.39 18.146-38.026 33.2-6.908 9.772-12.823 21.1-17.453 33.77-8.73 23.914-8.633 43.312.293 56.095 5.061 7.226 15.583 15.858 36.975 15.883h.082c38.968 0 68.056-25.542 86.478-75.918 4.866-13.329 11.286-38.204-.447-54.99C300.999 10.166 288.874 5.016 271.99 5zm235.127 0c-11.034 0-21.75 2.538-31.799 7.273-14.37 6.803-27.388 18.146-38.023 33.2-6.917 9.772-12.825 21.1-17.455 33.77-8.74 23.914-8.634 43.312.3 56.095 5.054 7.226 15.567 15.858 36.975 15.883h.067c38.976 0 68.072-25.542 86.478-75.918 4.882-13.329 11.286-38.204-.44-54.99C536.126 10.166 524.002 5.016 507.118 5zM146.844 7.025c-12.824 0-25.282 0-36.446 5.662-11.155 5.664-21.01 16.999-28.593 39.668-1.644 4.875-2.513 9.074-2.627 12.72-.114 3.653.52 6.76 1.904 9.462 1.709 3.296 4.475 6.396 7.934 9.008 3.466 2.62 7.607 4.745 12.074 6.103.17.05 2.515.716 5.363 1.53a679.48 679.48 0 018.242 2.424c1.229.374 2.579.863 3.8 1.603 1.228.724 2.327 1.7 3.019 3.05.455.896.7 1.88.724 2.93.033 1.058-.147 2.199-.562 3.403-1.042 3.076-2.62 5.06-5.631 6.273-2.994 1.213-7.412 1.602-14.117 1.65H18.23L5 148.86h89.588c8.43 0 23.841.001 38.65-6.296 14.81-6.29 29.018-18.862 35.032-44.03 2.262-9.455 1.561-17.16-2.141-23.215-3.719-6.045-10.44-10.438-20.229-13.246 0 0-2.188-.636-4.767-1.377-2.563-.74-5.534-1.586-7.047-2.025-2.506-.716-4.435-2.165-5.574-4.012-1.131-1.839-1.473-4.077-.83-6.363.675-2.376 2.303-4.272 4.646-5.582 2.36-1.302 5.452-2.018 9.065-2.018h52.076c.366-.529.7-1.106 1.066-1.634 9.512-13.459 21.027-24.346 33.639-32.036h-81.33zm234.068 0c-23.174 0-40.425 11.725-48.57 33.67L292.975 148.86h43.127l20.228-55.6 38.113.026 10.846-29.781-37.99-.025 6.119-17.243c1.27-3.092 4.32-5.548 8.78-5.548 2.481 0 30.463.008 44.939.015.374-.537.708-1.114 1.074-1.642 9.512-13.459 22.98-24.346 35.592-32.036h-82.89zm200.072.078l-51.646 141.844h43.867l18.772-49.927c.919 2.058 11.994 49.927 11.994 49.927h46.12s-8.388-35.175-14.556-49.383c-1.587-3.653-3.24-7.746-5.453-11.171 13.027-4.842 31.905-15.233 39.725-36.291 4.8-12.946 4.525-23.411-.813-31.084-6.469-9.317-19.634-13.89-40.262-13.915h-47.748zm89.977.002c2.775 2.197 5.167 4.703 7.16 7.567 5.102 7.356 7.054 16.097 5.89 26.113h26.122l-39.367 108.197H710.1l39.39-108.197h50.54l12.261-33.68h-141.33zM609.887 36.39h7.242c13.239.009 18.177 3.881 13.693 15.965-4.207 11.342-11.774 18.35-26.16 18.35h-.056l-7.446-.009 12.727-34.306zm-348.246.703h.008c13.474.016 16.56 7.828 4.728 40.197h-.002c-12.157 33.272-20.976 41.645-34.256 41.645h-.025c-12.938-.008-17.477-8.195-5.37-41.313 9.04-24.72 20.75-40.53 34.917-40.53zm235.127 0h.015c13.467.016 16.558 7.828 4.719 40.197-12.149 33.272-20.977 41.645-34.248 41.645h-.031c-12.946-.008-17.463-8.195-5.364-41.313 9.032-24.72 20.75-40.53 34.909-40.53z" fill="#ee7f00"/><path d="M47.65 163.89c-2.758 0-4.825.504-6.209 1.489-1.375 1.009-2.53 2.792-3.466 5.371-.904 2.474-1.041 4.19-.414 5.166.626.985 2.325 1.473 5.125 1.473 2.79 0 4.875-.504 6.242-1.53 1.367-1.017 2.514-2.791 3.433-5.33.912-2.506 1.066-4.23.448-5.199-.603-.96-2.327-1.44-5.159-1.44zm23.784 0c-2.8 0-4.874.504-6.233 1.489-1.367 1.009-2.513 2.792-3.45 5.371-.894 2.474-1.04 4.19-.439 5.166.61.985 2.303 1.473 5.102 1.473 2.791 0 4.874-.504 6.266-1.53 1.383-1.017 2.537-2.791 3.465-5.33.91-2.506 1.05-4.23.423-5.199-.634-.96-2.343-1.44-5.134-1.44zm443.98 18.452c-3.238 0-6.443.416-9.633 1.246a32.667 32.667 0 00-8.886 3.783c-2.743 1.693-5.19 3.808-7.38 6.363-2.18 2.564-3.882 5.534-5.11 8.903-1.075 2.945-1.554 5.459-1.448 7.566.098 2.1.568 3.931 1.406 5.469a12.775 12.775 0 003.32 3.97 30.25 30.25 0 004.41 2.962c1.571.87 3.1 1.709 4.606 2.482 1.49.781 2.776 1.61 3.842 2.506 1.082.887 1.837 1.904 2.293 3.043.456 1.147.392 2.514-.186 4.11a12.881 12.881 0 01-2.132 3.751 12.768 12.768 0 01-3.23 2.832 15.67 15.67 0 01-4.16 1.774c-1.529.415-3.164.627-4.905.627-2.653 0-4.874-.303-6.664-.905-1.79-.594-3.287-1.26-4.475-1.984-1.18-.724-2.132-1.384-2.832-1.986-.716-.594-1.327-.895-1.84-.895-.358 0-.707.097-1.056.3-.342.196-.684.529-1.018 1-.334.473-.676 1.091-1.025 1.856-.35.757-.74 1.71-1.14 2.824-.61 1.677-.977 2.953-1.099 3.84-.13.887-.031 1.571.27 2.043.285.472.87 1.017 1.717 1.635.838.61 1.96 1.204 3.351 1.766 1.392.561 3.06 1.042 4.996 1.441 1.945.399 4.134.594 6.567.594 3.588 0 7.137-.473 10.636-1.408a36.881 36.881 0 009.805-4.223c3.043-1.863 5.752-4.191 8.152-6.99 2.393-2.791 4.265-6.038 5.616-9.74 1.025-2.832 1.489-5.289 1.375-7.372-.114-2.083-.595-3.905-1.45-5.443a13.046 13.046 0 00-3.4-3.978 34.384 34.384 0 00-4.477-2.963 144.86 144.86 0 00-4.644-2.473c-1.53-.781-2.849-1.62-3.955-2.508-1.115-.887-1.889-1.904-2.328-3.043-.432-1.139-.367-2.498.203-4.06.382-1.05.937-2.042 1.67-2.995a10.29 10.29 0 012.611-2.416 13.103 13.103 0 013.483-1.578c1.301-.382 2.734-.57 4.296-.57 1.994 0 3.744.236 5.233.732 1.489.489 2.757 1.025 3.806 1.635 1.05.594 1.92 1.148 2.604 1.66.692.513 1.238.758 1.629.758.407 0 .757-.106 1.074-.326.317-.22.627-.561.928-1.033.293-.472.592-1.075.918-1.799a43.01 43.01 0 001.058-2.66c.342-.944.61-1.74.797-2.367a10.96 10.96 0 00.39-1.58c.058-.415.074-.756.042-1.008-.04-.252-.17-.57-.399-.928-.227-.358-.806-.814-1.734-1.36-.936-.545-2.042-1.033-3.336-1.472-1.285-.431-2.724-.773-4.295-1.025a29.993 29.993 0 00-4.867-.383zm225.994.047c-5.55 0-10.887.853-16.03 2.562a51.052 51.052 0 00-14.255 7.371c-4.353 3.214-8.25 7.112-11.66 11.701-3.41 4.598-6.16 9.774-8.268 15.543-2.026 5.582-3.035 10.587-2.994 14.989.016 4.41 1.018 8.153 2.979 11.213 1.969 3.067 4.88 5.402 8.746 7.021 3.849 1.611 8.592 2.416 14.215 2.416 1.928 0 3.874-.089 5.843-.267a73.057 73.057 0 005.955-.815 75.64 75.64 0 005.893-1.31c1.928-.513 3.563-.991 4.914-1.463 1.35-.48 2.367-1.124 3.05-1.938a9.556 9.556 0 001.604-2.855l10.204-28.024c.26-.732.407-1.376.423-1.937.025-.562-.056-1.041-.26-1.44a1.978 1.978 0 00-.87-.896c-.383-.204-.864-.309-1.442-.309h-23.783c-.326 0-.651.105-.977.309-.325.195-.65.504-.992.928-.325.415-.668.96-1.01 1.66-.341.683-.7 1.538-1.066 2.547-.716 1.969-1.042 3.352-.977 4.166.074.821.431 1.228 1.082 1.228h13.338l-5.949 16.324a24.657 24.657 0 01-4.947 1.635c-1.685.358-3.335.545-4.93.545-3.27 0-6.064-.528-8.383-1.578-2.319-1.058-4.067-2.613-5.23-4.688-1.172-2.058-1.734-4.63-1.694-7.69.05-3.067.805-6.622 2.27-10.642 1.335-3.67 3.084-7.014 5.24-10.04 2.148-3.028 4.598-5.623 7.34-7.788a32.916 32.916 0 018.902-5.004 28.47 28.47 0 019.895-1.765c3.19 0 5.874.325 8.055.976 2.164.651 3.988 1.367 5.46 2.123 1.457.765 2.597 1.472 3.41 2.123.814.651 1.456.977 1.936.977.318 0 .635-.089.936-.268.31-.187.62-.505.953-.953.325-.455.667-1.065 1.033-1.83.374-.757.749-1.66 1.131-2.719.66-1.814 1.05-3.18 1.164-4.107.13-.92.032-1.636-.27-2.148-.309-.513-.95-1.108-1.927-1.8-.985-.683-2.311-1.333-3.963-1.927-1.644-.602-3.647-1.107-5.998-1.522-2.352-.423-5.053-.634-8.096-.634zm-444.888.869c-1.856 0-3.311.049-4.377.146-1.066.09-1.896.334-2.498.733-.603.398-1.017.968-1.245 1.717-.236.74-.423 1.766-.578 3.076l-6.363 61.433c-.106.88-.081 1.571.049 2.1.138.52.52.919 1.146 1.195.627.269 1.547.456 2.768.545 1.22.09 2.881.131 4.98.131 2.002 0 3.62-.041 4.866-.13 1.245-.09 2.285-.284 3.1-.577.805-.285 1.473-.692 1.993-1.22.513-.522 1.018-1.206 1.506-2.044l26.908-44.623h.106l-4.97 44.623c-.14.88-.14 1.571 0 2.1.13.52.511.919 1.138 1.195.626.269 1.545.456 2.765.545 1.221.09 2.865.131 4.932.131 1.847 0 3.392-.041 4.621-.13 1.229-.09 2.279-.277 3.133-.546.862-.276 1.587-.674 2.148-1.195.578-.529 1.14-1.22 1.668-2.1l38.465-61.271c.814-1.343 1.39-2.409 1.733-3.182.333-.79.373-1.375.12-1.773-.26-.399-.803-.643-1.657-.733-.863-.097-2.091-.146-3.678-.146-1.709 0-3.053.049-4.03.146-.976.09-1.765.253-2.359.489-.586.236-1.057.561-1.383.976-.333.423-.667.919-.984 1.496l-31.922 53.77h-.105l6.209-53.557c.113-.716.128-1.303.039-1.742-.098-.423-.382-.764-.862-1s-1.213-.392-2.222-.465c-1.017-.073-2.384-.113-4.125-.113-1.636 0-2.962.049-3.971.146-1.017.09-1.847.253-2.49.489-.651.236-1.172.568-1.563 1-.398.439-.789 1.01-1.187 1.685l-32.328 53.557h-.057l7.275-53.932c.147-.691.194-1.22.145-1.603-.04-.383-.275-.674-.715-.87-.44-.203-1.139-.325-2.115-.382-.985-.057-2.32-.09-4.03-.09zm169.828.004c-1.384 0-2.549.056-3.493.162-.943.114-1.732.26-2.359.44-.626.178-1.113.415-1.455.708a2.45 2.45 0 00-.717.977l-24.199 66.502c-.13.366-.138.693 0 .986.122.285.422.52.902.7.489.187 1.164.333 2.051.439.879.106 2.018.162 3.393.162 1.416 0 2.597-.056 3.549-.162.943-.106 1.724-.252 2.326-.44.618-.179 1.091-.414 1.441-.699.334-.293.57-.62.7-.986l24.206-66.502c.14-.358.138-.684.008-.977-.13-.293-.438-.53-.918-.709-.472-.179-1.147-.325-2.01-.44-.87-.105-2.017-.161-3.425-.161zm-435.38.002c-1.415 0-2.594.058-3.546.164-.944.114-1.735.26-2.361.44-.627.178-1.107.413-1.424.706-.326.285-.553.61-.692.977L7.363 228.383c-1.635 4.5-2.424 8.423-2.36 11.775.074 3.36.903 6.159 2.522 8.405 1.612 2.254 3.98 3.93 7.096 5.037 3.108 1.106 6.884 1.66 11.31 1.66 4.72 0 9.113-.619 13.19-1.848 4.077-1.237 7.78-3.025 11.1-5.384 3.328-2.352 6.25-5.241 8.756-8.659 2.514-3.41 4.556-7.267 6.127-11.588l15.37-42.23c.139-.366.138-.692.024-.977-.106-.293-.399-.528-.879-.707-.48-.179-1.138-.325-1.992-.44-.846-.105-1.963-.163-3.346-.163-1.375 0-2.545.058-3.513.164-.96.114-1.743.26-2.362.44-.61.178-1.073.413-1.398.706-.326.285-.545.61-.684.977l-15.428 42.394c-.895 2.466-2.043 4.671-3.41 6.616-1.383 1.944-2.93 3.57-4.646 4.888a19.484 19.484 0 01-5.621 3.028 19.857 19.857 0 01-6.405 1.033c-2.221 0-4.102-.333-5.656-1.008-1.546-.675-2.718-1.677-3.523-3.02-.798-1.342-1.17-3.035-1.114-5.093.057-2.043.595-4.467 1.612-7.266l15.135-41.572c.13-.366.13-.692 0-.977-.13-.293-.433-.528-.913-.707-.48-.179-1.155-.325-2.017-.44-.87-.105-1.994-.163-3.37-.163zm527.987.002c-1.416 0-2.595.056-3.547.162-.944.106-1.733.253-2.36.432-.626.187-1.107.424-1.433.709a2.484 2.484 0 00-.683.984l-15.582 42.824c-1.636 4.5-2.425 8.43-2.352 11.783.057 3.36.895 6.159 2.506 8.405 1.62 2.254 3.98 3.93 7.105 5.037 3.109 1.106 6.882 1.66 11.309 1.66 4.711 0 9.107-.619 13.191-1.848 4.077-1.237 7.77-3.027 11.098-5.386 3.328-2.36 6.242-5.24 8.756-8.657 2.514-3.41 4.548-7.275 6.127-11.588l15.37-42.23c.14-.366.138-.691.024-.984-.114-.285-.397-.522-.877-.71-.48-.178-1.14-.325-1.994-.431-.846-.106-1.968-.162-3.344-.162-1.375 0-2.547.056-3.515.162-.96.106-1.741.253-2.36.432-.61.187-1.083.424-1.4.709a2.484 2.484 0 00-.683.984l-15.428 42.393c-.903 2.465-2.043 4.67-3.41 6.615-1.384 1.944-2.928 3.564-4.645 4.89a19.277 19.277 0 01-5.623 3.02 19.761 19.761 0 01-6.412 1.04c-2.213 0-4.092-.34-5.647-1.007-1.546-.675-2.725-1.677-3.53-3.02-.798-1.342-1.173-3.043-1.108-5.093.049-2.043.594-4.467 1.611-7.266l15.127-41.572c.138-.366.13-.691 0-.984-.122-.285-.432-.522-.904-.71-.48-.178-1.155-.325-2.018-.431-.87-.106-1.994-.162-3.369-.162zm122.367.105c-1.31 0-2.392.05-3.271.139-.863.09-1.586.243-2.18.463-.586.22-1.042.473-1.36.758a2.404 2.404 0 00-.683.984l-12.035 33.035a662.529 662.529 0 00-2.781 7.885 335.844 335.844 0 00-2.645 7.95h-.058c-.13-1.457-.26-2.904-.43-4.352-.163-1.457-.327-2.93-.506-4.436-.179-1.513-.39-3.01-.617-4.516a472.863 472.863 0 01-.692-4.605l-4.345-25.738c-.171-1.416-.416-2.603-.717-3.563-.31-.96-.733-1.709-1.27-2.254-.553-.545-1.253-.945-2.107-1.181-.854-.236-1.976-.35-3.352-.35H634.6c-1.449 0-2.831.431-4.141 1.277-1.31.855-2.27 2.133-2.889 3.842L604.533 252c-.138.357-.163.69-.098.984.09.284.327.529.717.724.407.204 1.002.359 1.8.473.797.106 1.822.162 3.09.162 1.303 0 2.393-.056 3.28-.162.87-.114 1.587-.27 2.149-.473.561-.195.99-.44 1.308-.724.293-.293.515-.627.645-.985l13.418-36.844c1-2.758 1.944-5.435 2.806-8.023.88-2.596 1.716-5.2 2.522-7.812h.105a86.04 86.04 0 00.424 6.617c.22 2.262.488 4.377.79 6.338l5.54 32.922c.252 1.814.53 3.296.83 4.435.318 1.14.741 2.05 1.27 2.717a4.112 4.112 0 002.05 1.392c.839.26 1.89.381 3.167.381h6.086a8.21 8.21 0 002.156-.3c.74-.196 1.44-.52 2.092-.952a8.477 8.477 0 001.757-1.627c.53-.659.944-1.4 1.245-2.238l23.043-63.289c.13-.366.163-.691.082-.984-.074-.285-.302-.538-.676-.758-.375-.22-.96-.374-1.766-.463-.797-.09-1.814-.139-3.043-.139zm-508.093.219c-1.205 0-2.336.35-3.418 1.059-1.075.716-1.895 1.862-2.48 3.457l-22.345 61.384c-.577 1.603-.587 2.752-.025 3.46.561.707 1.44 1.066 2.629 1.066h35.37c.335 0 .669-.107 1.019-.31.333-.196.683-.505 1.017-.944.35-.44.683-1.009 1.041-1.717a28.77 28.77 0 001.09-2.637c.382-1.05.651-1.937.83-2.636.163-.708.235-1.286.211-1.725-.016-.431-.139-.748-.334-.951-.195-.187-.464-.293-.79-.293h-25.353l7.225-19.863h21.28a2.07 2.07 0 001-.276c.333-.179.668-.481 1.001-.896.334-.415.674-.967 1.008-1.658.35-.692.707-1.564 1.09-2.614.374-1.017.644-1.88.807-2.588.17-.7.235-1.26.203-1.683-.025-.415-.139-.733-.342-.928-.204-.195-.456-.3-.79-.3h-21.269l6.248-17.194h25.145c.333 0 .659-.097.984-.3.326-.204.658-.515 1-.954.342-.431.676-1.009 1.026-1.717.35-.7.707-1.562 1.082-2.588.398-1.082.674-1.977.845-2.693.163-.7.245-1.285.229-1.74-.025-.448-.121-.765-.317-.944-.179-.179-.44-.277-.765-.277h-35.152zm59.052 0c-1.196 0-2.334.35-3.408 1.059-1.074.716-1.905 1.862-2.482 3.457l-23.272 63.949c-.13.366-.147.692-.033.976.114.293.406.528.894.707.472.18 1.157.334 2.043.44.88.106 2.01.162 3.393.162 1.408 0 2.597-.056 3.541-.162.952-.106 1.732-.26 2.334-.44.61-.179 1.09-.414 1.432-.707.333-.284.578-.61.709-.976l9.763-26.836h4.47c1.513 0 2.772.235 3.765.715a5.285 5.285 0 012.312 2.092c.553.927.934 2.075 1.162 3.459.228 1.375.392 2.952.514 4.734l.586 15.72c-.016.44.031.815.129 1.116.114.31.392.57.847.766.448.203 1.114.333 1.993.406.887.073 2.083.113 3.613.113 1.814 0 3.264-.04 4.338-.113 1.082-.073 1.919-.196 2.53-.375.618-.187 1.042-.415 1.286-.684.244-.268.44-.609.586-1.008.13-.358.219-.863.268-1.498.049-.634.056-1.642.015-3.017l-.886-13.875c-.082-1.668-.245-3.164-.489-4.49-.236-1.319-.586-2.508-1.025-3.542-.44-1.033-.983-1.91-1.65-2.634a9.237 9.237 0 00-2.295-1.848 34.774 34.774 0 006.818-2.727 29.088 29.088 0 005.744-3.978 27.186 27.186 0 004.533-5.191c1.302-1.937 2.384-4.086 3.246-6.446 1.018-2.799 1.498-5.27 1.457-7.435-.056-2.157-.585-4.021-1.585-5.6-1.001-1.578-2.46-2.855-4.38-3.832-1.903-.984-4.199-1.675-6.892-2.074a63.057 63.057 0 00-3.164-.27c-1.172-.073-2.678-.113-4.525-.113H232.28zm171.944 0c-1.197 0-2.336.35-3.41 1.059-1.075.716-1.905 1.862-2.483 3.457l-22.344 61.384c-.578 1.603-.594 2.752-.04 3.46.569.707 1.448 1.066 2.644 1.066h35.37c.335 0 .669-.107 1.01-.31.35-.196.685-.505 1.018-.944.358-.44.7-1.009 1.041-1.717.35-.708.715-1.587 1.098-2.637h.002c.382-1.05.657-1.937.828-2.636.155-.708.238-1.286.205-1.725-.016-.431-.13-.748-.334-.951-.195-.187-.463-.293-.789-.293h-25.355l7.226-19.863h21.278c.333 0 .658-.089 1-.276.341-.179.676-.481 1.01-.896.333-.415.667-.967 1.009-1.658a26.45 26.45 0 001.09-2.614c.366-1.017.634-1.88.797-2.588.17-.7.243-1.26.21-1.683-.024-.415-.144-.733-.34-.928a1.098 1.098 0 00-.79-.3h-21.278l6.258-17.194h25.135c.326 0 .659-.097.992-.3.318-.204.659-.515.992-.954.342-.431.692-1.009 1.026-1.717.358-.7.717-1.562 1.092-2.588a24.27 24.27 0 00.838-2.693c.17-.7.242-1.285.226-1.74-.016-.448-.121-.765-.309-.944-.187-.179-.44-.277-.773-.277h-35.15zm-298.534.004c-1.196 0-2.336.35-3.41 1.059-1.074.708-1.896 1.854-2.482 3.457l-22.344 61.384c-.578 1.595-.595 2.744-.033 3.452.561.708 1.44 1.066 2.637 1.066h18.724c2.824 0 5.46-.172 7.885-.521a43.674 43.674 0 007.086-1.604 38.545 38.545 0 006.592-2.773 31.518 31.518 0 005.818-4.02c1.782-1.562 3.384-3.37 4.816-5.396 1.433-2.035 2.605-4.295 3.516-6.801.87-2.392 1.294-4.558 1.27-6.479-.033-1.92-.409-3.595-1.141-5.027a9.23 9.23 0 00-3.133-3.516c-1.359-.903-2.96-1.546-4.824-1.904a24.177 24.177 0 004.996-2.287 24.436 24.436 0 004.264-3.262 23.925 23.925 0 003.392-4.11 23.583 23.583 0 002.409-4.816c1.114-3.043 1.53-5.697 1.261-7.943-.268-2.254-1.164-4.117-2.678-5.582-1.513-1.473-3.637-2.57-6.37-3.295-2.726-.724-6.249-1.082-10.561-1.082h-17.69zm5.899 10.717h7.234c2.213 0 3.906.203 5.086.601 1.18.4 2.066.969 2.668 1.717.602.74.911 1.676.936 2.799.024 1.131-.212 2.393-.725 3.809a15.197 15.197 0 01-1.92 3.62 13.954 13.954 0 01-2.92 2.995c-1.123.854-2.393 1.521-3.8 2.01-1.416.488-3.15.74-5.225.74h-7.99l6.656-18.291zm126.777.215h6.42c1.636 0 2.898.066 3.785.172.887.105 1.652.25 2.31.421 2.157.668 3.474 1.782 3.946 3.385.472 1.595.278 3.556-.56 5.875-.562 1.522-1.31 2.906-2.27 4.135a14.311 14.311 0 01-3.443 3.19c-1.343.886-2.856 1.57-4.565 2.066-1.7.488-3.563.732-5.597.732h-7.291l7.265-19.976zM101.125 223.05h8.488c2.612 0 4.645.235 6.11.707 1.456.472 2.564 1.14 3.304 2.01.725.87 1.13 1.953 1.203 3.238.082 1.286-.177 2.744-.771 4.38-.57 1.57-1.35 2.953-2.352 4.165a14.764 14.764 0 01-3.459 3.043 15.675 15.675 0 01-4.214 1.856c-1.514.423-3.263.617-5.248.617H93.844l7.281-20.016z" fill="#383a41"/></svg>