<?xml version="1.0" encoding="utf-8"?>
<!-- Generator: Adobe Illustrator 22.1.0, SVG Export Plug-In . SVG Version: 6.00 Build 0)  -->
<svg version="1.1" id="Ebene_1" xmlns="http://www.w3.org/2000/svg" xmlns:xlink="http://www.w3.org/1999/xlink" x="0px" y="0px"
	 viewBox="0 0 62.8 11" style="enable-background:new 0 0 62.8 11;" xml:space="preserve">
<style type="text/css">
	.st0{fill:#FFFFFF;}
</style>
<g id="Ebene_1_1_">
	<g>
		<path class="st0" d="M12.3,0c-1.2,0-2.4,0.4-3.4,1.2l0,0C7.9,0.4,6.7,0,5.5,0C2.5,0,0,2.4,0,5.5c0,3,2.5,5.5,5.5,5.5
			c1.3,0,2.5-0.4,3.4-1.2c1,0.8,2.2,1.2,3.4,1.2c3,0,5.5-2.4,5.5-5.5S15.4,0,12.3,0z"/>
		<path class="st0" d="M62.6,7c-0.1,0-0.2,0.1-0.2,0.1c0,0.1,0,0.1,0,0.2c0.1,0.1,0.2,0.2,0.3,0.1c0.1,0,0.1-0.1,0.1-0.2
			C62.8,7.1,62.7,7,62.6,7z M62.7,7.3L62.7,7.3c-0.1,0.1-0.1,0.1-0.2,0.1l-0.1-0.1c0-0.1,0-0.1,0-0.2c0.1-0.1,0.1-0.1,0.2,0
			C62.7,7.1,62.7,7.2,62.7,7.3C62.7,7.2,62.7,7.3,62.7,7.3z"/>
		<path class="st0" d="M38.4,6.6c-0.4,0-0.5-0.2-0.5-0.6V4.4h1.3V3.7h-1.3V2.6h-0.8v1.1h-0.7v0.7h0.7V6c0,0.8,0.3,1.3,1.3,1.3
			c0.3,0,0.7-0.1,1-0.3l-0.2-0.7C38.9,6.6,38.6,6.6,38.4,6.6z"/>
		<path class="st0" d="M34.5,5.1L34.1,5c-0.3,0-0.6-0.1-0.6-0.4s0.3-0.4,0.7-0.4c0.5,0,0.9,0.2,1.1,0.3l0.3-0.6l0,0
			c-0.4-0.3-0.9-0.4-1.5-0.4c-0.9,0-1.5,0.4-1.5,1.2c0,0.6,0.4,1,1.3,1.1l0.4,0.1c0.4,0.1,0.6,0.2,0.6,0.4c0,0.3-0.3,0.4-0.8,0.4
			c-0.6,0-0.9-0.2-1.2-0.4l-0.4,0.6c0.4,0.3,1,0.5,1.6,0.5c1.1,0,1.7-0.5,1.7-1.2C35.8,5.6,35.3,5.2,34.5,5.1z"/>
		<path class="st0" d="M31,4.1c-0.3-0.3-0.6-0.5-1.2-0.5c-1,0-1.8,0.8-1.8,1.9c0,1.1,0.8,1.9,1.8,1.9c0.5,0,0.9-0.2,1.2-0.5v0.4h0.8
			V5.5V3.7H31V4.1z M29.9,6.6c-0.7,0-1.1-0.5-1.1-1.2c0-0.6,0.4-1.2,1.1-1.2S31,4.7,31,5.4S30.6,6.6,29.9,6.6z"/>
		<path class="st0" d="M25.9,3.6c-0.5,0-0.9,0.1-1.3,0.6c-0.3-0.4-0.7-0.6-1.2-0.6c-0.4,0-0.8,0.1-1.1,0.5V3.7h-0.8v3.6h0.8v-2
			c0-0.6,0.4-1,0.9-1s0.8,0.3,0.8,1v2h0.8v-2c0-0.6,0.4-1,0.9-1s0.8,0.3,0.8,1v2h0.8V5C27.3,4.2,26.7,3.6,25.9,3.6z"/>
		<path class="st0" d="M46,3.6c-0.5,0-0.8,0.2-1,0.5V3.7h-0.8v3.6H45v-2c0-0.6,0.3-0.9,0.8-0.9c0.2,0,0.3,0,0.5,0.1l0.2-0.7
			C46.4,3.6,46.2,3.6,46,3.6L46,3.6z"/>
		<path class="st0" d="M62.6,7.2C62.7,7.2,62.7,7.2,62.6,7.2C62.7,7.1,62.7,7.1,62.6,7.2C62.6,7.1,62.6,7.1,62.6,7.2L62.6,7.2
			l-0.2-0.1v0.2l0,0V7.2l0,0l0.1,0.1h0.1V7.2L62.6,7.2z M62.5,7.2L62.5,7.2L62.5,7.2C62.6,7.1,62.6,7.1,62.5,7.2
			C62.6,7.1,62.6,7.1,62.5,7.2C62.6,7.2,62.6,7.2,62.5,7.2C62.6,7.2,62.6,7.2,62.5,7.2L62.5,7.2z"/>
		<path class="st0" d="M60.8,4.1c-0.3-0.3-0.6-0.5-1.2-0.5c-1,0-1.8,0.8-1.8,1.9c0,1.1,0.8,1.9,1.8,1.9c0.5,0,0.9-0.2,1.2-0.5v0.4
			h0.8V5.5V2.2h-0.8V4.1z M59.8,6.6c-0.7,0-1.1-0.5-1.1-1.2c0-0.6,0.4-1.2,1.1-1.2c0.7,0,1.1,0.5,1.1,1.2S60.4,6.6,59.8,6.6z"/>
		<path class="st0" d="M41.7,3.6L41.7,3.6c-1.1,0-1.8,0.8-1.8,1.9c0,1.2,0.8,1.9,1.9,1.9c0.6,0,1.1-0.1,1.5-0.5l-0.5-0.6
			c-0.3,0.2-0.7,0.4-1.1,0.4c-0.5,0-1-0.2-1.1-0.9h2.7c0-0.1,0-0.2,0-0.3C43.4,4.4,42.7,3.6,41.7,3.6z M40.7,5.2
			c0.1-0.5,0.4-0.9,1-0.9l0,0c0.5,0,0.8,0.3,0.9,0.9H40.7z"/>
		<path class="st0" d="M56.1,4.1V3.7h-0.8v3.6h0.8v-2c0-0.6,0.3-0.9,0.8-0.9c0.2,0,0.3,0,0.5,0.1l0.2-0.7c-0.2-0.1-0.4-0.1-0.6-0.1
			C56.6,3.6,56.3,3.8,56.1,4.1z"/>
		<path class="st0" d="M62.6,7L62.6,7L62.6,7z"/>
		<path class="st0" d="M48.7,4.3c0.3,0,0.7,0.1,1,0.3L50.1,4c-0.4-0.3-0.8-0.4-1.3-0.4c-1.2,0-2,0.8-2,1.9c0,1.1,0.8,1.9,2,1.9
			c0.6,0,0.9-0.1,1.3-0.4l-0.4-0.6c-0.3,0.2-0.6,0.3-1,0.3c-0.6,0-1.1-0.5-1.1-1.2C47.6,4.8,48.1,4.3,48.7,4.3z"/>
		<path class="st0" d="M53.4,4.1c-0.3-0.3-0.6-0.5-1.2-0.5c-1,0-1.8,0.8-1.8,1.9c0,1.1,0.8,1.9,1.8,1.9c0.5,0,0.9-0.2,1.2-0.5v0.4
			h0.8V5.5V3.7h-0.8V4.1z M52.4,6.6c-0.7,0-1.1-0.5-1.1-1.2c0-0.6,0.4-1.2,1.1-1.2c0.7,0,1.1,0.5,1.1,1.2C53.5,6.1,53,6.6,52.4,6.6z
			"/>
	</g>
</g>
<g id="Ebene_3">
</g>
<g id="Ebene_2_1_">
</g>
</svg>
