<?xml version="1.0" encoding="utf-8"?>
<!-- Generator: Adobe Illustrator 22.1.0, SVG Export Plug-In . SVG Version: 6.00 Build 0)  -->
<svg version="1.1" id="Icons" xmlns="http://www.w3.org/2000/svg" xmlns:xlink="http://www.w3.org/1999/xlink" x="0px" y="0px"
	 viewBox="0 0 24 24" style="enable-background:new 0 0 24 24;" fill="#7B7B7B" xml:space="preserve">
<title>004-tiefkuehl</title>
<g>
	<path d="M11.2,10c0,0.7-0.1,1.4-0.4,2.1c-0.3,0.7-0.6,1.2-1.1,1.7c-0.5,0.4-1.1,0.7-1.8,0.7s-1.3-0.2-1.8-0.7s-0.9-1-1.1-1.7
		c-0.3-0.7-0.4-1.4-0.4-2.1c0-0.7,0.1-1.4,0.4-2.1s0.6-1.2,1.1-1.7s1.1-0.7,1.8-0.7s1.3,0.2,1.8,0.6c0.5,0.4,0.9,1,1.1,1.7
		S11.2,9.3,11.2,10z M9.1,10c0-1.5-0.1-2.5-0.3-3S8.3,6.2,7.9,6.2c-0.2,0-0.4,0.1-0.6,0.3S6.9,7.1,6.8,7.7S6.7,9,6.7,10
		c0,0.8,0,1.4,0.1,1.9s0.2,0.9,0.3,1.2c0.1,0.3,0.2,0.5,0.4,0.6s0.3,0.1,0.5,0.1c0.4,0,0.7-0.3,0.9-0.8C9,12.5,9.1,11.5,9.1,10z
		 M17,5.7L8.8,20.3H7.5l8.2-14.6H17z M19.7,15.9c0,0.7-0.1,1.4-0.4,2.1s-0.6,1.2-1.1,1.7s-1.1,0.7-1.8,0.7S15,20,14.5,19.6
		s-0.9-1-1.1-1.7S13,16.6,13,15.9c0-0.7,0.1-1.4,0.4-2.1s0.6-1.2,1.1-1.7c0.5-0.4,1.1-0.6,1.8-0.6s1.3,0.2,1.8,0.7
		c0.5,0.4,0.9,1,1.1,1.7S19.7,15.2,19.7,15.9z M17.6,15.9c0-1.5-0.1-2.5-0.3-3c-0.2-0.5-0.5-0.8-0.9-0.8c-0.2,0-0.4,0.1-0.6,0.3
		c-0.2,0.2-0.3,0.6-0.4,1.1c-0.1,0.6-0.2,1.4-0.2,2.4c0,0.8,0,1.4,0.1,1.9s0.2,0.9,0.3,1.2s0.2,0.5,0.4,0.6s0.3,0.2,0.5,0.2
		c0.4,0,0.7-0.3,0.9-0.8S17.6,17.4,17.6,15.9z"/>
</g>
</svg>
