<svg width="40" height="27" viewBox="0 0 40 27" xmlns="http://www.w3.org/2000/svg"><g fill="none"><rect fill="#344384" width="40" height="26.667" rx="3.333"/><path d="M19.883 9.492L18.217 17.2h-2l1.666-7.708h2zm8.384 5l1.05-2.892.608 2.892h-1.658zm2.225 2.733h1.85l-1.617-7.708h-1.667a.908.908 0 00-.833.566l-2.992 7.142h2.1l.409-1.15h2.508l.242 1.15zm-5.2-2.5C25.3 12.65 22.5 12.5 22.5 11.667c0-.275.267-.567.833-.642a3.733 3.733 0 011.967.342l.35-1.667a5.367 5.367 0 00-1.867-.342c-1.966 0-3.333 1.05-3.333 2.55 0 1.109.992 1.725 1.742 2.092s1.041.625 1.033.958c0 .517-.617.75-1.192.759a4.168 4.168 0 01-2.033-.5l-.358 1.666a5.967 5.967 0 002.216.409c2.092 0 3.467-1.034 3.475-2.634m-8.258-5.191l-3.233 7.708h-2.175l-1.592-6.158a.833.833 0 00-.475-.675 8.242 8.242 0 00-1.967-.65l.05-.225h3.392a.933.933 0 01.925.783l.833 4.458 2.075-5.241h2.167z" fill="#FFF"/></g></svg>