<?xml version="1.0" encoding="utf-8"?>
<!-- Generator: Adobe Illustrator 23.0.0, SVG Export Plug-In . SVG Version: 6.00 Build 0)  -->
<svg version="1.1" id="Ebene_1" xmlns="http://www.w3.org/2000/svg" xmlns:xlink="http://www.w3.org/1999/xlink" x="0px" y="0px"
	 viewBox="0 0 34.1 11" style="enable-background:new 0 0 34.1 11;" xml:space="preserve">
<style type="text/css">
	.st0{fill:#FFFFFF;}
</style>
<title>Icons_New</title>
<path class="st0" d="M31.8,0.2h-2.1c-0.6-0.1-1.2,0.3-1.5,0.9l-4.1,9.8h2.9c0,0,0.5-1.3,0.6-1.6h3.5c0.1,0.4,0.3,1.6,0.3,1.6h2.6
	L31.8,0.2z M28.4,7.1c0.2-0.6,1.1-3,1.1-3s0.2-0.6,0.4-1L30.1,4c0,0,0.5,2.5,0.6,3.1L28.4,7.1z"/>
<path class="st0" d="M22,4.5c-1-0.5-1.5-0.8-1.5-1.3s0.5-0.9,1.6-0.9c0.7,0,1.4,0.1,2.1,0.4l0.2,0.1l0.4-2.3l0,0
	C24,0.2,23.1,0,22.3,0c-2.7,0-4.7,1.5-4.7,3.5C17.6,5,19,5.9,20,6.4s1.4,0.9,1.4,1.3c0,0.7-0.8,1-1.7,1c-0.9,0-1.8-0.2-2.6-0.6
	L16.9,8l-0.4,2.4c1,0.4,2,0.6,3.1,0.6c2.9,0,4.8-1.4,4.8-3.6C24.4,6.2,23.7,5.2,22,4.5z"/>
<polygon class="st0" points="12,10.8 14.8,10.8 16.5,0.2 13.7,0.2 "/>
<path class="st0" d="M9.7,0.2L7,7.5L6.7,6l-1-4.9C5.6,0.5,5,0.1,4.4,0.2H0v0.2c1,0.2,2,0.6,2.9,1.2l2.5,9.2h2.9l4.4-10.6L9.7,0.2z"
	/>
</svg>
