<?xml version="1.0" encoding="utf-8"?>
<!-- Generator: Adobe Illustrator 22.1.0, SVG Export Plug-In . SVG Version: 6.00 Build 0)  -->
<svg version="1.1"
	 id="svg3355" inkscape:version="0.91 r" sodipodi:docname="VPay logo 2015.svg" xmlns:cc="http://creativecommons.org/ns#" xmlns:dc="http://purl.org/dc/elements/1.1/" xmlns:inkscape="http://www.inkscape.org/namespaces/inkscape" xmlns:rdf="http://www.w3.org/1999/02/22-rdf-syntax-ns#" xmlns:sodipodi="http://sodipodi.sourceforge.net/DTD/sodipodi-0.dtd" xmlns:svg="http://www.w3.org/2000/svg"
	 xmlns="http://www.w3.org/2000/svg" xmlns:xlink="http://www.w3.org/1999/xlink" x="0px" y="0px" viewBox="0 0 300 324.8"
	 style="enable-background:new 0 0 300 324.8;" xml:space="preserve">
<style type="text/css">
	.st0{fill:#ffffff;}
	.st1{fill:#353a40;}
</style>
<sodipodi:namedview  bordercolor="#666666" borderopacity="1" fit-margin-bottom="1" fit-margin-left="1" fit-margin-right="1" fit-margin-top="1" gridtolerance="10" guidetolerance="10" id="namedview8697" inkscape:current-layer="svg3355" inkscape:cx="192.30736" inkscape:cy="95.319626" inkscape:pageopacity="0" inkscape:pageshadow="2" inkscape:window-height="776" inkscape:window-maximized="1" inkscape:window-width="1215" inkscape:window-x="65" inkscape:window-y="24" inkscape:zoom="0.60723595" objecttolerance="10" pagecolor="#ffffff" showgrid="false" units="px">
	</sodipodi:namedview>
<path id="path8683" inkscape:connector-curvature="0" class="st0" d="M291.5,210.7H8.5V8.5h283.1V210.7z"/>
<path id="path8685" inkscape:connector-curvature="0" class="st1" d="M221.6,45.2l-55.5,132.6h-36.3L102.4,71.9
	c-1.6-6.5-3.1-8.9-8.1-11.7C86,55.8,72.4,51.6,60.4,49l0.8-3.8h58.4c7.4,0,14.1,4.9,15.8,13.5l14.5,76.7l35.7-90.2H221.6"/>
<path id="path8687" inkscape:connector-curvature="0" class="st0" d="M87.3,262.5c1.3,0.4,3.1,0.5,5.3,0.5c8.1,0,13-4.1,13-11.4
	c0-6.9-4.6-10.5-12-10.5c-2.9,0-5.1,0.3-6.2,0.6V262.5z M76.7,233.8c3.9-0.7,9.2-1.3,16.5-1.3c7.9,0,13.7,1.7,17.4,5
	c3.5,3,5.8,7.8,5.8,13.6c0,5.8-1.8,10.7-5.1,14c-4.3,4.5-11,6.6-18.7,6.6c-2,0-3.9-0.1-5.3-0.4v23.2H76.7L76.7,233.8z"/>
<path id="path8689" inkscape:connector-curvature="0" class="st0" d="M157,268.6l-4.6-15.2c-1.1-3.8-2.1-8-3-11.5h-0.2
	c-0.9,3.6-1.8,7.9-2.8,11.5l-4.6,15.2H157z M140,277.1l-5.1,17.5h-11.1l18.9-61.6h13.8l19.2,61.6h-11.6l-5.4-17.5H140z"/>
<path id="path8691" inkscape:connector-curvature="0" class="st0" d="M198.4,294.6v-25.7l-18.7-35.9H192l7.1,15.8
	c2,4.6,3.5,8,5.1,12.3h0.2c1.5-3.9,3.2-7.8,5.2-12.3l7.1-15.8h12.2l-19.6,35.7v26H198.4z"/>
</svg>
