<svg width="24" height="24" viewBox="-3 0 30 24" xmlns="http://www.w3.org/2000/svg" xmlns:xlink="http://www.w3.org/1999/xlink">
    <defs><path d="M0 11.999l.004-.303C.16 5.358 5.233.24 11.552.007L11.854 0h.292l.302.007c6.32.232 11.39 5.351 11.547 11.69l.004.302-.004.305c-.16 6.387-5.307 11.534-11.695 11.691L12 24l-.305-.004C5.209 23.833 0 18.525 0 12zm6.09.903l.06.069 3.899 3.838.07.057a.518.518 0 00.578 0l.07-.057 8.084-7.955.059-.07a.496.496 0 000-.569l-.059-.07-.07-.057a.52.52 0 00-.579 0l-.07.058-7.725 7.604-3.54-3.485-.07-.058a.515.515 0 00-.578 0l-.07.058-.059.069a.492.492 0 000 .568z" id="a"/></defs><g fill="none" fill-rule="evenodd"><mask id="b" fill=""><use xlink:href="#a"/></mask><use stroke="#EA8801" fill="" xlink:href="#a"/><g mask="url(#b)"><path d="M0 0h24v24H0z" fill="#D8D8D8"/><path fill="#1e8914" d="M0 0h24v24H0z"/></g></g></svg>
