<svg width="40" height="27" viewBox="0 0 40 27" xmlns="http://www.w3.org/2000/svg"><g fill="none"><rect fill="#F2F0EC" width="40" height="26.667" rx="3.333"/><path fill="#F26122" d="M15.75 6.383h8.508v13.9H15.75z"/><path d="M16.667 13.333A8.817 8.817 0 0120 6.383a8.842 8.842 0 100 13.9 8.817 8.817 0 01-3.333-6.95z" fill="#EA1D25"/><path d="M33.45 18.808v-.283h.125v-.058h-.292v.058h.117v.283h.05zm.567 0v-.341h-.084l-.1.241-.108-.241h-.083v.341h.058v-.258l.1.225h.067l.091-.225v.258h.059zm.283-5.475a8.842 8.842 0 01-14.3 6.95 8.842 8.842 0 001.483-12.408A8.667 8.667 0 0020 6.383a8.842 8.842 0 0114.3 6.95z" fill="#F69E1E"/></g></svg>