<svg width="68" height="17" viewBox="0 0 68 17" xmlns="http://www.w3.org/2000/svg"><g fill="none"><path d="M25.342 3.701h-3.75a.521.521 0 00-.516.44l-1.517 9.617a.313.313 0 00.31.36h1.79a.521.521 0 00.515-.44l.41-2.593a.521.521 0 01.514-.44h1.187c2.47 0 3.896-1.196 4.268-3.565.168-1.037.008-1.851-.478-2.421-.533-.627-1.478-.958-2.733-.958zm.432 3.512C25.57 8.56 24.541 8.56 23.547 8.56h-.566l.397-2.513a.313.313 0 01.308-.264h.26c.677 0 1.316 0 1.646.386.197.23.257.573.182 1.045zm10.778-.043h-1.796a.313.313 0 00-.309.264l-.079.502-.126-.182c-.388-.564-1.255-.753-2.12-.753-1.985 0-3.68 1.503-4.01 3.612-.172 1.052.072 2.057.668 2.759.548.645 1.33.913 2.263.913 1.599 0 2.485-1.028 2.485-1.028l-.08.5a.313.313 0 00.309.361h1.617a.521.521 0 00.515-.44l.97-6.147a.311.311 0 00-.307-.36zm-2.503 3.496c-.173 1.026-.988 1.714-2.026 1.714-.522 0-.939-.167-1.206-.484-.266-.315-.367-.763-.282-1.262.162-1.017.99-1.728 2.012-1.728.51 0 .925.17 1.198.489.274.323.382.774.304 1.27zM46.117 7.17h-1.805a.523.523 0 00-.431.229l-2.49 3.666-1.054-3.523a.523.523 0 00-.5-.372h-1.774a.313.313 0 00-.297.414l1.988 5.833-1.869 2.639a.313.313 0 00.255.493h1.803a.52.52 0 00.428-.224l6.003-8.664a.313.313 0 00-.257-.49z" fill="#253B80"/><path d="M52.092 3.701h-3.75a.521.521 0 00-.515.44l-1.517 9.617a.312.312 0 00.308.36h1.925c.18 0 .332-.13.36-.307l.43-2.726a.521.521 0 01.515-.44h1.187c2.47 0 3.896-1.196 4.269-3.565.168-1.037.006-1.851-.479-2.421-.532-.627-1.477-.958-2.733-.958zm.433 3.512c-.204 1.346-1.233 1.346-2.227 1.346h-.566l.398-2.513a.311.311 0 01.308-.264h.26c.676 0 1.315 0 1.646.386.196.23.256.573.181 1.045zm10.778-.043h-1.795a.31.31 0 00-.309.264l-.08.502-.125-.182c-.389-.564-1.255-.753-2.12-.753-1.985 0-3.68 1.503-4.01 3.612-.171 1.052.072 2.057.668 2.759.549.645 1.33.913 2.263.913 1.599 0 2.485-1.028 2.485-1.028l-.08.5a.313.313 0 00.31.361h1.617a.521.521 0 00.514-.44l.971-6.147a.313.313 0 00-.31-.36zm-2.504 3.496c-.172 1.026-.988 1.714-2.026 1.714-.52 0-.938-.167-1.206-.484-.265-.315-.365-.763-.282-1.262.163-1.017.99-1.728 2.013-1.728.51 0 .924.17 1.197.489.275.323.384.774.304 1.27zm4.62-6.701l-1.538 9.793a.312.312 0 00.308.36h1.547a.52.52 0 00.515-.44l1.518-9.616a.313.313 0 00-.308-.361h-1.733a.313.313 0 00-.308.264z" fill="#179BD7"/><path d="M3.985 15.988l.286-1.822-.638-.015H.582L2.702.71a.173.173 0 01.172-.147h5.144c1.708 0 2.886.355 3.501 1.056a2.4 2.4 0 01.561 1.052c.094.397.095.87.004 1.45l-.006.042v.37l.288.164c.22.111.418.262.584.445.247.281.407.639.474 1.063.07.436.047.955-.067 1.542-.132.676-.345 1.264-.632 1.745a3.59 3.59 0 01-1.001 1.097 4.06 4.06 0 01-1.348.608 6.722 6.722 0 01-1.685.195h-.4c-.286 0-.564.103-.782.288a1.212 1.212 0 00-.408.728l-.03.164-.507 3.211-.023.118c-.006.037-.017.056-.032.068a.085.085 0 01-.053.02H3.985z" fill="#253B80"/><path d="M12.64 4.204a8.996 8.996 0 01-.053.302c-.679 3.483-3 4.686-5.964 4.686H5.114a.733.733 0 00-.724.62l-.773 4.901-.219 1.39a.386.386 0 00.381.446h2.677c.317 0 .586-.23.636-.543l.027-.136.504-3.198.032-.176a.644.644 0 01.636-.544h.4c2.594 0 4.624-1.053 5.217-4.1.248-1.272.12-2.335-.536-3.083a2.56 2.56 0 00-.733-.565z" fill="#179BD7"/><path d="M11.93 3.922a5.35 5.35 0 00-.66-.147c-.44-.068-.885-.1-1.33-.097H5.908a.643.643 0 00-.636.544l-.857 5.432-.025.159a.733.733 0 01.724-.62h1.51c2.963 0 5.284-1.205 5.963-4.687.02-.103.037-.203.052-.302a3.616 3.616 0 00-.71-.282z" fill="#222D65"/><path d="M5.272 4.222a.641.641 0 01.636-.543H9.94c.477 0 .923.03 1.33.097.275.043.547.108.812.193.2.067.386.145.558.235.202-1.287-.002-2.163-.698-2.956C11.175.374 9.79 0 8.02 0H2.875a.735.735 0 00-.727.621L.005 14.202a.442.442 0 00.436.511h3.176l.798-5.059.857-5.432z" fill="#253B80"/></g></svg>