<svg width="40" height="63" viewBox="0 0 40 63" xmlns="http://www.w3.org/2000/svg"><g fill="#1D1D1B"><path d="M21.605 58.353c-.143.104-.316.213-.493.337a5.135 5.135 0 00-.505.383 1.56 1.56 0 00-.364.437.716.716 0 00-.06.503c0 .034.017.064.026.096l.032.091.036.092.038.09c-.115.17-.213.347-.309.51a3.294 3.294 0 01-.294.446 1.123 1.123 0 01-.379.307c-.175.077-.366.11-.556.098a2.401 2.401 0 01-.64-.115 3.196 3.196 0 01-.59-.26 5.172 5.172 0 01-.562-.37 15.284 15.284 0 01-.54-.427c0-.023 0-.045-.014-.066-.015-.021 0-.043-.015-.066-.015-.023 0-.043-.017-.066-.017-.024-.015-.045-.02-.066a1.854 1.854 0 00-.212-.448 2.344 2.344 0 00-.326-.373 3.671 3.671 0 00-.39-.313 5.089 5.089 0 00-.426-.264v.051l.02.079c0 .026.016.051.024.079l.024.08c.008.029.017.054.027.082.158.425.376.826.648 1.189.256.359.557.682.897.963.331.274.7.5 1.093.673.387.17.8.271 1.221.299.406.026.812-.043 1.187-.2.372-.161.7-.407.96-.719.28-.34.48-.74.583-1.17a3.41 3.41 0 00.01-1.51l-.108-.452M4.86 37.411l-.132.062-.13.068-.13.075-.127.083a9.107 9.107 0 00-.663.473c-.206.16-.4.337-.578.528-.191.206-.362.43-.511.67-.177.281-.33.577-.458.884a4.407 4.407 0 011.22 0c.432.06.854.173 1.258.336a7.33 7.33 0 011.278.676c.452.302.88.64 1.279 1.01L5.461 37.21l-.153.038-.151.045-.152.053-.149.062m1.392-.272l1.68 4.93 3.736.056a15.623 15.623 0 00-1.255-2.1 9.945 9.945 0 00-1.357-1.552 5.804 5.804 0 00-1.402-.967 3.603 3.603 0 00-1.402-.365m2.214 6.484a20.58 20.58 0 011.685 2.325 29.25 29.25 0 011.592 2.894 39.318 39.318 0 011.444 3.428c.45 1.221.872 2.54 1.247 3.917a29.199 29.199 0 00-.072-3.748 34.616 34.616 0 00-.214-1.948 39.869 39.869 0 00-.338-1.965c-.091-.44-.19-.87-.294-1.29a21.454 21.454 0 00-.337-1.23c-.124-.4-.243-.789-.373-1.164-.13-.375-.268-.74-.407-1.093l-3.933-.126M0 7.322c.108 1.012.229 2.037.362 3.074.134 1.037.28 2.086.437 3.148a165.11 165.11 0 001.119 6.486c.284 1.439.58 2.847.886 4.225.307 1.378.632 2.728.974 4.049.34 1.32.695 2.598 1.065 3.835.371 1.238.746 2.445 1.125 3.623.166-.026.334-.039.501-.039a3.41 3.41 0 011.023.17c.176.06.347.132.514.214a96.138 96.138 0 01-1.162-2.866 103.701 103.701 0 01-2.156-6.139 171.264 171.264 0 01-1.002-3.25 115.54 115.54 0 01-1.182-4.304 141.337 141.337 0 01-1.002-4.206A121.71 121.71 0 010 7.322m33.286 21.056a16.1 16.1 0 00-1.31.275c-.227.056-.427.115-.64.177a8.322 8.322 0 00-.64.213l-.7 6.256a28.061 28.061 0 012.218-2.243 25.915 25.915 0 012.344-1.89 24.036 24.036 0 012.457-1.547c.821-.448 1.67-.843 2.54-1.185a9.137 9.137 0 00-1.473-.322 10.09 10.09 0 00-1.462-.085c-.496 0-1.003.042-1.534.1-.53.058-1.093.14-1.687.232h-.113m-5.346 9.527l-9.084 4.518a18 18 0 00-.307 1.523 19.403 19.403 0 00-.181 1.566c-.04.529-.058 1.066-.05 1.598a17.803 17.803 0 00.496 3.989c.184.756.419 1.498.704 2.22.28.705.609 1.389.985 2.046a15.32 15.32 0 001.24 1.841c.07-3.624.692-7.217 1.843-10.654a34.613 34.613 0 011.929-4.609 32.389 32.389 0 012.422-4.031"/><path d="M25.201 0a34.76 34.76 0 01.736 3.512 51.19 51.19 0 01.453 3.822 93.12 93.12 0 01.248 4.16c.055 1.436.089 2.966.115 4.523.06 3.623-.213 6.54-.689 8.973a26.395 26.395 0 01-1.962 6.15 47.786 47.786 0 01-2.419 4.387c-.784 1.334-1.472 2.587-1.9 4.049l-.045.11-.047.112-.045.11-.044.113 8.591-4.13a83.1 83.1 0 00.878-7.738c.153-2.344.192-4.53.151-6.566a71.984 71.984 0 00-.33-5.54 69.032 69.032 0 00-.61-4.609 62.682 62.682 0 00-.594-3.094A58.408 58.408 0 0025.201 0" opacity=".7"/></g></svg>