<svg xmlns="http://www.w3.org/2000/svg" viewBox="0 0 68.11 61.85"><defs><style>.cls-1,.cls-85{fill:#707070;}.cls-14,.cls-2{fill:#abbdd1;}.cls-21,.cls-3{fill:#d1d8e3;}.cls-4{fill:#e7eaf1;}.cls-16,.cls-5{fill:#92accd;}.cls-10,.cls-11,.cls-12,.cls-13,.cls-14,.cls-15,.cls-21,.cls-22,.cls-23,.cls-26,.cls-27,.cls-28,.cls-29,.cls-30,.cls-31,.cls-32,.cls-33,.cls-34,.cls-35,.cls-36,.cls-37,.cls-38,.cls-39,.cls-40,.cls-41,.cls-42,.cls-44,.cls-45,.cls-46,.cls-47,.cls-48,.cls-49,.cls-5,.cls-50,.cls-51,.cls-52,.cls-53,.cls-54,.cls-55,.cls-56,.cls-57,.cls-58,.cls-59,.cls-6,.cls-63,.cls-64,.cls-65,.cls-66,.cls-67,.cls-68,.cls-7,.cls-70,.cls-71,.cls-72,.cls-73,.cls-74,.cls-75,.cls-76,.cls-77,.cls-78,.cls-79,.cls-8,.cls-80,.cls-81,.cls-82,.cls-83,.cls-85,.cls-9{fill-rule:evenodd;}.cls-20,.cls-6{fill:#d4e6f1;}.cls-7{fill:#b6d1e1;}.cls-8{fill:#92be3b;}.cls-9{fill:#8db835;}.cls-10{fill:#093;}.cls-11{fill:#4aa242;}.cls-12{fill:#7c604a;}.cls-13{fill:#5a6470;}.cls-15,.cls-17{fill:#c4ddec;}.cls-18{fill:#a9becb;}.cls-19{fill:#a8bcd7;}.cls-22{fill:#eb6465;}.cls-23{fill:#f08c8e;}.cls-24{fill:#bc5d44;}.cls-25{fill:#cb6a51;}.cls-26{fill:#f1ac41;}.cls-27{fill:#fbc674;}.cls-28{fill:#e89d2b;}.cls-29{fill:#a1c74c;}.cls-30{fill:#90c048;}.cls-31{fill:#bed471;}.cls-32{fill:#b75847;}.cls-33{fill:#bc6652;}.cls-34{fill:#ea6113;}.cls-35{fill:#d95514;}.cls-36{fill:#e53b24;}.cls-37{fill:#c23328;}.cls-38{fill:#f08836;}.cls-39{fill:#e57b22;}.cls-40{fill:#f39b59;}.cls-41{fill:#f4a55f;}.cls-42{fill:#fac879;}.cls-43{fill:#f19146;}.cls-44{fill:#f5ac74;}.cls-45{fill:#86744e;}.cls-46{fill:#ee7518;}.cls-47{fill:#79964f;}.cls-48{fill:#bf525b;}.cls-49{fill:#ab4a45;}.cls-50{fill:#9e3c37;}.cls-51{fill:#c97063;}.cls-52{fill:#628a49;}.cls-53{fill:#f29217;}.cls-54{fill:#ed701f;}.cls-55{fill:#d4d6d8;}.cls-56,.cls-60{fill:#c15342;}.cls-57{fill:#eae8e7;}.cls-58{fill:#df7037;}.cls-59{fill:#e37f49;}.cls-61{fill:#c76255;}.cls-62{fill:#f3b022;}.cls-63{fill:#f6bf4b;}.cls-64{fill:#f19822;}.cls-65{fill:#d42126;}.cls-66{fill:#e6392e;}.cls-67{fill:#eb6549;}.cls-68,.cls-69{fill:#327432;}.cls-70{fill:#b17c40;}.cls-71{fill:#c38d43;}.cls-72{fill:#9a6c3b;}.cls-73{fill:#785a40;}.cls-74{fill:#c86a52;}.cls-75{fill:#d47f64;}.cls-76{fill:#d16435;}.cls-77{fill:#f7a92d;}.cls-78{fill:#f39722;}.cls-79{fill:#ffdd5a;}.cls-80{fill:#ed7423;}.cls-81{fill:#fcf087;}.cls-82{fill:#ffd949;}.cls-83{fill:#f3c122;}.cls-84{fill:#706f6f;}</style></defs><g id="Vrstva_2" data-name="Vrstva 2"><g id="Vrstva_1-2" data-name="Vrstva 1"><ellipse class="cls-1" cx="34.58" cy="57.56" rx="33.53" ry="4.3"/><path class="cls-2" d="M50.13,48.46l-3.61,2.93-1,.77,0,0h0l-3.69,3-.54-.47,2.62-2.15,0,0,1-.79,4.7-3.86a.53.53,0,0,0,.48.57Z"/><path class="cls-3" d="M42.18,55.71l-.64.53h0l-1.36,1.12-1.38,1.13-.79.65-.54.44-.17.14-.46.37-.45.37-1.58.42-1.21.32-.27.06,1-.83h0l.53-.43L36,59l4.43-3.63.85-.7h0l.54.47.15.13A.53.53,0,0,1,42.18,55.71Z"/><path class="cls-3" d="M56.12,44.2,56,44.15l-.28-.25L50.68,48a.53.53,0,0,1-.55.45h0a.53.53,0,0,1-.48-.57h0l1.18-1h0l4.32-3.54h0a.66.66,0,0,1,.92.1.57.57,0,0,1,.08.13A.64.64,0,0,1,56.12,44.2Z"/><path class="cls-3" d="M38.85,58.81a.68.68,0,0,1-.23.43h0l0,0-.3.21-1.1.76-.3.21,0-.12-.48.13-1.58.42-1.21.32,1.33-.93.07,0,1-.69,1.88-1.31a.61.61,0,0,1,.36-.11.64.64,0,0,1,.52.27l0,0s0,0,0,.05A.59.59,0,0,1,38.85,58.81Z"/><path class="cls-4" d="M34.74,31h0l-.42-.6-.18.18h0l-.36.36.26.37.19.26.53-.54S34.75,31,34.74,31Zm-3.35,2.38-.14.14-.56.57,0,0h0l-.3-.43h0l-.62-.88-.23-.32c0,.19,0,.39,0,.6a.06.06,0,0,1,0,0,.53.53,0,0,1,0,.13v0s0,.07,0,.1,0,.2,0,.3l.41.58.23.33h0l.07.09-.19.19h0l-.51.52-.26.27-.54.54.28.31h0l.22.27.53-.54.62-.63.29-.3.14.2.14.19.42.6c0-.06.07-.12.1-.19s.21-.37.3-.55l-.49-.69h0l-.07-.11.17-.17c.06-.18.11-.36.17-.57,0,0,0-.1.05-.16h0c0-.09,0-.18.07-.28s.05-.19.07-.29h0c0-.07,0-.13.05-.19Zm-3.28,3.11L28,36.26h0l-.2-.26-.06-.08-.06-.07-.27-.36,0-.05-.05-.06-.38-.5-.13-.16h0l-.16-.21h0l-.16-.22L26.19,34l-.08-.1v0a.13.13,0,0,1,0,.06L26,33.89l-.19.13-.08.07-.06.06s0,0,0,0l0,0h0a.9.9,0,0,0,.21.08h0l-.11.1-.09.07,0,0,.19.24.05.06h0l.48.63h0l0,.06h0l.23.3.23.29,0,0,.08.1h0l.16.21,0,0h0l.09.12.3.38h0l.08.11h0l.08-.06.05-.05.08-.06.08-.08.06-.06h0l0,0,0,0h0l0-.06,0,0h0Zm-3.74,4h0l-.43.44-.08.09.23.12,0,0v0h-.05L24,41a2.42,2.42,0,0,1,.25-.31l.09-.09h0a.14.14,0,0,0,0-.07,0,0,0,0,0,0,0Zm2.16,6-.11-.19-1.2-2.07.08-.08L25,43.76h0l-.17-.19-1.16-1.26.08-.07.13-.14h0l.08-.09h0l.26-.27L24,41.31a.18.18,0,0,1-.05.07l-.07.07-.13.13-.05.05-.06,0h0l0,0-.08.06h0l-.06.05,0,0-.07,0h0l-.08.05-.13.06-.1,0-.11,0-.37-.28-.39-.29-.18-.14-.11-.08-.08,0,.28.3.28.31.23.25.09.1-1.32,1.33-.52.53h0l.17.15.39.36.05-.06.21-.22.26-.26.9-.91.37-.38.45.49h0l.69.76.51.56.8.87-.48.43-.62.55-.35.31a.18.18,0,0,1,.07.05h0l0,0h0l0,0,0,0,0,0h0l0,.06.06.11s0,0,0,0h0a.14.14,0,0,1,0,.06v0s0,0,0,.06h0a.07.07,0,0,1,0,.05v0L25,47l0,0h0l.48-.43h0l.53-.48.23.25.14.16.16.17h0l0,0h0Zm-3.68.14-.53-.53-.53.54.28.28.25.25.49-.5.1.06,0,0s0,0,0,0l.05.06h0l0,.06,0,0,0,0Zm-3.1-1.43h0l-.09.09L18.9,46l-.06.06-.39.4-.13.13.6.47L19,47l.33-.34.14-.14L20,46l.39-.39h0ZM36.89,31.84h-.18l-.06.09.12.21.1-.14.1-.14Zm-2,2.29L34.84,34l-.25-.4v0h0l-.64-1-.09-.14h0l0,.1h0v.1a1.09,1.09,0,0,1,0,.18s0,.07,0,.11a1.6,1.6,0,0,1-.05.21.13.13,0,0,1,0,.06l0,.06c0,.07,0,.15-.07.24a.14.14,0,0,1,0,.06h0l.33.52,0,.06,0,0,.09.06.36.24.15.09,0,0,.29-.3Zm-2.66,2.22h0l-.15-.21-.3-.42h0l-.12-.16,0,0c-.09.18-.19.37-.3.55s-.07.13-.1.19l.26.36h0l0,0,.22.31,0,.07,0,0,0-.05h0l.05-.07.05-.07h0c.12-.15.26-.29.39-.45h0Zm-4.51,1.71h-.42l-.07,0h-.08l0,0h-.05L27,38H27l-.06,0h0l-.34.34h0l-.53.54-.29.29h0l-.07.07,0-.05-.21-.25v0l0,0a1.86,1.86,0,0,0-.1.2l-.12.23a2.56,2.56,0,0,0-.11.24h0l0,0h0l.15-.1h0l.08-.05.1,0,.08,0,.22-.07h.11l.12,0h.2l.15,0h.06l.12.06,0,0,0,0,.52-.53.2-.2.57-.58Zm-2.88,2.58h0a1,1,0,0,1-.36.38.63.63,0,0,1-.22.07h-.18v0l0,0L23.84,41l0,0h0l.15.25.25.42h0l.25-.26.07-.07h0L25,41h0l.19-.19A.56.56,0,0,1,24.87,40.64Zm-.38,6.69s0,0,0,.06h0a.07.07,0,0,1,0,.05v0L25,47l-.17-.16,0,0-.14-.14-.21-.19-.35.31a.18.18,0,0,1,.07.05h0l0,0h0l0,0,0,0,0,0h0l0,.06.06.11s0,0,0,0h0a.14.14,0,0,1,0,.06Zm-1.64-.72-.53-.53-.53.54.28.28.25.25.49-.5.1.06,0,0s0,0,0,0l.05.06h0l0,.06,0,0,0,0Zm-.44.63h0l.15.16v0Zm-.81,1.84-.05,0h0l-.11.1-.09.08.15,0,.16,0h0v0l0-.06h0l0,0,.31-.53ZM36.89,31.84h-.18l-.06.09.12.21.1-.14.1-.14Zm-2,2.17-.25-.4v0h0l-.64-1-.09-.14h0l0,.1h0v.1a1.09,1.09,0,0,1,0,.18s0,.07,0,.11a1.6,1.6,0,0,1-.05.21.13.13,0,0,1,0,.06l0,.06c0,.07,0,.15-.07.24a.14.14,0,0,1,0,.06h0l.33.52,0,.06,0,0,.09.06.36.24.15.09,0,0,.29-.3-.09-.13Zm-2.58,2.34h0l-.15-.21-.3-.42h0l-.12-.16,0,0-.49-.69v0l-.17.42c-.06.13-.11.26-.16.39l.42.6.26.36h0l0,0,.22.31,0,.07,0,0,0-.05h0l.05-.07.05-.07h0c.12-.15.26-.29.39-.45h0Zm-2.71,2-.26.36a.56.56,0,0,0,.23.06h0l0,0h0l.18-.18-.07-.09Zm-1.8-.28h-.42l-.07,0h-.08l0,0h-.05L27,38H27l-.06,0h0l-.34.34h0l-.53.54.16.17.36.38.52-.53.2-.2.57-.58Zm-2.88,2.58h0a1,1,0,0,1-.36.38.63.63,0,0,1-.22.07h-.18v0l0,0L23.84,41l0,0h0l.15.25.25.42h0l.25-.26.07-.07h0L25,41h0l.19-.19A.56.56,0,0,1,24.87,40.64Zm1.65,5.83-.11-.19-1.19-2.07-.46.46.8.87-.48.43-.62.55-.35.31h0a.18.18,0,0,1,.07.05h0l0,0h0l0,0,0,0,0,0h0l0,.06.06.11s0,0,0,0h0a.14.14,0,0,1,0,.06v0s0,0,0,.06h0a.07.07,0,0,1,0,.05v0L25,47l0,0h0l.48-.43h0l.53-.48.23.25.14.16.16.17,0,0Zm-4.1.77.15.16v0Zm-.87,1.88h0l-.11.1-.09.08.15,0h.16v0h0l0-.06h0l0,0,.31-.53-.44.4Zm5-2.65-.11-.19-1.19-2.07-.46.46.8.87-.48.43-.62.55-.35.31h0a.18.18,0,0,1,.07.05h0l0,0h0l0,0,0,0,0,0h0l0,.06.06.11s0,0,0,0h0a.14.14,0,0,1,0,.06v0s0,0,0,.06h0a.07.07,0,0,1,0,.05v0L25,47l0,0h0l.48-.43h0l.53-.48.23.25.14.16.16.17,0,0Zm-4.2-.39-.45-.44h0l-.22-.22h0l-.3-.29-.24.32-.25-.19-1.22-.91L19.15,44l-.09-.07.08.08.43.43.47.46-.29.3h0l-.09.09L18.9,46l-.06.06-.39.4-.13.13.6.47L19,47l.33-.34.14-.14L20,46l.39-.39h0l.22-.22.64.63.57.57.28.28.25.25.49-.5.1.06,0,0s0,0,0,0l.05.06h0l0,.06,0,0,0,0-.31-.3ZM25,43.76h0l-.17-.19-1.16-1.26.08-.07.13-.14h0l.08-.09h0l.26-.27L24,41.31a.18.18,0,0,1-.05.07l-.07.07-.13.13-.05.05-.06,0h0l0,0-.08.06h0l-.06.05,0,0-.07,0h0l-.08.05-.13.06-.1,0-.11,0h0l-.37-.28-.39-.29-.29-.22-.08,0,.28.3.28.31.23.25.09.1-1.32,1.33-.52.53h0l.17.15.39.36.05-.06.21-.22.26-.26.9-.91.37-.38.45.49h0l.69.76.51.56.46-.46.08-.08Zm.11-4.14h0Zm-.46.62h0l-.23.23h0l0,0h0l-.43.44-.08.09.23.12,0,0v0h.18a.63.63,0,0,0,.22-.07,1,1,0,0,0,.36-.38h0a1.37,1.37,0,0,1,.06-.72l-.12.12Zm4-4.08-.43.43v0h0l-.07-.1L28,36.26h0l-.2-.26-.06-.08-.06-.07-.27-.36,0-.05-.05-.06-.38-.5-.13-.16h0l-.16-.21h0l-.16-.22L26.19,34l-.08-.1v0a.13.13,0,0,1,0,.06L26,33.89l-.19.13-.08.07-.06.06s0,0,0,0l0,0h0a.9.9,0,0,0,.21.08h0l-.11.1-.09.07,0,0,.19.24.05.06h0l.48.63h0l0,.06h0l.23.3.23.29,0,0,.08.1h0l.16.21,0,0h0l.09.12.3.38h0l.08.11,0,0-.29.29h0l-.22.22.18-.07a1.87,1.87,0,0,0,.32-.15,3.87,3.87,0,0,0,.55-.34,4.51,4.51,0,0,0,.7-.62h0Zm2.76-2.8-.14.14-.56.57,0,0h0l-.3-.43h0l-.62-.88-.23-.32c0,.19,0,.39,0,.6a.06.06,0,0,1,0,0,.53.53,0,0,1,0,.13v0a.31.31,0,0,1,0,.1c0,.1,0,.2,0,.3l.41.58.23.33h0l.07.09-.19.19h0l-.51.52-.26.27-.54.54.28.31h0l.22.27.53-.54.62-.63.29-.3.14.2.14.19c0-.13.1-.26.16-.39l.17-.42v0h0l-.07-.11.17-.17c.06-.18.11-.36.17-.57,0,0,0-.1.05-.16h0c0-.09,0-.18.07-.28s.05-.19.07-.29h0c0-.07,0-.13.05-.19ZM34.74,31h0l-.42-.6-.18.18h0l-.36.36.26.37.19.26.53-.54S34.75,31,34.74,31Zm6.45,1.17,0,0h0L41.06,32a.46.46,0,0,0-.2-.05h-.07a.31.31,0,0,0-.18.09l-.23.21-.3.27h0l-.24.21-.33.3-.88.79-.69-1.21-.34-.59-.12-.2h0l0-.06,0,0h0l-.11-.18,0-.05-.06-.09-.06-.11-.12-.21L37,31l-.65-1.14h0l-.16-.28.32-.33h0l.34-.33.18-.19.12-.12.06-.06h0l.17-.17h0l0,0,.59-.61,0,0,.06-.06.52-.53A.29.29,0,0,0,38.7,27a.37.37,0,0,0-.09-.4.37.37,0,0,0-.41-.08.34.34,0,0,0-.12.09l-.34.34-.12.13,0,0-.37.38-.24.25h0l-.1.1h0l-.13.13h0l-.31.3-.26.27h0l-.36.37-.45-.78h0L34.73,27l-.4-.69-.65-1.14h0l-.21-.37-.19-.32L33.7,24l.14-.16.37-.43.29-.33h0l.87-1,.45-.52a.29.29,0,0,0,.09-.16.37.37,0,0,0-.12-.37.36.36,0,0,0-.34-.08h-.05l-.08.05h0l-.06.05-.22.26,0,0-.23.27-.68.78h0l-.2.22-.12.15L33.6,23l-.15.17-.08.08h0l-.1.12-.38.44L32,22.24,31.83,22h0l-.28-.5-.25-.43-.94-1.64-.2-.35a.37.37,0,0,0-.51-.14.36.36,0,0,0-.19.28.32.32,0,0,0,.05.23l.15.27h0l.18.31,0,.05.22.38.6,1,.12.22.14.23.18.33.27.46.09.16.35.61h0l.27.46.16.29.1.17-.49.56-.12.14-.28.32h0l-.32.37h0v0h0l-.19.22h0l-.32.36-.37.43-.83-1.28-.19-.3h0L29,25h0l-.34-.52-.88-1.37-.13-.2-.16-.25a.38.38,0,0,0-.53-.11.38.38,0,0,0-.11.52l0,0,.29.45,0,0,1,1.52.66,1,.06.09.8,1.24-.16.18-.24.29-.22.25h0l-.43.49-.11.12-.08.09-.42.49-.12.14-.29.33-.73-1-.21-.3-.54-.78-.71-1h0l-.08-.12h0l-.25-.37h0l0,0a.38.38,0,0,0-.48-.12l0,0a.38.38,0,0,0-.1.53l.15.21,1.06,1.5.16.22h0l.26.38.09.12.17.24h0l.07.1.1.15h0l.17.24h0l.42.6-.08.1-.15.16-.56.65-.42.48-.5.57h0l-.07.09h0l0,0-.06.07-.1.11L25,32.48l-.14-.2-.09-.1h0L24.68,32l-.12-.16-.37-.47h0l-.06-.07h0L24,31.1l0,0h0l-.17-.22-.71-.92-.32-.42-.09-.08a.36.36,0,0,0-.25-.06.34.34,0,0,0-.19.07h0a.38.38,0,0,0-.06.52l.05.06.13.18.41.52.56.74.23.29,0,0h0l.16.22.13.16h0l.17.22h0l.05.07h0l0,.05h0l.12.15h0l.16.2.1.13.1.13h0l.08.11,0,0-.23.26h0l-.33.37h0L24,34h0l-.67.76-.12.15-.32.35h0l0,.06-.19.22h0v0h0l0,0-.16-.19h0L22.13,35l-.05-.06-.33-.39h0L21.31,34l-.39-.45-.19-.23-.48-.57a.38.38,0,0,0-.13-.09.37.37,0,0,0-.41,0,.39.39,0,0,0,0,.53h0l.57.67.31.37.28.33.33.38.47.55h0l0,0,0,0h0l.36.42h0l.08.09-.33.38-.43.49-.18.21h0l-.45.52-.5.57-.12.13-.26-.28-.09-.1-.87-.94-.58-.64h0L18,36.16,17.82,36a.36.36,0,0,0-.16-.11.38.38,0,0,0-.49.38.41.41,0,0,0,0,.18h0l0,.06.09.1h0l.53.57h0l.54.58.67.74.19.2.32.36-.34.39h0l-1,1.1h0l-.19.22-.5.57,0,.05-.2-.21-.9-.89h0L15.22,39,15,38.85a.24.24,0,0,0-.08-.06h0a.38.38,0,0,0-.45.6h0l.25.25.2.19h0L16,40.88h0l.9.89.17.17-.25.29-.37.42h0l0,0-.36.41h0l-.35.4-.31.36h0l0,0,0,0h0l-.18.21h0l-.1.11-.13-.12-.79-.72-.26-.24L13.69,43h0l-.91-.82,0,0h0l-.08-.08a.38.38,0,0,0-.54,0,.37.37,0,0,0,0,.53l.09.08h0l.07.07.11.1h0l.63.57,1,.89h0l.07,0,.45.42-1.14,1.31h0l-.31.36-.33.37h0l-.22.26a.37.37,0,0,0,0,.51l0,0a.37.37,0,0,0,.53,0l.24-.28h0L13.7,47l.3-.33.17-.2.94-1.08.73.66.64.57,1,.91-.16.15-1.16,1.19-.41.41h0l-.29.29a.39.39,0,0,0,0,.54.4.4,0,0,0,.44.07.39.39,0,0,0,.1-.08l.34-.34h0l.74-.75,1-1,.51.48.64.57,1.21,1.11-1.65,1.48h0l-.22.2a.37.37,0,0,0,0,.53.36.36,0,0,0,.47.07l.06,0,.32-.28v0l.74-.66h0l.28-.25.37-.34h0l.21-.19.09.09h0l.17.15.05,0,.31.28.15.15.07.06h0l.06.05.09.08v0h0l.17.16h0l.05,0,.29.27h0l.17.15.18.16,0,0h0l.15.14h0l.39.35.32.29h0l.05,0a.36.36,0,0,0,.47,0h0l.06-.05a.39.39,0,0,0,0-.54l-.14-.12,0,0h0l-.08-.07-.05,0-.06-.06-.18-.16L23.51,52h0l0,0,0,0h0l-.2-.17h0l0,0,0-.05h0L23,51.54l-.16-.14-.2-.19-.11-.09,0,0-.18-.17h0l-.14-.13h0l-.07-.07L22,50.63,22,50.57l-.31-.28-.14-.13.26-.23.18-.16h0l0,0h0l.05,0,.41-.37h0l.29-.26.27-.24.51-.45,0,0,.06.06h0l.15.15h0l.18.18,0,0h0l.15.14.15.16.08.07.07.08,0,0h0l.09.09.06,0h0l0,0,.18.18h0l.26.26,0,0,.15.15.07.06h0l.14.13h0l.18.17,0,0,.3.3h0l.15.14.09.1h0l.08.08h0l0,0h0a.34.34,0,0,0,.11.07.31.31,0,0,0,.13,0h.07a.33.33,0,0,0,.22-.11A.37.37,0,0,0,27,50.7h0a0,0,0,0,0,0,0,.18.18,0,0,0-.05-.07l-.13-.13h0l0,0-.13-.13h0l-.05,0-.15-.15-.3-.3,0,0-.18-.17h0l-.14-.14h0l-.07-.06,0,0-.13-.12-.3-.3h0l-.07-.07,0,0,0,0,0,0h0l0,0h0l-.14-.14h0l0,0h0l-.15-.15-.3-.3h0l0,0-.16-.16h0l0,0,0,0,0,0h0l.11-.1h0l.14-.12.05-.05.06,0h0L25,47l0,0h0l.48-.43h0l.53-.48.23.25.14.16.16.17h0l.1.11h0l.31.34h0l.06.07h0l.1.12,0,0,0,0,.15.16,0,0h0l.1.1.19.21.14.16.05.05.12.13,0,0h0l.18.2h0l.25.28,0,0h0l.15.15h0l.14.15s0,0,.05,0h0a.34.34,0,0,0,.26,0,.4.4,0,0,0,.2-.09.37.37,0,0,0,.1-.4h0a.35.35,0,0,0-.08-.13l-.09-.1h0l-.19-.21h0L29,48.12l-.22-.24h0l-.08-.08h0l-.18-.18h0l0,0-.14-.15-.05-.06-.14-.15h0l0,0-.25-.27-.21-.23h0l-.05-.05h0l-.08-.09h0l-.86-.93.24-.22h0l.23-.2.56-.51.42-.37.52-.47.1.11h0l.81,1,.27.32.21.25,1.05,1.24.3.35a.37.37,0,0,0,.52.05h0a.37.37,0,0,0,0-.53l-.28-.34L30.57,45l-.46-.54h0l0,0-.91-1.06.42-.38h0l.06,0h0l.06-.06.38-.34.18-.16.83-.74.63.83.22.28.46.6.23.29.79,1,.07.09.27.35a.37.37,0,0,0,.53.07h0a.39.39,0,0,0,.06-.53l-.28-.36L33,42.79l-.46-.6,0,0-.84-1.09.65-.58.08-.07.48-.43.63-.56.81,1.15.44.62,1.12,1.58.07.1h0l.17.24a.47.47,0,0,0,.1.1h0a.36.36,0,0,0,.43,0,.37.37,0,0,0,.09-.52l-.28-.39L35.33,40.7l-.44-.62-.81-1.15.8-.72,0,0,.18-.15h0l.34-.31h0l0,0,.56-.5.48.76h0l.28.43,0,.08,0,.06h0l.25.39h0l.06.1.32.49h0l.25.39.16.25h0l.4.63.25.37a.37.37,0,0,0,.52.12l0,0a.37.37,0,0,0,.08-.5l-.28-.44-.67-1h0l-.39-.6-.1-.16,0-.05h0l-.06-.1h0l0,0-.19-.3,0,0h0l-.07-.11L37,37.4h0l-.1-.16h0L36.79,37h0l-.21-.34.16-.14h0l0,0h0l.56-.5.17-.15.18-.16h0l.21-.19.16-.15.34-.31.19.32h0l.08.15,0,0,.16.27.26.47.12.2.24.42,0,0,.7,1.23.43.74.19.34a.38.38,0,0,0,.52.14.37.37,0,0,0,.14-.51l-.26-.45-.4-.7-.35-.61-.39-.68h0L39.85,36l-.13-.22-.08-.15-.15-.26L39.27,35l0-.08,0-.06L39,34.52l.91-.82.17-.15.24-.22.16-.14.12-.1.12-.11.33-.3h0l.06,0a.37.37,0,0,0,.11-.36h0v0A.3.3,0,0,0,41.19,32.15ZM31.06,27.07l.35-.4.13-.15h0l0,0,.08-.09h0l.3-.34h0l.28-.33h0l.53-.6.36.63.25.45.18.3.25.45h0l.4.69.16.28.27.47.12.22.12.2.15.27.22.37,0,0-.32.33-.39.4-.13.13,0,.05-.18.18h0l-.36.36-.35.36h0l-.2.21-.7-1.08-.32-.5-.42-.66-.26-.39-.87-1.35ZM28.25,30.3h0l.28-.33.33-.38.06-.06.11-.14.55-.62h0l.15-.18.37-.42,0-.05.79,1.23.33.51.42.66.57.87.35.55h0l.07.11,0,.05-.06.06h0l-.79.8-.09.1h0l-.3.3-.14.14-.56.57,0,0h0l-.3-.43h0l-.62-.88-.23-.32-.22-.31L29.19,32l-.79-1.11h0l-.3-.42Zm-1.82,2.08.13-.15h0l.53-.62.25-.29.24-.27.95,1.35h0l.23.32.29.42h0l.16.22.2.28.41.58.23.33h0l.07.09-.19.19h0l-.51.52-.26.27-.54.54-.43.43v0h0l-.07-.1L28,36.26h0l-.2-.26-.06-.08-.06-.07-.27-.36,0-.05-.05-.06-.38-.5-.13-.16h0l-.16-.21h0l-.16-.22L26.19,34l-.08-.1,0,0h0l0,0h0l-.41-.54.08-.1.2-.22v0Zm-2.86,3.27h0l.11-.13.12-.13v0l0,0,.17-.19.17-.21.21-.24.19-.21.54-.62,0,0,.16.21.16.21h0l.11.15.19.24.05.06h0l.48.63h0l0,.06h0l.23.3.23.29,0,0,.08.1h0l.16.21,0,0h0l.09.12.3.38h0l.08.11,0,0-.29.29h0l-.22.22h0l0,0h0l-.24.24h0l-.34.34h0l-.53.54-.29.29h0l-.07.07,0-.05-.21-.25-.24-.28-.25-.3-.36-.42h0l-.13-.14h0l-.12-.16-.09-.09-.31-.38h0l-.36-.41,0,0-.31-.37-.07-.08.24-.27Zm-2.76,3.18.26-.3.19-.23.09-.09h0l.06-.07h0l.16-.18,1.05-1.2.26.3.18.21h0l.3.36.22.26h0l.08.09h0l.26.31.11.13.08.1h0l0,0,.28.34.27.31h0l.25.3.08.09h0l0,0,0,0h0l.07.08-.2.21h0l-.12.12-.2.2h0l-.23.23h0l0,0h0l-.43.44-.08.09,0,0h0l-.24.25h0l-.16.16-.27.28-.2-.23h0l-.43-.46h0L22.42,41h0l-.18-.2L22,40.51l-.7-.76L21,39.46v0h0l-.12-.13,0,0L20.63,39l.14-.17Zm-2.13,2.44.83-1,.37-.43h0l.25-.28.2.22.2.22h0l.94,1h0l.22.24.28.3.28.31.23.25.09.1-1.32,1.33-.52.53h0l-.18.17-.5-.49-.28-.28-.26-.25-.24-.25h0l-.44-.43h0l-.72-.72.06-.07ZM16,44.4l.36-.42.28-.31.45-.52h0l0,0h0l.37-.43.19-.22.77.76h0l.65.65v0h0l.08.08.43.43.47.46-.29.3h0l-.09.09L18.9,46l-.06.06-.39.4-.13.13-.3.31,0,0-.29-.26-.41-.38-.64-.58-1.05-1,.14-.15Zm3.87,4.21h0l-.46-.41-.8-.73.05-.06.31-.31L19,47l.33-.34.14-.14L20,46l.39-.39h0l.22-.22.64.63.57.57.28.28.25.25.09.09h0l.15.16.15.15.15.14.13.13-.45.41h0l-.2.18-.15.13-.07.06-.08.08h0l-.44.4-.05,0h0l-.11.1-.09.08h0l-.07.07h0l-.09.07-.22.2-1-.87ZM25.08,46l-.62.55-.35.31h0l-.22.2-.32.29-.07-.07h0l-.21-.2-.13-.14-.31-.3-.53-.53-.45-.44h0l-.22-.22h0l-.3-.29-.24-.24.2-.2.05-.06.21-.22.26-.26.9-.91.37-.38.45.49h0l.69.76.51.56.8.87Zm2.56-2.3-.51.46-.56.5-.38.34,0,0h0l0,0-.29-.32h0l-.48-.52h0l-.05,0L25,43.76h0l-.17-.19-1.16-1.26.08-.07.13-.14h0l.08-.09h0l.26-.27h0l.25-.26.07-.07h0L25,41h0l.19-.19.43-.43h0l0,0,.07.08.38.45.38.46.26.29h0l0,0,.45.53,0,0,.9,1.06,0,0-.45.4ZM30,41.55l-.05,0h0l-.2.18-.38.34h0l-.18.17-.51.46-.94-1.1-.23-.28h0l-.26-.3-.38-.45-.05-.06L26.34,40h0l-.18-.22.32-.33,0,0,0,0,.52-.53.2-.2.57-.58h0l.31-.31.14.19.09.11.82,1.06.46.61.54.69h0l.45.59Zm1.81-1.62-.62.55-.89-1.15-.13-.17-.36-.46h0l-.11-.14-.07-.09-.1-.13L29,37.58l-.29-.38.46-.46.53-.54.62-.63.29-.3.14.2.14.19.42.6.26.36h0l0,0,.22.31,0,.07,0,0h0l.15.21.09.13,1,1.37-.68.61-.18.17L32,39.8Zm3.62-3.25-.07.07-.4.35-.3.27-.08.08-.1.09-.08.07-.78.7,0-.08-1-1.43,0,0-.22-.31h0l-.07-.1h0l-.15-.21-.3-.42h0l-.12-.16,0,0-.49-.69h0l-.07-.11.17-.17.44-.45.13-.13.4-.41.31-.32h0l.54-.54.57.88h0l.33.52,0,.06.19.3.23.35.23.35h0l.12.19.13.19h0l.19.3h0l.36.55h0l.09.14Zm2.34-2.08-.3.26-.06,0-.41.37h0l-.09.08-.36.32h0l-.23.21h0l0,.05-.12.1-.38-.59h0l-.14-.21-.11-.17h0l-.42-.67,0,0h0L35,34.26l-.09-.13L34.84,34l-.25-.4v0h0l-.64-1-.09-.14h0l-.07-.11-.13-.19,0,0h0l.3-.31,0,0,.11-.11h0l.1-.09.53-.54h0l.16-.16.13-.13.38-.39h0l0,0,.15-.15.62,1.09.26.45.06.1h0l0,.06,0,.08h0l.12.21.13.22.37.65.62,1.09.16.27Zm-3-3.62h0l-.42-.6-.18.18h0l-.36.36.26.37.19.26.53-.54S34.75,31,34.74,31Zm-3.35,2.38-.14.14-.56.57,0,0h0l-.3-.43h0l-.62-.88-.23-.32c0,.19,0,.39,0,.6a.06.06,0,0,1,0,0,.53.53,0,0,1,0,.13v0s0,.07,0,.1,0,.2,0,.3l.41.58.23.33h0l.07.09-.19.19h0l-.51.52-.26.27-.54.54.28.31h0l.22.27.53-.54.62-.63.29-.3.14.2.14.19c0-.13.1-.26.16-.39l.17-.42v0h0l-.07-.11.17-.17c.06-.18.11-.36.17-.57,0,0,0-.1.05-.16h0c0-.09,0-.18.07-.28s.05-.19.07-.29h0c0-.07,0-.13.05-.19Zm-3.28,3.11L28,36.26h0l-.2-.26-.06-.08-.06-.07-.27-.36,0-.05-.05-.06-.38-.5-.13-.16h0l-.16-.21h0l-.16-.22L26.19,34l-.08-.1v0a.13.13,0,0,1,0,.06L26,33.89l-.19.13-.08.07-.06.06s0,0,0,0l0,0h0a.9.9,0,0,0,.21.08h0l-.11.1-.09.07,0,0,.19.24.05.06h0l.48.63h0l0,.06h0l.23.3.23.29,0,0,.08.1h0l.16.21,0,0h0l.09.12.3.38h0l.08.11h0l.08-.06.05-.05.08-.06.08-.08.06-.06h0l0,0,0,0h0l0-.06,0,0h0Zm-3.73,4,0,0h0l-.43.44-.08.09.23.12,0,0v0h-.05L24,41a2.42,2.42,0,0,1,.25-.31l.09-.09h0a.14.14,0,0,0,0-.07,0,0,0,0,0,0,0h0s0,0,0,0Zm.43-.44-.2.2h0l.23-.14ZM25,43.76h0l-.17-.19-1.16-1.26.08-.07.13-.14h0l.08-.09h0l.26-.27L24,41.31a.18.18,0,0,1-.05.07l-.07.07-.13.13-.05.05-.06,0h0l0,0-.08.06h0l-.06.05,0,0-.07,0h0l-.08.05-.13.06-.1,0-.11,0-.37-.28-.39-.29h0l-.18-.14-.11-.08-.08,0,.28.3.28.31.23.25.09.1-1.32,1.33-.52.53h0l.17.15.39.36.05-.06.21-.22.26-.26.9-.91.37-.38.45.49h0l.69.76.51.56.46-.46.08-.08Zm-5.21,1.42h0l-.09.09L18.9,46l-.06.06-.39.4-.13.13.6.47L19,47l.33-.34.14-.14L20,46l.39-.39h0Zm1.85,3.9-.05,0h0l-.11.1-.09.08.15,0,.16,0h0v0l0-.06h0l0,0,.31-.53Zm.81-1.84h0l.15.16v0Zm2.46-6.6h0a1,1,0,0,1-.36.38.63.63,0,0,1-.22.07h-.18v0l0,0L23.84,41l0,0h0l.15.25.25.42h0l.25-.26.07-.07h0L25,41h0l.19-.19A.56.56,0,0,1,24.87,40.64Zm2.88-2.58h-.42l-.07,0h-.08l0,0h-.05L27,38H27l-.06,0h0l-.34.34h0l-.53.54.16.17.36.38.52-.53.2-.2.57-.58Zm1.9.41-.27.23.06,0,.1,0h0l.18-.18Zm2.61-2.12h0l-.15-.21-.3-.42h0l-.12-.16,0,0-.49-.69v0l-.17.42c-.06.13-.11.26-.16.39l.42.6.26.36h0l0,0,.22.31,0,.07,0,0,0-.05h0l.05-.07.05-.07h0c.12-.15.26-.29.39-.45h0Zm2.66-2.22L34.84,34l-.25-.4v0h0l-.64-1-.09-.14h0l0,.1h0v.1a1.09,1.09,0,0,1,0,.18s0,.07,0,.11a1.6,1.6,0,0,1-.05.21.13.13,0,0,1,0,.06l0,.06c0,.07,0,.15-.07.24a.14.14,0,0,1,0,.06h0l.33.52,0,.06,0,0,.09.06.36.24.15.09,0,0,.29-.3Zm2-2.29h-.18l-.06.09.12.21.1-.14.1-.14Z"/><path class="cls-3" d="M34.08,17.69l-.12.08a.63.63,0,0,1-.84-.29L29.6,10.27a.63.63,0,0,1,.08-.68l3.28-4a.62.62,0,0,1,.88-.09.63.63,0,0,1,.09.89l-3,3.69,3.34,6.85A.63.63,0,0,1,34.08,17.69Z"/><path class="cls-3" d="M38.63,28.71l.23.47,0,.07,0-.05h0ZM35,21.28h0l.05.1,0,0Zm3.64,7.43.23.47,0,.07,0-.05h0ZM35,21.27l.05.1,0,0,0-.07Zm9.16,15.8-.23-.48h0l-.48-1-.13-.26h0l-.2-.41h0l-.35-.72h0l0-.08v0l-.15-.3-.18-.37-.18-.36-.1-.22,0,0,0-.11-.25-.49L41.66,32h0l-.25-.5-1-2L40.18,29l-.35-.72-.61-1.23-.12-.25-.33-.67-.38-.76h0l-.11-.23h0l-.34-.68-.35-.72-.1-.21-.05-.09-.13-.27L37.23,23,37,22.56l-.09-.18h0l0-.08-.51-1-.28-.57L36,20.6l-.95-1.94h0L35,18.39h0l-.11-.21-.29-.6-.22-.44-.05-.1h0l-.57-1.15,0-.08h0L33.31,15a.94.94,0,0,0-.14-.19h0l-.08-.06a.59.59,0,0,0-.28-.1.63.63,0,0,0-.56.24l-.24.3-1,1.26h0l-.62.81h0L28.2,20.17l-.23.29-.27.35-.5.65-.86,1.12-.52.67-.35.45h0l-.21.27-.18.23-.49.64h0l-.78,1-.71.91v0h0l-.27.36-.06.07-.48.62-.23.31-1,1.24,0,0h0l-.34.44-.72.93-.25.33-.29.37-.22.28-1.2,1.56h0l-.53.69h0l-1.19,1.53-.44.58-.7.9-1.35,1.76-.33.42-.33.43-.81,1.05h0l0,0-.3.38-.61.79-1.19,1.54,0,0L9.16,44.83a.64.64,0,0,0,.1.88L21.5,55.43a.65.65,0,0,0,.79,0h0l2.64-2.14h0l.52-.42h0l1-.81.21-.17.15-.12h0l.43-.35h0l.6-.48h0l0,0h0l.14-.1.44-.36h0l.15-.12,1.89-1.54h0l.13-.1.29-.24.3-.24,2-1.58.58-.48.42-.34,1.55-1.25.5-.41h0l.09-.07.16-.13h0l.71-.57.14-.12.89-.72.58-.48.31-.24h0l1.11-.9.38-.32.59-.47,1.88-1.53.59-.48.24-.19.08-.06A.64.64,0,0,0,44.13,37.07Zm-1.75.44-1.13.92-.59.48-.2.16-.59.48-.46.37-.49.4-.6.48-.16.13h0L38,41l-.18.15-.4.33h0l-1,.79-.58.48,0,0-.35.28-.34.27-.25.21-.81.66-.59.47-.07.06-.54.44-.58.47-.68.55-.59.48-.13.11-.59.47h0l-.56.46h0l0,0-.12.1h0l-.38.3-.13.11h0l-.45.37h0l-.12.1-.8.65h0l0,0h0l-.58.47h0L27,50h0l-.41.33h0l-.14.11L26,50.8h0l-.53.43-.31.26h0l-.19.15h0l-.18.14h0l-.32.26-.05,0h0l-.39.31-.06,0h0l0,0-.2.16-.31.26-.77.62-.75.61-.4-.31-.8-.64h0l-1.15-.91-.11-.09-.09-.07-.5-.4-.1-.07-2.15-1.72-.25-.2-.45-.35-.15-.12-2.13-1.69-.24-.2L12.91,47l-.14-.11L11,45.48l-.46-.37,0,0,.78-1,.3-.4h0l.65-.84.46-.6,1.1-1.43h0v0l0,0h0l.32-.4.49-.64,0,0,.47-.61.65-.84h0l.28-.36.35-.46.72-.92h0v0l.12-.16,0,0,.28-.36.25-.33h0l.09-.13h0l.18-.23,1.07-1.4.4-.51.45-.59,1.51-1.95.55-.71.21-.27h0l.25-.33v0l.54-.69.48-.62.22-.29.4-.52h0l.33-.43.48-.62h0l.9-1.17.13-.17.14-.18h0l.26-.34.51-.66h0l.14-.17.08-.11.41-.53.33-.42.51-.66.26-.35h0l.89-1.16.16-.2.34-.44.16-.21.69-.89.63-.82h0l.16-.21.77-1,.09.18,0,0,.24.49h0l.19.38h0l.09.2h0l.21.45.14.27h0l.47,1,.18.38h0l.68,1.4h0l.05.1.25.5.11.24.4.8h0l0,.11h0l.22.45.2.4h0l.09.17,0,.1.21.41.11.23.18.38.4.81h0l0,.06.43.88.36.72.06.13h0l.24.49h0l.22.45h0l.23.47,0,.07.18.36.17.36.15.3.2.4.79,1.61.35.7,0,.1,0,.09.12.25.06.12h0v0l.23.47h0l.12.25,0,.09.11.23.13.25.06.13.06.11.13.27.22.45.32.66h0l.34.7ZM35,21.28h0l.05.1,0,0Zm3.64,7.43.23.47,0,.07,0-.05h0Z"/><path class="cls-3" d="M38,14.4a.72.72,0,0,1-.19.11l-5.1,1.71A.62.62,0,0,1,32.31,15l5.09-1.71a.63.63,0,0,1,.79.39A.64.64,0,0,1,38,14.4Z"/><path class="cls-3" d="M40.86,19.36a.37.37,0,0,0-.47-.22l-.46.15-1.4.47-1.26.43-.35.11-.18.06-.55.19-.08,0-.07,0-.34.11a.38.38,0,0,0-.24.27.35.35,0,0,0,0,.2.37.37,0,0,0,.45.25h0l.08,0,.35-.13.2-.06.18-.06L37.3,21l.17-.05,1-.32h0l1.32-.44.52-.18.37-.12.12-.07a.39.39,0,0,0,.12-.41Zm2.66,5.43a.37.37,0,0,0-.4-.11l-.47.16-.87.29h0l-.3.11L40,25.72,39.3,26l-.38.12-.05,0h0l-.09,0-.34.11a.39.39,0,0,0-.23.22.36.36,0,0,0,0,.25.37.37,0,0,0,.47.24h0l.4-.14.18-.06h0l.06,0,.34-.11.47-.16.26-.09,1-.32.52-.18h0l.3-.1.16-.05.63-.21.37-.13a.34.34,0,0,0,.12-.06.37.37,0,0,0,.11-.41A.33.33,0,0,0,43.52,24.79ZM46,30l-.68.23-.29.09-.33.12h0L43,31l-.73.25h-.05l-.06,0-.79.26-.11,0a.4.4,0,0,0-.19.14h0a.37.37,0,0,0,0,.31v0s0,0,0,.05l0,0a.43.43,0,0,0,.12.11h0a.35.35,0,0,0,.13,0h0a.41.41,0,0,0,.16,0l.21-.07.95-.32.73-.24.84-.29h0l.57-.19h0l.78-.26.59-.2a.35.35,0,0,0,.12-.07.37.37,0,0,0,.12-.41A.38.38,0,0,0,46,30Z"/><path class="cls-3" d="M49,36.13a.57.57,0,0,1-.19.1l-5.09,1.71a.62.62,0,1,1-.4-1.17l5.09-1.71a.62.62,0,0,1,.79.39A.62.62,0,0,1,49,36.13Z"/><polygon class="cls-5" points="24.62 18.31 24.7 18.41 27.86 25.76 20.29 21.98 20.22 21.89 22.83 18.27 24.62 18.31"/><polygon class="cls-6" points="27.84 25.76 24.31 27.58 20.26 21.94 23.47 20.13 27.84 25.76"/><polygon class="cls-7" points="29.04 23.9 27.84 25.76 23.84 19.84 24.63 18.32 29.04 23.9"/><polygon class="cls-7" points="24.62 18.31 22.97 18.23 20.64 20.15 20.22 21.9 23.43 19.8 23.22 18.55 24.55 18.4 24.62 18.31"/><polygon class="cls-6" points="23.12 18.88 20.57 20.49 20 19.61 22.46 17.69 23.12 18.88"/><polygon class="cls-7" points="23.1 18.85 22.46 17.69 22.7 17.66 23.53 18.36 23.1 18.85"/><polygon class="cls-5" points="24.16 22.29 22.03 23.48 22.78 24.49 24.97 23.39 24.16 22.29"/><path class="cls-8" d="M16.32,31.09c.38-.11.58-.23.42-.69s-.77.19-1.27.18c-.2,0-.46-.3-.51-.46-.18-.58.27-.53.7-.77s-1.45.11-1.29-.84.68-1.21,1.44-.58.75-.11.57-.65.48-.68.79-.09.92-.12.51-.61-1.51-.45-1.21-1.21,1.52-1.49,2-.35.77,1.1,1,.44.06-1.12.47-1.16-.05.78.58.89c.35.06.42-.11.51-.34.41-1,.65-.32.91.3a4.92,4.92,0,0,1,.35,1.23,6.53,6.53,0,0,1-.5,2.28l-2,4a6.86,6.86,0,0,1-4,.53c-1.1-.48-1.54-1.28-.88-1.76C15.22,31.22,15.65,31.28,16.32,31.09Z"/><path class="cls-9" d="M17.89,26.59l-.08.1,0,0a.35.35,0,0,0-.08-.13l-.09-.1c-.29-.26-.78-.35-1-.57a.46.46,0,0,1-.09-.54l.07-.14c.3-.56,1.07-1,1.61-.67a1.47,1.47,0,0,0-1.28.8c0,.05-.05.1-.07.14C16.56,26.2,17.41,26.23,17.89,26.59Z"/><path class="cls-9" d="M14.92,29.16a.94.94,0,0,1-.39-.18.45.45,0,0,1-.13-.45,1.94,1.94,0,0,1,.18-.56c.2-.38.53-.47,1-.22a.58.58,0,0,0-.64.36,1.77,1.77,0,0,0-.18.55A.46.46,0,0,0,14.92,29.16Z"/><path class="cls-9" d="M16.75,27.48h0l-.27,0a.74.74,0,0,0,0-.14.46.46,0,0,1,0-.33A.38.38,0,0,1,17,27a.28.28,0,0,0-.26.15.39.39,0,0,0,0,.32S16.75,27.46,16.75,27.48Z"/><path class="cls-10" d="M19.36,32.15c-.85.16-1.81.4-2.47.5-.92.12-1.85-.73-1.22-1.16s1.64-.21,2.08-.64.24-.68-.53-.64-1.08-.28-.91-.79,1,.17,1.35-.1-1.95-.6-1.83-1.4,1.51-.46,2.11.2.74.13.64-.14-1.2-.67-.77-1.28.78-.29,1.2.47.67,1.22.92.95-.12-.48-.34-.86-.47-.88-.18-1.13c.56-.46,1.9.15,2,1.2s2.26,2.24,2.26,2.24l-1.27,3.24Z"/><path class="cls-11" d="M20.11,26a.56.56,0,0,0-.17.09.44.44,0,0,0-.09.11.45.45,0,0,0,0,.28,1.31,1.31,0,0,0-.39.45h0a.86.86,0,0,1-.11-.64,0,0,0,0,1,0,0,.47.47,0,0,1,.09-.12l.1-.06.1,0A.84.84,0,0,1,20.11,26Z"/><path class="cls-11" d="M18,29.35a1.65,1.65,0,0,1-.3,0l0,0h0c.11-.27-2-.6-1.86-1.36a.31.31,0,0,1,0-.13.17.17,0,0,1,0-.05.6.6,0,0,1,.54-.27h0l.23,0a.53.53,0,0,0-.26.23.48.48,0,0,0-.06.18c-.1.61,1.25.94,1.72,1.19C18.06,29.15,18,29.24,18,29.35Z"/><path class="cls-12" d="M40.4,59.09a1.79,1.79,0,0,0-1.43.37,1.65,1.65,0,0,0-.33.37l.28-.09,1.51-.44.33-.11A2.42,2.42,0,0,0,40.4,59.09ZM57.61,46.64A1.85,1.85,0,0,0,56.44,46a1.78,1.78,0,0,0-1.33.39,1.57,1.57,0,0,0-.43.5,1.78,1.78,0,1,0,2.93-.24Z"/><path class="cls-13" d="M52,50.39l0,0s0,0,0,0Z"/><path class="cls-12" d="M54.52,50.11a1.77,1.77,0,0,1-.6,1.81,1.78,1.78,0,0,1-2.61-2.36l.68.83,0,0a.8.8,0,0,0,.11.52l.06.1a.8.8,0,0,0,1.38-.28.78.78,0,0,0-.05-.56.86.86,0,0,0-.1-.16l-.14-.14-.15-1.11a1.76,1.76,0,0,1,1.4,1.32Z"/><path class="cls-14" d="M56.84,47.26a.67.67,0,0,0-.25-.2.78.78,0,0,0-.86.08.83.83,0,0,0-.3.68.85.85,0,0,0,.18.44.79.79,0,0,0,1.23-1Z"/><path class="cls-15" d="M20,37.06l.07-2.58c0-.59-.3-.87-.89-.89l-8.29-.23a1.07,1.07,0,0,0-1.09,1l-.06,2.17a1.07,1.07,0,0,0,1,1.1l8.28.23C19.64,37.92,20,37.65,20,37.06Z"/><rect class="cls-16" x="11.98" y="33.95" width="4.31" height="3.33" transform="translate(-21.84 48.76) rotate(-88.42)"/><polygon class="cls-15" points="7.47 36.15 7.51 34.7 10.44 33.45 10.33 37.56 7.47 36.15"/><rect class="cls-17" x="6.57" y="35.07" width="1.55" height="0.7" transform="translate(-28.27 41.79) rotate(-88.42)"/><path class="cls-5" d="M7.05,36.31l0-1.79-1,0a2,2,0,0,0-.21.86,1.89,1.89,0,0,0,.16.93Z"/><rect class="cls-18" x="6.62" y="35.31" width="1.71" height="0.23" transform="translate(-28.14 41.92) rotate(-88.42)"/><rect class="cls-19" x="13.7" y="35.09" width="0.81" height="3.33" transform="translate(-23.02 49.85) rotate(-88.42)"/><rect class="cls-20" x="17.12" y="35.1" width="0.81" height="3.5" transform="translate(-19.8 53.35) rotate(-88.42)"/><rect class="cls-20" x="11.16" y="35.8" width="0.81" height="1.77" transform="translate(-25.43 47.23) rotate(-88.42)"/><polygon class="cls-6" points="7.95 35.75 7.94 35.96 10.67 37.06 10.69 36.26 7.95 35.75"/><path class="cls-3" d="M53.75,42l-.22.18-2.44,2-.29,2.73h0L50.69,48v0a.53.53,0,0,1-.55.45h0a.53.53,0,0,1-.48-.57h0v0L50,44.16c-2.16-1.35-4.9-1.93-8.58-1.8h-.14a.54.54,0,0,1-.56-.51.53.53,0,0,1,.39-.53.27.27,0,0,1,.13,0l.65,0h.87a14.73,14.73,0,0,1,7.79,2l2-1.63.51-.41a.53.53,0,1,1,.67.83Z"/><path class="cls-2" d="M41.3,54.71l-.84.69c-.55-.45-1.1-.86-1.67-1.24l-2.45,2L36,59,34.88,60a.61.61,0,0,1,0-.14l.39-3.7a11.81,11.81,0,0,0-1.41-.76h0c-.26-.11-.53-.23-.81-.33a18,18,0,0,0-6.24-.95.59.59,0,0,1-.23,0l.56-.18h0a.6.6,0,0,0,.25-.13l.85-.68a16.41,16.41,0,0,1,6.38,1.49h0c.24.12.48.24.71.37l.48.28.85-.68h0l1.13-.92.1,0,0,0a17.31,17.31,0,0,0-7.24-2.41l1.14-.93a18.59,18.59,0,0,1,7.53,3l.6.42C40.36,54,40.83,54.32,41.3,54.71Z"/><path class="cls-3" d="M28.23,53.07l-.85.68a.6.6,0,0,1-.25.13h0l-.56.18a.55.55,0,0,1-.31-.49.25.25,0,0,1,0-.08h0a.52.52,0,0,1,.52-.45h.72Z"/><path class="cls-3" d="M36,59l-.05.5,0,.41a.09.09,0,0,0,0,0h0a.55.55,0,0,1-.1.22h0l-.09.09a.41.41,0,0,1-.21.1.55.55,0,0,1-.18,0,.62.62,0,0,1-.35-.18v0a.47.47,0,0,1-.11-.25Z"/><path class="cls-3" d="M37.88,53.58l-.1,0,.06,0Z"/><path class="cls-21" d="M36.34,59.89h0l-.5.33h0l-.3.2-.73.46,1.58-.42.48-.13,0-.24,0-.32h0l0-.15ZM50.68,48.78l.21.26.42.52a1.56,1.56,0,0,1,.37-.4,1.78,1.78,0,0,1,1.44-.37l-.19-1.41L52.87,47ZM52,50.39l0,0s0,0,0,0Z"/><path class="cls-14" d="M53.41,50l-.14-.14-.15-1.11a1.78,1.78,0,0,0-1.44.37,1.56,1.56,0,0,0-.37.4l.68.83h0s0,0,0,0a.81.81,0,0,0,.07.46.21.21,0,0,1,0,.06l.06.1a.8.8,0,0,0,1.38-.28.24.24,0,0,1,0-.08.8.8,0,0,0-.07-.48A.86.86,0,0,0,53.41,50Zm-.33.77,0,0a.5.5,0,0,1-.2.08.4.4,0,0,1-.26-.06.18.18,0,0,1-.07,0l0,0a.39.39,0,0,1,0-.47.32.32,0,0,1,.08-.09.39.39,0,0,1,.52,0l0,0a.38.38,0,0,1,.06.38l0,.06A.24.24,0,0,1,53.08,50.81Z"/><path class="cls-14" d="M54,46.07l.21.26.45.55.75.94.5.61.34-.28.33-.26.09-.08-.1-.75L56.44,46l-.18-1.31,0-.38ZM38.77,58.44l-.8.65,0,0,.18.21v0l.09.11.3.36,0,0a.1.1,0,0,1,0-.05l.28-.09,1.51-.44,0-.21,0-.36-.14-1,0-.34v0Z"/><path class="cls-22" d="M36.05,12.21l1,11.55a2,2,0,0,1-1.81,2.15h0a2,2,0,0,1-2.15-1.82l-1-11.55a2,2,0,0,1,1.82-2.15h0A2,2,0,0,1,36.05,12.21Z"/><path class="cls-22" d="M35.68,26.43h0l0,0h0l-.18-.3h0v0l-.06-.1h0l0-.07-.06-.11-.12,0H35l0,.11L35,26h0l-.17.58v0l.26,0,.56-.05h.13ZM34.32,9.64a1.54,1.54,0,0,1-1,.08,1.24,1.24,0,0,0,.33.7l0,.05.28,0,0-.06h0A2.33,2.33,0,0,0,34.32,9.64Z"/><path class="cls-23" d="M35.64,12.4l1,11.38a1.57,1.57,0,0,1-.87,1.54,2.07,2.07,0,0,0,.12-.87L34.79,11.86a2.07,2.07,0,0,0-.26-.83A1.56,1.56,0,0,1,35.64,12.4Z"/><rect class="cls-24" x="32.57" y="14.74" width="3.98" height="6.83" transform="translate(-1.4 2.97) rotate(-4.82)"/><rect class="cls-25" x="35.31" y="14.64" width="0.81" height="6.83" transform="translate(-1.38 3.04) rotate(-4.78)"/><path class="cls-26" d="M30.54,19.82a55.93,55.93,0,0,1-12.59-9c-.61-.64-.13-1.59,1.35-1.5a15.85,15.85,0,0,1,7.23,3.13c1.3,1,3.38,2,5.43,3.29,1.65,1,3.19,2.18,4.67,3.1,2,1.25,1.54,2.66.24,2.74C35.23,21.71,32.09,20.57,30.54,19.82Z"/><path class="cls-27" d="M20.64,13.28a3.75,3.75,0,0,1,.06-1.72c.09-.18.54.06.67.59a12,12,0,0,1,0,1.71C21.17,13.69,20.78,13.37,20.64,13.28Z"/><path class="cls-27" d="M22.62,14.8a6.29,6.29,0,0,1,.13-2.25c.09-.2.46,0,.59.6a18.88,18.88,0,0,1,.06,2.21C23.15,15.2,22.76,14.9,22.62,14.8Z"/><path class="cls-27" d="M24.59,16.22A5.53,5.53,0,0,1,24.71,14c.09-.19.5,0,.63.54a20.71,20.71,0,0,1,0,2.15C25.11,16.57,24.72,16.32,24.59,16.22Z"/><path class="cls-27" d="M26.78,17.67a6.6,6.6,0,0,1,.13-2.31c.1-.23.56-.09.69.59,0,0,0,1.61,0,2.2C27.3,18,26.92,17.78,26.78,17.67Z"/><path class="cls-27" d="M28.81,18.87a5.82,5.82,0,0,1,.09-2.2c.09-.23.56-.16.69.51a18.06,18.06,0,0,1,0,2.16C29.34,19.19,29,19,28.81,18.87Z"/><path class="cls-28" d="M21.05,13.61a3.5,3.5,0,0,1,0-1.71.22.22,0,0,1,.31-.12.88.88,0,0,1,.37.55,14.55,14.55,0,0,1,.07,1.86C21.57,14,21.19,13.7,21.05,13.61Z"/><path class="cls-28" d="M23.05,15.12a6.37,6.37,0,0,1,.08-2.25c.09-.2.47,0,.61.59a18.59,18.59,0,0,1,.11,2.21C23.6,15.51,23.19,15.21,23.05,15.12Z"/><path class="cls-28" d="M25.05,16.53a5.78,5.78,0,0,1,.07-2.18c.09-.2.5,0,.64.53A17.92,17.92,0,0,1,25.82,17Z"/><path class="cls-28" d="M27.27,18a6.69,6.69,0,0,1,.08-2.31c.09-.23.56-.09.7.58,0,0,.07,1.62,0,2.21C27.8,18.29,27.41,18.07,27.27,18Z"/><path class="cls-28" d="M29.33,19.14a5.94,5.94,0,0,1,0-2.2c.09-.23.56-.16.7.52a18.79,18.79,0,0,1,.07,2.15A6.54,6.54,0,0,1,29.33,19.14Z"/><path class="cls-28" d="M17.74,10.52c-.23-.59.3-1.25,1.56-1.18a16.12,16.12,0,0,1,7.23,3.13c1.3,1,3.38,2,5.42,3.3,1.65,1,3.19,2.17,4.68,3.09s1.63,2,1,2.46a2.64,2.64,0,0,0-1.35-1.54c-1.49-.92-3-2.09-4.68-3.1-2.05-1.25-4.13-2.29-5.42-3.29A15.88,15.88,0,0,0,19,10.26,2,2,0,0,0,17.74,10.52Z"/><path class="cls-27" d="M31.81,20.38c-.29-.12-.57-.23-.82-.35a6.43,6.43,0,0,1,.15-2.1c.1-.23.57-.09.69.59C31.83,18.53,31.85,19.67,31.81,20.38Z"/><path class="cls-27" d="M34,21.14l-.88-.28a4.62,4.62,0,0,1,.14-1.51c.1-.23.57-.16.69.51C34,19.87,34,20.52,34,21.14Z"/><path class="cls-28" d="M32.31,20.57l-.84-.33a6.3,6.3,0,0,1,.11-2c.09-.23.56-.09.7.58C32.28,18.81,32.33,19.86,32.31,20.57Z"/><path class="cls-28" d="M34.51,21.28,33.63,21a4.41,4.41,0,0,1,.1-1.4c.09-.23.57-.16.7.52C34.44,20.14,34.48,20.7,34.51,21.28Z"/><path class="cls-29" d="M26,37.09c-.08.57-1,1.56-.67,2.42s-.09,1.66,1.72,2.93c.45.31,2.2-.32,3.18-1.75.4-.58.91-5.82.44-6.45C30,33.36,26.22,35.37,26,37.09Z"/><path class="cls-30" d="M29.26,45.5c-1.12.55-2.35-1-2.53-1.55s-1.62-.74-1-2.41c.26-.66,1.45.15,1.41-.87,0-.51-.43-.62.19-1.5s2.73-1.27,2.88-.2a22.64,22.64,0,0,1,.25,4.1C30.38,43.88,29.19,45.32,29.26,45.5Z"/><path class="cls-29" d="M36.69,42.47c-.35,2.1-4,5.1-6.33,4.64-1.28-.25-1.57-.94-2.25-1.3s-1.28-.54-1.33-1.12.77-.81,1.48-1c.53-.14-.15-.93.57-1.56s1.92-.39,3.41-1.07S36.92,41.05,36.69,42.47Z"/><path class="cls-31" d="M37.59,42.1c-1.24,2.55-4.2,3.53-3.72.65.23-1.37-2.85.77-3.73-.94a18.52,18.52,0,0,1-.95-3.11c-.22-.85-2.29-.07-1.32-2.92.08-.22.7-.58.81-.84s-.17-.52-.18-.81a1.68,1.68,0,0,1,.73-1.44c.21-.14.35.36.82.27a16.21,16.21,0,0,1,1.9-.28A6.1,6.1,0,0,1,37.62,36C39.12,38.93,36.93,41.34,37.59,42.1Z"/><path class="cls-29" d="M37.61,42.18c1.12-2.9,1.27-6.51-2.56-8.94-.57-.36-1.28-.89-1.72-.79s-.45.59-.31.94a1.47,1.47,0,0,1,0,1.26c-.21.47-.67.79-.9,1.2A3.15,3.15,0,0,0,34.28,40c.71.12,1.12,2.32,1.66,2.55A1.49,1.49,0,0,0,37.61,42.18Z"/><path class="cls-32" d="M22.2,53.41l2.74-4.59a.82.82,0,0,0-.28-1.13h0a.83.83,0,0,0-1.14.28l-2.74,4.59a.84.84,0,0,0,.29,1.14h0A.83.83,0,0,0,22.2,53.41Z"/><path class="cls-33" d="M24.25,47.82a.53.53,0,0,0-.52.18l-2.8,4.74a.54.54,0,0,0,.08.58,20.43,20.43,0,0,1,1.52-2.72C23.31,49.29,24.08,48,24.25,47.82Z"/><path class="cls-32" d="M23.73,53.21l2.74-4.6a.83.83,0,0,0-.29-1.13h0a.82.82,0,0,0-1.13.29l-2.74,4.59a.82.82,0,0,0,.28,1.13h0A.83.83,0,0,0,23.73,53.21Z"/><path class="cls-33" d="M25.78,47.62a.5.5,0,0,0-.52.18l-2.81,4.73a.54.54,0,0,0,.09.58,21.12,21.12,0,0,1,1.52-2.72C24.83,49.09,25.61,47.77,25.78,47.62Z"/><path class="cls-32" d="M25.25,52.92,28,48.33a.84.84,0,0,0-.29-1.14h0a.84.84,0,0,0-1.14.29l-2.74,4.59a.83.83,0,0,0,.29,1.13h0A.83.83,0,0,0,25.25,52.92Z"/><path class="cls-33" d="M27.3,47.33a.51.51,0,0,0-.52.18L24,52.24a.57.57,0,0,0,.08.59,21.59,21.59,0,0,1,1.52-2.73A32.35,32.35,0,0,1,27.3,47.33Z"/><path class="cls-32" d="M26.77,52.71l2.74-4.59A.83.83,0,0,0,29.23,47h0a.84.84,0,0,0-1.14.29l-2.74,4.59A.84.84,0,0,0,25.64,53h0A.83.83,0,0,0,26.77,52.71Z"/><path class="cls-33" d="M28.83,47.12a.54.54,0,0,0-.53.18L25.5,52a.56.56,0,0,0,.08.58A21.76,21.76,0,0,1,27.1,49.9,31.49,31.49,0,0,1,28.83,47.12Z"/><path class="cls-32" d="M28.32,52.42l2.74-4.59a.84.84,0,0,0-.29-1.14h0a.83.83,0,0,0-1.13.29L26.9,51.57a.83.83,0,0,0,.28,1.14h0A.84.84,0,0,0,28.32,52.42Z"/><path class="cls-33" d="M30.37,46.83a.51.51,0,0,0-.52.18L27,51.74a.56.56,0,0,0,.09.59,19.29,19.29,0,0,1,1.51-2.72A31.49,31.49,0,0,1,30.37,46.83Z"/><path class="cls-10" d="M34.15,4.36l.06,1.41,4.93-1.62c.87-.29,1-1.49,0-1.49l-1,.32Z"/><path class="cls-2" d="M56.91,43.62a.5.5,0,0,1-.11.48s0,0-.07.06a.51.51,0,0,1-.61,0L56,44.15l-.28-.25-.63-.53c-.53-.42-1.06-.81-1.6-1.16q-.48-.32-1-.6a17.1,17.1,0,0,0-7.45-2.24h-.18a.54.54,0,0,1-.5-.57.45.45,0,0,1,0-.16h0a.54.54,0,0,1,.36-.33h0a.42.42,0,0,1,.16,0c.43,0,.87.06,1.29.12a18.81,18.81,0,0,1,10.45,4.94A.45.45,0,0,1,56.91,43.62Z"/><path class="cls-2" d="M31.74,50.22l-1.14.93-.19,0a.54.54,0,0,1,.1-1.07C30.92,50.1,31.34,50.15,31.74,50.22Z"/><path class="cls-2" d="M42.18,55.71a.5.5,0,0,1-.14.36s0,0-.06.06a.55.55,0,0,1-.44.11h0a.52.52,0,0,1-.24-.13L41,55.86c-.18-.15-.36-.31-.55-.45l.85-.7h0l.54.47.15.13A.53.53,0,0,1,42.18,55.71Z"/><path class="cls-2" d="M50.68,48a.53.53,0,0,1-.55.45Z"/><path class="cls-2" d="M56.82,44.23l-.56.45,0-.38L54,46.07l.21.26-1.3,1.05L52.87,47l-2.19,1.78.21.26L48.49,51l-.89.73-.05,0-7.34,6,0-.34,1.36-1.12h0a.55.55,0,0,0,.44-.11s.05,0,.06-.06a.5.5,0,0,0,.14-.36.53.53,0,0,0-.18-.4l-.15-.13,3.69-3h0l0,0,1-.77,3.61-2.93a.53.53,0,0,0,.55-.45l5.08-4.11.28.25.08.05a.51.51,0,0,0,.61,0s.05,0,.07-.06a.5.5,0,0,0,.11-.48A.46.46,0,0,1,56.82,44.23Z"/><path class="cls-2" d="M42,55.31a.53.53,0,0,1,.18.4.5.5,0,0,1-.14.36s0,0-.06.06a.55.55,0,0,1-.44.11h0l-1.36,1.12,0,.34-1.36,1.11-.67.54,0,0h0l-.34.29a.46.46,0,0,1-.5,0l-.1-.07,0,0A.46.46,0,0,1,37.2,59l1-.83L41,55.86l.84-.68Z"/><polygon class="cls-2" points="50.68 48.78 52.87 47 52.93 47.38 50.89 49.04 50.68 48.78"/><polygon class="cls-2" points="54.02 46.07 56.21 44.3 56.26 44.68 54.23 46.33 54.02 46.07"/><path class="cls-2" d="M56.91,43.62a.5.5,0,0,1-.11.48s0,0-.07.06a.51.51,0,0,1-.61,0L56,44.15l-.28-.25.37-.3.1-.09a.46.46,0,0,1,.65.07A.05.05,0,0,1,56.91,43.62Z"/><path class="cls-10" d="M31.37,8.64c.38.26.45.51.67.2l2.76-3.3c.59-.71-.43-1.66-1-.92L30.43,8.55c-.21.27-.05.31.19.18S31.15,8.48,31.37,8.64Z"/><path class="cls-34" d="M40.28,42h0c.69.26,2.12-1.87,3.21-4.75s1.4-5.44.72-5.7h0l-3.44-1.29L36.84,40.69,40.28,42Z"/><path class="cls-35" d="M40.28,42h0c.34.13.87-.33,1.44-1.18l-4.31-1.62-.57,1.51L40.28,42Z"/><path class="cls-36" d="M37.56,35c-1.08,2.89-1.4,5.44-.71,5.69s2.12-1.87,3.2-4.75,1.41-5.44.72-5.7S38.65,32.11,37.56,35Z"/><path class="cls-37" d="M36.74,37.7c-.36,1.63-.35,2.82.11,3s.86-.33,1.44-1.18Z"/><path class="cls-38" d="M37.72,35.06c-.92,2.44-1.3,4.55-.86,4.72s1.55-1.68,2.47-4.12,1.3-4.55.86-4.72S38.64,32.62,37.72,35.06Z"/><path class="cls-39" d="M36.87,37.85c-.24,1.09-.26,1.83,0,1.93s.53-.25.92-.86Z"/><path class="cls-36" d="M40.28,42h0c.69.26,2.12-1.87,3.21-4.75s1.4-5.44.72-5.7h0l-2.55-1c.47.72-.07,3.29-.94,5.61s-2.22,4.67-3,4.84l2.55.95Z"/><path class="cls-37" d="M40.28,42h0c.34.13.87-.33,1.44-1.18l-2.75-1c-.47.71-.91,1.19-1.24,1.27l2.55.95Z"/><polygon class="cls-40" points="44.35 34.42 44.1 35.4 40.66 34.1 40.91 33.13 44.35 34.42"/><polygon class="cls-41" points="40.92 33.13 40.66 34.1 39.8 34.3 40.08 33.32 40.92 33.13"/><path class="cls-42" d="M40.08,33.32l-.29,1L36.92,37c.09-.33.19-.65.3-1Z"/><path class="cls-41" d="M37.15,36.75l-.23.22c.09-.33.19-.65.3-1l.25-.24C37.35,36.1,37.25,36.44,37.15,36.75Z"/><ellipse class="cls-43" cx="18.65" cy="37.82" rx="2.88" ry="2.62" transform="translate(-19.66 20.2) rotate(-39.05)"/><path class="cls-44" d="M18.78,35.34a3.58,3.58,0,0,0,.42,0c.15,0,.28,0,.23.1s-.18.19-.33.32.07.26-.14.35a1.28,1.28,0,0,0-.6.36c-.23.28-.18.4-.34.6a.38.38,0,0,1-.32.18,1,1,0,0,1-.24,0c-.36,0-.25.34-.69.57-.14.08-.44.27-.59.09s-.06-.21,0-.39a4.64,4.64,0,0,1,.16-.53,4,4,0,0,1,.28-.43,2.57,2.57,0,0,1,.61-.62,2.67,2.67,0,0,1,.88-.43A1.66,1.66,0,0,1,18.78,35.34Z"/><path class="cls-45" d="M17.57,36.48c.14-.11.21-.26.16-.32s-.21,0-.35.09-.22.26-.16.32S17.42,36.6,17.57,36.48Z"/><path class="cls-46" d="M15.93,38.61a2.58,2.58,0,0,0,.48,1,2.77,2.77,0,0,0,3.89.22,2.9,2.9,0,0,0,1.07-2.8,2.28,2.28,0,0,0-.11-.41l-.22.51-.09.24-.61.69-.7.16-1.24.58-.6-.13-1.17.38-.32-.4Z"/><path class="cls-47" d="M34,32a5.93,5.93,0,0,1,.15-1.58,1,1,0,0,0,.11-.56c0-.27.49-1.15.87-1.16.08-.51.36-1.07.86-.9a1.21,1.21,0,0,1,.85-.41c.64,0,.48.7.37.88.57.21-.11,1-.43,1,.11.49-.42.54-.48.61.55-.22,1.53-.36,1.72.1a.67.67,0,0,1-.77.6c0,.23-.22.54-.47.41,0,.34-.58.3-1,.15-.45.39-.8.61-1,1.1Z"/><path class="cls-48" d="M34,31.54c-.07,1.19-.16,1.79-.12,2.16.24.1.57.29.81.39-.27-.46-.09-1.2.39-2.32C34.77,32,34.13,31.71,34,31.54Z"/><path class="cls-49" d="M35.09,34.23c-.74-.47-1.25-.76-1.71-.61s-1,.74-1.52,1.59a2.33,2.33,0,0,0-.09,2.26c.14.26.62.59.71,1.12a1.68,1.68,0,0,1-.2.75c-.14.34-.15,1,0,.73a5.29,5.29,0,0,1,.73-.86c.12-.1.26-.19.39-.28.29-.21.85-.4,1-.64A29.06,29.06,0,0,0,35.09,34.23Z"/><path class="cls-50" d="M34,33.62a1.18,1.18,0,0,0-.79.06l.14.08.45.19,0,1.14.28.52-.19,1.3c-.14.67-.28,1.34-.43,2,.33-.18.77-.36,1-.47a2.83,2.83,0,0,0,1.09-2.12c.13-1.18,0-1.62-.21-1.9A2.56,2.56,0,0,0,34,33.62Z"/><path class="cls-51" d="M32,37.46c.25-.06.45-.41.54-.64a6.54,6.54,0,0,0,0-1.25c0-.27.25-1.15.25-1.15s-.61.54-.82.9a2.44,2.44,0,0,0-.17,1.56A2.74,2.74,0,0,0,32,37.46Z"/><path class="cls-47" d="M35.34,32.08c-.12-.69-.37-1.13.12-1.36.24-.11,0-.35,0-.57-.19-.5,1.56-2,2.12-1.18.12.18-.1.61-.14.69.47-.35,1.39-.73,1.69-.33a.67.67,0,0,1-.6.77c0,.24-.08.58-.35.52.21.43-.17,1-1.19,1a.35.35,0,0,1-.57.15c-.09.18-.17,0-.21.55Z"/><path class="cls-48" d="M35.29,31.85c.24,1,.43,1.79.56,2.13l.86.16a2.1,2.1,0,0,1-.45-2.23A4.52,4.52,0,0,0,35.29,31.85Z"/><path class="cls-49" d="M37.3,34.21c-.83-.27-1.39-.42-1.81-.16A3.27,3.27,0,0,0,34.43,36a2.34,2.34,0,0,0,.47,2.21c.21.22.75.42,1,.91a1.66,1.66,0,0,1,0,.77c0,.36.12,1,.22.7a5,5,0,0,1,.49-1l.3-.37c.23-.27.72-.6.8-.87A27.34,27.34,0,0,0,37.3,34.21Z"/><path class="cls-50" d="M36.1,33.9a1.15,1.15,0,0,0-.75.25l.15.05.49.06.26,1.11.41.43.14,1.31.09,2c.27-.25.66-.54.82-.7a2.81,2.81,0,0,0,.53-2.32c-.17-1.18-.42-1.57-.68-1.79A2.46,2.46,0,0,0,36.1,33.9Z"/><path class="cls-51" d="M35.16,38.11a1.06,1.06,0,0,0,.36-.76,6.34,6.34,0,0,0-.35-1.2A11.72,11.72,0,0,1,35.12,35c-.12,0-.46.68-.57,1.08a2.41,2.41,0,0,0,.23,1.55A3.06,3.06,0,0,0,35.16,38.11Z"/><path class="cls-52" d="M32.63,32.13c-.16-1.63-.07-2.07-.11-2.45l-.3-1.43.29.1.38.48a2,2,0,0,0-.16-.94l.5,0a2.31,2.31,0,0,1,.26.61,2.63,2.63,0,0,1-.15,1.12l.59-.39.61-.32.43.17-.64.5a5.1,5.1,0,0,0-1.17,2.79Z"/><path class="cls-53" d="M31.64,33.25a11.65,11.65,0,0,1-.63,2,12.72,12.72,0,0,1-1.72,3.43c.37.17.49,0,.85-.15.85-.31,1.54-1.44,2.15-2.24a9.14,9.14,0,0,0,1.58-3.65,1.93,1.93,0,0,0-1.26-1.42c-.16.05-.31.14-.57.23A10.68,10.68,0,0,1,31.64,33.25Z"/><path class="cls-54" d="M29.38,38.7c.35.14.44,0,.76-.15.85-.31,1.54-1.44,2.15-2.24a9.14,9.14,0,0,0,1.58-3.65,1.82,1.82,0,0,0-1.26-1.42h0a4.78,4.78,0,0,1-.39,3.13A12.08,12.08,0,0,1,29.38,38.7Z"/><path class="cls-55" d="M31.73,25.35l.07-.12-1-.56,1.49-2.56,1,.56.07-.12a1.28,1.28,0,0,1,1.74-.46l6.27,3.66a1.26,1.26,0,0,1,.46,1.73L40.2,30.29a1.27,1.27,0,0,1-1.74.45l-6.27-3.65A1.28,1.28,0,0,1,31.73,25.35Z"/><path class="cls-56" d="M30,24.6a6.9,6.9,0,0,1,1.85-3.17l.9.52-1.85,3.17Z"/><path class="cls-57" d="M40,28.35l-.45.77a.74.74,0,0,1-1,.26L33.3,26.3a.76.76,0,0,1-.24-1.14l.38-.65Z"/><path class="cls-58" d="M41.12,26a1.1,1.1,0,0,1,.41,1.5L40,30a1.09,1.09,0,0,1-1.5.38l-6.07-3.53a1.1,1.1,0,0,1-.4-1.49l1.5-2.58a1.11,1.11,0,0,1,1.5-.38Z"/><path class="cls-59" d="M40,28.39l-.44.77a.73.73,0,0,1-1,.26l-5.23-3.05a.72.72,0,0,1-.26-1l.45-.77Z"/><rect class="cls-60" x="34.44" y="24.86" width="4.11" height="2.78" transform="translate(-4.56 44.57) rotate(-59.78)"/><rect class="cls-61" x="35.24" y="25.64" width="1.61" height="2.78" transform="translate(-5.45 44.57) rotate(-59.78)"/><ellipse class="cls-62" cx="35.75" cy="30.4" rx="2.75" ry="2.5" transform="translate(-11.17 29.31) rotate(-39.05)"/><path class="cls-63" d="M35.87,28l.4,0c.15,0,.27,0,.23.09a1.58,1.58,0,0,1-.32.31c-.11.1.07.25-.14.34a1.18,1.18,0,0,0-.57.34c-.22.27-.17.39-.32.57a.39.39,0,0,1-.31.17.59.59,0,0,1-.23,0c-.35,0-.23.33-.66.55-.13.07-.42.26-.56.09s-.06-.21,0-.38a3.65,3.65,0,0,1,.15-.5,3.74,3.74,0,0,1,.27-.42,2.5,2.5,0,0,1,.58-.59,2.73,2.73,0,0,1,.84-.41A1.51,1.51,0,0,1,35.87,28Z"/><path class="cls-45" d="M34.71,29.13c.14-.11.21-.25.16-.31s-.2,0-.34.09-.2.25-.15.31S34.58,29.24,34.71,29.13Z"/><path class="cls-64" d="M33.15,31.16a2.18,2.18,0,0,0,.46,1,2.63,2.63,0,0,0,3.71.22,2.79,2.79,0,0,0,1-2.68,3.18,3.18,0,0,0-.11-.38l-.21.48-.09.22-.58.66-.67.16-1.18.55-.58-.12-1.11.36-.31-.38Z"/><path class="cls-65" d="M24.07,30.15c-1.28.78-1.12,1.77-.54,2.38A2,2,0,0,0,26.48,30,1.48,1.48,0,0,0,24.07,30.15Z"/><path class="cls-66" d="M24.06,30.15c-.86.48-1.17,1.26-.79,1.76s1.45.31,2.08-.2,1-1.37.71-1.89S24.73,29.36,24.06,30.15Z"/><path class="cls-67" d="M25,30.77c-.17.21-.32.51-.2.63s.44-.07.64-.29.32-.5.2-.62S25.2,30.55,25,30.77Z"/><path class="cls-68" d="M24.36,30.49c.6,0,1-.35,1-.42-.24-.31-.76,0-.73-.07.3-.39.46-1,.16-.79a2,2,0,0,0-.7.78,1.32,1.32,0,0,0-.93-.33,1.35,1.35,0,0,0,.62.67,4,4,0,0,0-.59.38.78.78,0,0,0,.58.13A1.2,1.2,0,0,0,24.36,30.49Z"/><path class="cls-65" d="M22.82,33.3c-1.29.78-1.12,1.76-.55,2.38a1.83,1.83,0,0,0,2.47,0,1.81,1.81,0,0,0,.47-2.49A1.46,1.46,0,0,0,22.82,33.3Z"/><path class="cls-66" d="M22.81,33.3c-.86.48-1.18,1.26-.8,1.75s1.45.31,2.09-.2,1-1.36.71-1.89S23.48,32.5,22.81,33.3Z"/><path class="cls-67" d="M23.7,33.71c-.16.2-.29.5-.16.61s.43-.07.6-.29.29-.5.16-.61S23.87,33.49,23.7,33.71Z"/><path class="cls-68" d="M23.21,33.73c.58-.42.79-.69.58-.69a1.11,1.11,0,0,0-.76.19,1.35,1.35,0,0,0-.7-.69,1.31,1.31,0,0,0,.22.89,3.3,3.3,0,0,0-.7,0,.58.58,0,0,0,.4.33l.36,0c-.1.43.07.64.13.59A1.14,1.14,0,0,0,23.21,33.73Z"/><path class="cls-65" d="M26.8,31.11c-1.28.78-1.12,1.76-.54,2.38a1.82,1.82,0,0,0,2.46,0A1.8,1.8,0,0,0,29.2,31,1.47,1.47,0,0,0,26.8,31.11Z"/><path class="cls-66" d="M26.79,31.11c-.86.48-1.18,1.26-.79,1.76s1.45.3,2.08-.21,1-1.36.71-1.89S27.46,30.31,26.79,31.11Z"/><path class="cls-67" d="M27.68,31.52c-.16.2-.28.5-.15.61s.43-.07.6-.29.28-.49.15-.61S27.85,31.3,27.68,31.52Z"/><path class="cls-68" d="M27.21,31.47c.19-.7.41-1.54.09-1.19a1.85,1.85,0,0,0-.55.85,1.33,1.33,0,0,0-1-.1,1.39,1.39,0,0,0,.74.55,3.33,3.33,0,0,0-.51.48.59.59,0,0,0,.52,0A2.64,2.64,0,0,0,27.21,31.47Z"/><path class="cls-65" d="M26.15,34.23c-1.37.83-1.19,1.88-.58,2.53a1.93,1.93,0,0,0,2.63,0,1.91,1.91,0,0,0,.51-2.65A1.57,1.57,0,0,0,26.15,34.23Z"/><path class="cls-66" d="M26.14,34.23c-.91.51-1.25,1.34-.84,1.87s1.54.33,2.21-.21,1.1-1.46.76-2S26.86,33.38,26.14,34.23Z"/><path class="cls-67" d="M27.15,34.89c-.19.22-.34.54-.21.67s.47-.07.67-.31.35-.53.22-.66S27.35,34.66,27.15,34.89Z"/><path class="cls-68" d="M26.46,34.59c.64,0,1.1-.37,1-.45-.26-.32-.81,0-.77-.07.32-.41.48-1.07.17-.84a2.21,2.21,0,0,0-.75.82,1.43,1.43,0,0,0-1-.34,1.39,1.39,0,0,0,.66.71,3.78,3.78,0,0,0-.63.41.88.88,0,0,0,.62.14A1.37,1.37,0,0,0,26.46,34.59Z"/><path class="cls-65" d="M22.14,36.41c-1.4.85-1.22,1.92-.6,2.59a2,2,0,0,0,2.69,0,2,2,0,0,0,.53-2.71A1.6,1.6,0,0,0,22.14,36.41Z"/><path class="cls-66" d="M22.13,36.41c-.94.52-1.28,1.37-.87,1.92s1.59.33,2.27-.22,1.13-1.49.78-2.06S22.86,35.54,22.13,36.41Z"/><path class="cls-67" d="M23.16,37.09c-.19.22-.35.55-.22.68s.49-.07.7-.31.35-.55.21-.68S23.37,36.85,23.16,37.09Z"/><path class="cls-68" d="M22.4,36.86c.64.13,1.19-.11,1.14-.21-.17-.38-.81-.18-.75-.25.42-.34.73-.95.37-.8a2.23,2.23,0,0,0-.94.64,1.42,1.42,0,0,0-.9-.57,1.46,1.46,0,0,0,.48.87,3.07,3.07,0,0,0-.72.25.89.89,0,0,0,.58.28A1.39,1.39,0,0,0,22.4,36.86Z"/><path class="cls-65" d="M25.27,37.35c-1.41.85-1.23,1.92-.6,2.59a2.14,2.14,0,0,0,3.21-2.72A1.59,1.59,0,0,0,25.27,37.35Z"/><path class="cls-66" d="M25.25,37.35c-.93.52-1.28,1.37-.86,1.92S26,39.6,26.66,39s1.13-1.49.78-2.06S26,36.48,25.25,37.35Z"/><path class="cls-67" d="M26.22,37.8c-.17.22-.3.54-.16.66s.47-.07.65-.31.31-.54.17-.67S26.41,37.56,26.22,37.8Z"/><path class="cls-68" d="M25.73,37.48a.71.71,0,0,0,.16-.41c.05-.35-.07-.51-.19-.4a1.18,1.18,0,0,0-.41.68.77.77,0,0,0-.87,0,.91.91,0,0,0,.68.49,4.6,4.6,0,0,0-.46.53.64.64,0,0,0,.53,0,.91.91,0,0,0,.37-.38.67.67,0,0,0,.85,0C26.41,37.66,26,37.36,25.73,37.48Z"/><path class="cls-69" d="M25.51,37.4l-.23.14a6.46,6.46,0,0,1-.84-2,5.87,5.87,0,0,1-1.58,2.95l-.18-.21a6.08,6.08,0,0,0,1.63-3.5c0-.21,0-.42,0-.63-1.12.78-1.87,1.3-1.92,2.31h-.27c.06-1.15.89-1.73,2.05-2.53l.14-.1a10.62,10.62,0,0,1,.44-2.66h0a3,3,0,0,0-1.54,2.38H22.9c.06-1.24.75-2,1.94-2.8A17.46,17.46,0,0,1,26,27.91a2.26,2.26,0,0,0-1.79,2.19l-.27,0a2.56,2.56,0,0,1,2.22-2.53c.23-.43.47-.85.74-1.27l.23.14A19.88,19.88,0,0,0,25.77,29a3.31,3.31,0,0,0,1.23,2l-.16.22a3.54,3.54,0,0,1-1.25-1.83A15.76,15.76,0,0,0,25,31.26l0,.13a5.38,5.38,0,0,0,1.44,2.76l-.18.19A5.33,5.33,0,0,1,24.79,32a8.48,8.48,0,0,0-.2,2.83h0s0,.08,0,.12A6.33,6.33,0,0,0,25.51,37.4Z"/><path class="cls-70" d="M.76,25.29c.2.87,3.08,3,4,3.44a5.42,5.42,0,0,0,3.72.64A2.6,2.6,0,0,0,10,28.51a2.53,2.53,0,0,0,.47-2.18,6,6,0,0,0-1.11-2.47c-1.91-1.73-3.22-3.12-6.14-2.81-1.63.16-1.82-.27-3.13,1.75C-.32,23.46.67,24.89.76,25.29Z"/><path class="cls-71" d="M.76,25.29c.2.87,3.08,3,4,3.44a5.81,5.81,0,0,0,2.17.7c-.24-.39-1.11-.23-1.78-.93a7.3,7.3,0,0,1-1-1c-.27-.4.19-.88-.44-1.25-1.27-.75-1.52-1.53-1.47-1.53,1.12.12,2.33-.39,2.22-.55a1,1,0,0,0-.81-.3c-.26,0-.68.26-.78.15-.28-.27-.89-.3-.83-.41a1.32,1.32,0,0,1,1.29-.72c.31,0,1.32.1,1.13-.16a3.79,3.79,0,0,0-1.67-1.05c-.25-.12-.38-.4-.64-.53-.73.06-1.1.25-2,1.69C-.32,23.46.67,24.89.76,25.29Z"/><path class="cls-72" d="M9.06,29.21a2.42,2.42,0,0,0,1.43-2.88,6,6,0,0,0-1.11-2.47c-1.91-1.73-3.22-3.12-6.14-2.81-1.63.16-1.82-.27-3.13,1.75l0,.05a.36.36,0,0,0,.18.08,1.83,1.83,0,0,0,1.11-.17c.39-.18.59-.67,1-.75a1.92,1.92,0,0,1,1.42.26,29.21,29.21,0,0,1,2.73,2.11,11.44,11.44,0,0,0,1.36.95,1.81,1.81,0,0,1,.84.92c.24.71.65.86.88,1.44a.93.93,0,0,1-.18.84C9.36,28.63,9,29,9.06,29.21Z"/><path class="cls-71" d="M.79,24.77c-.07-.13.4.06.54.15a5.79,5.79,0,0,0,.9.54,1.92,1.92,0,0,0,.52.16,4.45,4.45,0,0,0,1.89-.1,3.3,3.3,0,0,1,1.78-.33,2,2,0,0,1,.63.37c.25.25-.22.28-.47.33a13.06,13.06,0,0,1-2.24.64,4.92,4.92,0,0,1-1-.14A2.36,2.36,0,0,1,2.08,26c-.2-.18-.48-.45-.67-.64S1.15,25.14,1,25A1,1,0,0,1,.79,24.77Z"/><path class="cls-72" d="M1.17,25.08c-.06-.13.4.06.54.16a6.59,6.59,0,0,0,.9.53,2,2,0,0,0,.53.16A4.26,4.26,0,0,0,5,25.83a4,4,0,0,0,.68-.29,1.33,1.33,0,0,1,1.2,0,2.35,2.35,0,0,1,.53.39c.25.25-.21.25-.47.31a13.69,13.69,0,0,1-2.24.63,4.41,4.41,0,0,1-1-.14,2.39,2.39,0,0,1-1.23-.44c-.2-.18-.48-.45-.67-.64s-.26-.17-.42-.32A1,1,0,0,1,1.17,25.08Z"/><path class="cls-71" d="M1.93,26.4a16.35,16.35,0,0,0,1.65,1.23,7,7,0,0,0,1,.37,3.37,3.37,0,0,0,1.07.23,5.48,5.48,0,0,0,1.45-.17,9.39,9.39,0,0,0,1-.29c.06-.07,0-.24-.09-.29a1,1,0,0,0-.49-.28,2.18,2.18,0,0,0-.72,0c-.32.05-.62.19-.94.24a2.56,2.56,0,0,1-.87.06,4.7,4.7,0,0,1-.74-.18c-.28-.09-.57-.11-.84-.21s-.86-.62-1.29-.75C2,26.32,2,26.36,1.93,26.4Z"/><path class="cls-72" d="M2.47,27a5.63,5.63,0,0,0,.77.54c.18.12.33.28.46.35a5.67,5.67,0,0,0,1,.45,3.52,3.52,0,0,0,1.07.22,5.92,5.92,0,0,0,1.45-.16,9.32,9.32,0,0,0,1-.3c.06-.06,0-.23-.1-.29a1,1,0,0,0-.49-.28,1.93,1.93,0,0,0-.72,0c-.32,0-.62.19-.94.24a2.77,2.77,0,0,1-.86.05,3.9,3.9,0,0,1-.75-.18c-.27-.09-.57-.11-.84-.21a4.69,4.69,0,0,1-.83-.5,2.28,2.28,0,0,0-.45-.25C2.07,26.57,2.35,26.84,2.47,27Z"/><path class="cls-72" d="M.73,24a6.31,6.31,0,0,0,.78.39c.17.09.33.21.45.26a5.34,5.34,0,0,0,1,.27,1.15,1.15,0,0,0,.89-.09,8.28,8.28,0,0,0,.84-.4c0-.06-.12-.17-.19-.22a.75.75,0,0,0-.41-.22,1.29,1.29,0,0,0-.65.08c-.25.13-.31.37-.9.26-.26-.05-.53,0-.79-.09A4.53,4.53,0,0,1,1,23.85a1.88,1.88,0,0,0-.44-.17C.32,23.64.61,23.86.73,24Z"/><path class="cls-73" d="M9.92,27.25c-.11-.15-.22-.61-.32-.77-.22-.35-.47-.48-.64-.85a6.34,6.34,0,0,0-.31-1,1,1,0,0,0-.59-.45c-.44-.11-.42.24-.85-.05s-1.13-.91-1.14-1.08.16-.52-.62-1c-.2-.11-.33,0-.55,0A8.55,8.55,0,0,1,4,21.68c-.21-.06-.11-.15-.11-.15a9.73,9.73,0,0,1,1.62.35,3.73,3.73,0,0,1,1,.74c.2.18.23.56.45.72.48.34.68.13.8.17a10.49,10.49,0,0,1,1,.76c0,.05,0,.42.16.65s.25.54.25.53c.28-.2.35.38.49.69.06.12.12.24.17.37a5.45,5.45,0,0,1,.14.58C10,27.23,10.12,27.54,9.92,27.25Z"/><path class="cls-74" d="M22.38,51.36l2.74-4.6a.83.83,0,0,0-.29-1.13h0a.82.82,0,0,0-1.13.29L21,50.51a.82.82,0,0,0,.28,1.13h0A.83.83,0,0,0,22.38,51.36Z"/><path class="cls-75" d="M24.43,45.77a.51.51,0,0,0-.52.17L21.1,50.68a.54.54,0,0,0,.09.58,21.12,21.12,0,0,1,1.52-2.72C23.48,47.24,24.26,45.92,24.43,45.77Z"/><path class="cls-74" d="M23.9,51.15l2.75-4.59a.84.84,0,0,0-.29-1.14h0a.84.84,0,0,0-1.14.29L22.48,50.3a.84.84,0,0,0,.29,1.14h0A.83.83,0,0,0,23.9,51.15Z"/><path class="cls-75" d="M26,45.56a.51.51,0,0,0-.52.18l-2.81,4.73a.57.57,0,0,0,.08.59,21.59,21.59,0,0,1,1.52-2.73A32.35,32.35,0,0,1,26,45.56Z"/><path class="cls-74" d="M25.42,50.86l2.74-4.59a.83.83,0,0,0-.28-1.14h0a.84.84,0,0,0-1.14.29L24,50a.84.84,0,0,0,.29,1.14h0A.83.83,0,0,0,25.42,50.86Z"/><path class="cls-75" d="M27.47,45.27a.53.53,0,0,0-.52.18l-2.8,4.74a.54.54,0,0,0,.08.58,19.8,19.8,0,0,1,1.52-2.72C26.53,46.74,27.3,45.42,27.47,45.27Z"/><path class="cls-74" d="M27,50.65l2.74-4.59a.83.83,0,0,0-.29-1.13h0a.82.82,0,0,0-1.13.28l-2.74,4.6a.82.82,0,0,0,.28,1.13h0A.83.83,0,0,0,27,50.65Z"/><path class="cls-75" d="M29,45.06a.53.53,0,0,0-.52.18L25.67,50a.54.54,0,0,0,.09.58,20.43,20.43,0,0,1,1.52-2.72C28.05,46.53,28.83,45.22,29,45.06Z"/><path class="cls-74" d="M28.49,50.36l2.74-4.59A.82.82,0,0,0,31,44.64h0a.83.83,0,0,0-1.14.28l-2.74,4.59a.84.84,0,0,0,.29,1.14h0A.83.83,0,0,0,28.49,50.36Z"/><path class="cls-75" d="M30.55,44.77A.54.54,0,0,0,30,45l-2.8,4.74a.56.56,0,0,0,.08.58,21.76,21.76,0,0,1,1.52-2.72C29.6,46.24,30.37,44.93,30.55,44.77Z"/><polygon class="cls-76" points="12.72 39.05 12.82 39.13 21.1 48.04 9.54 43.61 9.45 43.54 11.01 39.46 12.72 39.05"/><polygon class="cls-77" points="21.09 48.05 18.59 50.82 9.49 43.58 12.09 41.06 21.09 48.05"/><polygon class="cls-78" points="21.76 45.99 21.09 48.05 12.37 40.69 12.74 39.06 21.76 45.99"/><polygon class="cls-46" points="12.73 39.05 11.14 39.38 9.41 41.78 9.45 43.54 11.96 40.76 11.45 39.63 12.68 39.15 12.73 39.05"/><polygon class="cls-77" points="11.44 39.96 9.42 42.12 8.67 41.44 10.53 39 11.44 39.96"/><polygon class="cls-46" points="11.42 39.94 10.53 39 10.73 38.91 11.7 39.37 11.42 39.94"/><polygon class="cls-46" points="13.27 42.94 11.55 44.59 15.79 47.81 17.53 46.26 13.27 42.94"/><path class="cls-79" d="M18.59,42.79l4.62-3,4.93,2.6c.22,1.58-1.37,3.34-1.37,3.34a7.15,7.15,0,0,1-5.93,2.77C19.88,45.93,19.25,44.48,18.59,42.79Z"/><path class="cls-80" d="M26.21,45.68,22.92,40l.29-.19,3.6,5.89c-2.89,3.62-6,2.82-6,2.82l-.15-.4a5.22,5.22,0,0,0,2.78-.34A7.2,7.2,0,0,0,26.21,45.68Z"/><path class="cls-78" d="M28.14,42.39c.22,1.58-1.37,3.34-1.37,3.34l-3.56-5.94Z"/><path class="cls-81" d="M22.75,46.17c.13.53-.06,1.06-.43,1.17s-.76-.23-.89-.76.07-1.07.43-1.18S22.63,45.63,22.75,46.17Z"/><path class="cls-81" d="M24.63,45c.07.3,0,.6-.24.66s-.43-.13-.5-.43,0-.6.24-.66S24.56,44.71,24.63,45Z"/><path class="cls-81" d="M22.89,44.17c.05.21,0,.42-.17.46s-.3-.09-.35-.3a.38.38,0,0,1,.17-.46C22.68,43.83,22.84,44,22.89,44.17Z"/><path class="cls-81" d="M21.44,45.86a.52.52,0,0,1-.23.63c-.2.06-.42-.12-.49-.41a.52.52,0,0,1,.24-.64C21.15,45.38,21.37,45.56,21.44,45.86Z"/><path class="cls-81" d="M23,42.05a.52.52,0,0,0,0-.11c-.06-.26-.24-.45-.47-.43h-.05a.51.51,0,0,0-.28.55.5.5,0,0,0,0,.12.56.56,0,0,0,0,.12.44.44,0,0,0-.11.35s0,.05,0,.08a.37.37,0,0,0,.36.32h0a.38.38,0,0,0,.22-.42v0A.53.53,0,0,0,23,42.05Z"/><path class="cls-81" d="M21.19,43.55c.09.39-.05.77-.31.85s-.55-.17-.64-.55a.69.69,0,0,1,.31-.84C20.81,42.92,21.1,43.17,21.19,43.55Z"/><path class="cls-2" d="M27.53,53.1a.63.63,0,0,1-.2.67.64.64,0,0,1-.2.11h0l-.56.18L22.3,55.42h0l-.25.07a.55.55,0,0,1-.4,0h0a.64.64,0,0,1-.34-.38.63.63,0,0,1,.41-.78l.3-.09h0l3-.95h0l.75-.24h0l1.05-.33h0a.61.61,0,0,1,.72.35S27.52,53.08,27.53,53.1Z"/><path class="cls-2" d="M17.64,45.49a.45.45,0,0,0-.23,0l-.12,0-.27.09h0l-.36.12-.1,0-.41.14-.31.1-1.48.5-.36.12-.51.17-.58.19h0l-.18.06a.37.37,0,0,0-.24.47.35.35,0,0,0,.08.13l0,0a.4.4,0,0,0,.38.09l.63-.22h0l.6-.2,1.24-.42h0l1-.35.38-.12.39-.14h.05l.34-.12.08,0,0,0,0,0a.22.22,0,0,0,.05-.08.37.37,0,0,0-.22-.52Zm3.07,2.44h0a.27.27,0,0,0-.14-.07h-.11a.18.18,0,0,0-.1,0l-.21.07L20,48l-.51.17-.17.06-.33.11-.49.17L17.08,49l-.35.11h0l-.18.06-.66.23h0l-.2.07a.38.38,0,0,0-.24.47.39.39,0,0,0,.45.25h0l.65-.22h0l2.59-.87.82-.27.13-.05h0l.1,0,.37-.13a.24.24,0,0,0,.11-.06h0l0,0a.29.29,0,0,0,.08-.18h0a.44.44,0,0,0,0-.16A.3.3,0,0,0,20.71,47.93Zm3.15,2.32,0,0a.38.38,0,0,0-.17-.08h0a.31.31,0,0,0-.16,0l-.41.13h0l-.06,0h0l-.35.12h0l-.14.05-.14,0h0l-.13,0h0l-.17.05-.14,0-.59.2-.09,0L20.9,51h0l-.31.1h0l-.21.07-.08,0-1.45.49h-.06a.37.37,0,0,0-.23.47.36.36,0,0,0,.4.25H19l.51-.17h0l.59-.2.22-.08h0l.39-.13.58-.19h0l.3-.11.13,0h0l.1,0,.17-.06h0l.34-.12h0l.07,0,.2-.06.39-.13.11,0,.19-.06.06,0h0l.27-.1h0l0,0h0l0,0a.38.38,0,0,0,.13-.25s0,0,0-.06v0h0s0-.05,0-.07A.42.42,0,0,0,23.86,50.25Z"/><path class="cls-2" d="M15.3,44l-.2.11L10,45.8a.62.62,0,0,1-.39-1.17l5.09-1.71a.61.61,0,0,1,.78.39A.62.62,0,0,1,15.3,44Z"/><path class="cls-2" d="M22.23,55.37a.63.63,0,0,1-.78,0L9.27,45.71a.62.62,0,0,1,.77-1l12.18,9.68a.61.61,0,0,1,.1.87A.76.76,0,0,1,22.23,55.37Z"/><path class="cls-2" d="M38.89,29.25l-.2.2-.37.38-.32-.5-.54-.84h0l-.08-.12-.05-.08h0l-.06-.09h0L37,27.71l-.22-.34-.34-.54h0l0-.06h0l-.07-.11h0L35.84,26a.77.77,0,0,0,0,.15v.14s0,.06,0,.1,0,0,0,.06,0,0,0,0a1.32,1.32,0,0,0,.17.41l.39.61h0l.31.47.42.65.09.14.09.13.22.35h0l0,0h0v.06a.36.36,0,0,1,0,.11l0,.07a.6.6,0,0,1-.07.14h.18l.09,0,.09,0h0a.56.56,0,0,1,0,.12l0,.08,0,.11,0,.1v0a.43.43,0,0,1,0,.11h0s0,0,0,0l0,0,0,0,0,0,0,0a.09.09,0,0,1-.06,0l0,0h0l-.45.46c0,.11,0,.21,0,.31v.08s0,0,0,.08l.06.09.15-.12a1.2,1.2,0,0,1,.17-.11.1.1,0,0,1,.05,0l0,0a.34.34,0,0,1,.12-.06l.11-.05h0l.1,0,.12-.05a899092960352.36,899092960352.36,0,0,1,0-.06.62.62,0,0,0,0-.13v-.07h0a.65.65,0,0,0,0-.13.28.28,0,0,0,.25-.08l0,0h0s0,0,0,0h0v0h0v-.06s0,0,0,0v0a.41.41,0,0,0,0-.16V30.1h0l.09,0,.06,0,0,0h0l0,0,.05,0,0,0,0,0,0,0,0-.06,0,0s0,0,0,0a599395306901.78,599395306901.78,0,0,1,0-.12h0ZM36.4,25.12l-.09.06-.07.06,0,0,0,0,0,0,0,.06,0,0,0,.06v0a.22.22,0,0,0-.05.08.56.56,0,0,0,0,.08l.48-.54Zm.85,6.15c0-.1,0-.2,0-.31l-.15.15-.55.56-.06.06h0l0,0,.05,0,0,0h.09l0,.08h0l.06-.09H37l.06-.07.06-.07.06-.06.08-.07h.09l0-.05-.06-.09s0-.05,0-.08Zm-1.3,1,.21,0h0a1.1,1.1,0,0,1,0-.16h0v0h0v0h0v0a.08.08,0,0,0,0,0v0Zm-.6-.39h0l-.09-.13h0l0-.07h0l-.11-.16-.28-.39h0L34.76,31l0,0s0,0,0,0l-.53.54.16.23h0l.11.15.06.09.09.13h0l.2.06h0a.08.08,0,0,1,0,0,.14.14,0,0,1,0-.06L35,32l0-.07h0L35,32l0,.07s0,0,0,.06l0,.06-.09.23.12.16.43-.35,0-.1v0h0l.19,0Zm-.4.72.28.4-.64.64v0l-.15.15h0l0,0-.08.08h0l-.24.24.09.06.36.24.15.09,0,0,.29-.3.05,0,0,0,.59-.59.11.15h0c0-.09-.05-.18-.08-.28s0-.12-.05-.18v0a.19.19,0,0,0,0-.08.64.64,0,0,0,0-.07s0,0,0-.07,0,0,0-.06,0-.05,0-.07a.29.29,0,0,0,0-.09l0-.1a2.17,2.17,0,0,1-.07-.24,1.74,1.74,0,0,0,0-.22s0,0,0-.05Zm.07-.65h0L35,32l-.06.13a.14.14,0,0,0,0,.06.08.08,0,0,0,0,0h0l-.2-.06.18.25.09-.23,0-.06s0,0,0-.06L35,32l0-.07ZM32.59,34l-.18-.23h0l-.16-.21-.47-.6-.05-.07h0l-.26-.35c0,.07,0,.13,0,.2v.08a.06.06,0,0,1,0,0c0,.06,0,.12,0,.18a.22.22,0,0,0,0,.08l0,.21v0h0a.13.13,0,0,0,0,.06,1.42,1.42,0,0,1,0,.2h0l.16.2h0l.12.15.1.13.38.5.08.11,0-.07.05-.07a3,3,0,0,1,.34-.42.19.19,0,0,1,0-.08Zm-2.93,2.2-.28-.33-.21-.25L29,35.44l-.08-.1h0l-.16-.19,0,.1s0,.09,0,.13l-.05.11h0a.9.9,0,0,0-.05.09l-.09.14,0,0-.08.11.16.2.08.1.28.31h0l.22.27.35.42a.08.08,0,0,0,0,0l.07-.06.1-.1.08-.09v0a.41.41,0,0,0,.09-.1l.12-.14h0Zm.34.4h0l-.12.14a.41.41,0,0,1-.09.1v0l-.08.09-.1.1-.07.06a.08.08,0,0,1,0,0l.47.55c.14-.26.26-.5.37-.73Zm-2.43-1.37-.05.05,0,0s0,0,0,0a.1.1,0,0,0,0,0h0a.35.35,0,0,1-.09.07h0l-.09.06h0l-.07,0-.06,0h0l-.14.07-.08,0-.07,0h0l-.16.05-.06,0-.09,0-.11,0h-.22L26,36l-.07.11h0a.41.41,0,0,0-.05.09h0l0,.07a.3.3,0,0,0,0,.08h0l.05,0,.05,0,.06,0h0l.08,0,.05,0,.07,0h0v0a.21.21,0,0,1,0,.06l0,.06h0l0,.06h0l.17,0h0l-.07,0h0l-.08,0h0l-.06,0h0l0,0h0l-.08,0h-.43l-.21.14-.08.07,0,0,0,0-.08.07,0,0h0a.76.76,0,0,1-.08.11l-.09.1h0l0,0h0s0,0,0,0v0h.08l0,0h.3l.1,0,.07,0,.08,0h0l.07,0h0l.26-.06h0l.13,0h.06l-.12-.13-.09-.09h0l.55-.62h0l0,0h0l.08-.08.35-.41h0l.12-.14.18-.21h0l.32-.37.29-.34A.3.3,0,0,1,27.57,35.23ZM25,43.76h0l-.13-.23,0,0-.54.54.51.56.46-.46.08-.08Zm-.76-2L24,41.31l-.15-.25-.24.25h0l-.16.16.14.14,0,0,0,0,.34.33.05.05,0-.06Zm14.89-12.3h0L39,29.28l0-.07h0l0,.05.18.36h0a599395306901.78,599395306901.78,0,0,0,0,.12s0,0,0,0l0,0,0,.06,0,0,0,0,0,0-.05,0,0,0h0l0,0-.06,0-.09,0h0v.07a.41.41,0,0,1,0,.16v0s0,0,0,0v.06h0v0h0s0,0,0,0h0l0,0a.28.28,0,0,1-.25.08.65.65,0,0,1,0,.13l.18-.05.09,0h0l.09.14,0,.06H39L39,31l.19.29.3.46-.29-.46-.07-.1L39,30.85h0l-.15-.23-.1-.15.37-.37.13-.13.12-.13Zm-1.27,2h0l-.08,0-.08,0h0l-.09,0h0l-.11,0h0l-.09,0h-.09l-.08.07-.06.06-.06.07-.06.07h-.26l-.06.09h0l0-.08h-.09l0,0-.05,0-.16.17h0v0a.08.08,0,0,1,0,0v.07h0v0h0a1.1,1.1,0,0,0,0,.16h0l-.21,0-.19.18-.2-.28-.19,0h0v0l0,.1s0,0,0,.05a1.74,1.74,0,0,1,0,.22,2.17,2.17,0,0,0,.07.24l0,.1a.29.29,0,0,1,0,.09s0,0,0,.07,0,0,0,.06,0,.05,0,.07a.64.64,0,0,1,0,.07.19.19,0,0,1,0,.08v0c0,.06,0,.12.05.18s0,.19.08.28l.11.15h.31v0h.18l.16,0,.05,0,0,0,.09.08h-.05l-.08-.1L36.22,34v.07l0,.09,0,.09,0,.09v.07l0,.07h0l0,0,0,.05h0a.31.31,0,0,0,0,.1l.13.2.07.09.06.07h0l.07.08.06.06.06.05.09.07a.48.48,0,0,0,.11.09l0,0,.1.06.13.08.06,0,.06,0h.06l.07,0h0l.08,0h0l.21-.19-.44-.63-.08-.1h0l-.29-.42-.18-.24L36.88,34h0l-.68-1,.29-.29h0l.41-.4.55-.56.07-.08h0l0,0h0l.24-.24h0Zm-3.15,3.12-.15-.09-.36-.24-.09-.06,0,0,.19.3.23.35.15-.16.1-.1Zm-.2.29-.23-.35-.19-.3-.16.15-.1.1-.49.5-.11-.15h0l-.53-.67,0,0a.19.19,0,0,0,0,.08,3,3,0,0,0-.34.42l-.05.07,0,.07.11.14.3.38.18.24-.24.23v.06a.19.19,0,0,0,0,.08h0v.07h0l0,.2-.06.09h0l-.07.09-.09.11,0,0h0c-.13.16-.27.3-.39.45h0l-.05.07-.05.07h0l0,.05h0l.15.21.54-.55,0,0,.64-.65.64.83.16-1-.26-.33.16-.17ZM30,36.6h0l-.12.14a.41.41,0,0,1-.09.1v0l-.08.09-.1.1-.07.06a.08.08,0,0,1,0,0l.47.55c.14-.26.26-.5.37-.73Zm-.17,2.1h0l-.11-.14-.18.18h0l0,0h0l-.33.34-.56.57H29l.12,0h.07l.09,0a.55.55,0,0,1,.18.06l.05,0,0,0,.09-.09.54-.55Zm-.3,3.86a1.21,1.21,0,0,0-.05-.14h0s0-.09,0-.14l-.05-.16q-.12-.37-.27-.9l-.05-.2h0l-.34-.37.19-.19.64-.65,0,0-.05,0a.55.55,0,0,0-.18-.06h-.16l-.12,0h-.39l0,0-.38.39L28,39.82h0l-.38-.41-.53-.58-.21-.24-.3-.32h0L26.26,38h0l-.33-.35h0l-.05.07,0,.08,0,.07,0,.08h.05l.07,0h0l.08.06h0l-.11,0-.1,0h0s0,0-.05,0l-.09,0a.52.52,0,0,0,0,.11l.42.47.16.17.36.38,0,0h0l.37.4.33.37h0l.16.17h0l.25.27-.15.15h0l-.28.29-.53.54h0l-.61.62.46.24.2.11,0,0,.42-.42.53-.54.45-.46,1,1.1.21.22h0l.17.18v0A.36.36,0,0,0,29.53,42.56Zm5.14-8-.15-.09-.36-.24-.09-.06,0,0,.19.3.23.35.15-.16.1-.1Zm-.2.29-.23-.35-.19-.3-.16.15-.1.1-.49.5-.11-.15h0l-.53-.67,0,0a.19.19,0,0,0,0,.08,3,3,0,0,0-.34.42l-.05.07,0,.07.11.14.3.38.18.24-.24.23v.06a.19.19,0,0,0,0,.08h0v.07h0l0,.2-.06.09h0l-.07.09-.09.11,0,0h0c-.13.16-.27.3-.39.45h0l-.05.07-.05.07h0l0,.05h0l.15.21.54-.55,0,0,.64-.65.64.83.16-1-.26-.33.16-.17ZM29.83,38.7h0l-.11-.14-.18.18h0l0,0h0l-.33.34-.56.57H29l.12,0h.07l.09,0a.55.55,0,0,1,.18.06l.05,0,0,0,.09-.09.54-.55Zm-.3,3.86a1.21,1.21,0,0,0-.05-.14c0-.1-.06-.2-.1-.31l-.26-.9a1.94,1.94,0,0,0-.05-.2l-.34-.37.19-.19.64-.65,0,0-.05,0a.55.55,0,0,0-.18-.06h-.16l-.12,0h-.39l0,0-.38.39L28,39.82h0l-.38-.41-.53-.58-.21-.24-.3-.32-.53.54.16.17.36.38,0,0h0l.37.4.33.37h0l.16.17h0l.25.27-.15.15h0l-.28.29-.53.54h0l-.61.62.46.24.2.11,0,0,.42-.42.53-.54.45-.46,1,1.1.21.22h0l.17.18v0A.36.36,0,0,0,29.53,42.56ZM25,43.76h0l-.17-.19-.54.54.51.56.46-.46.08-.08Zm-1.39-2.11,0,0,.34.33h0l.26-.27L24,41.31l-.15-.25-.24.25h0l-.16.16.14.14Zm6.42-5h0Zm-.82-1L29,35.44l-.08-.1h0l-.16-.19h0l0,.1s0,.09,0,.13l-.05.11h0a.9.9,0,0,0-.05.09l-.09.14,0,0a.76.76,0,0,1-.08.11l.16.2.08.1.28.31h0l.22.27.53-.54-.28-.33Zm.49.58-.53.54.35.42a.08.08,0,0,0,0,0l.07-.06.1-.1.08-.09v0a.41.41,0,0,0,.09-.1l.12-.14h0Zm-2.09-1-.05.05,0,0s0,0,0,0a.1.1,0,0,0,0,0h0a.35.35,0,0,1-.09.07h0l-.09.06h0l-.07,0-.06,0h0l-.14.07-.08,0-.07,0h0l-.16.05.23.29.18-.21h0l.32-.37.29-.34h0l0,0-.09.1Zm-1.3,1.51,0,0,0,0ZM35,32.57l.28.4-.64.64v0l-.15.15h0l0,0-.08.08h0l-.24.24.09.06.36.24.15.09,0,0,.29-.3.05,0,0,0,.59-.59.11.15h0c0-.09-.05-.18-.08-.28s0-.12-.05-.18v0a.19.19,0,0,0,0-.08.64.64,0,0,0,0-.07s0,0,0-.07,0,0,0-.06,0-.05,0-.07a.29.29,0,0,0,0-.09l0-.1a2.17,2.17,0,0,1-.07-.24,1.74,1.74,0,0,0,0-.22s0,0,0-.05Zm0-.39,0-.06s0,0,0-.06L35,32l0-.07h0L35,32l-.06.13a.14.14,0,0,0,0,.06.08.08,0,0,0,0,0l-.2-.06h0l.18.25Zm-2.51,1.59h0l-.16-.21-.47-.6-.05-.07h0l-.26-.35h0a1.34,1.34,0,0,1,0,.2v.08a.06.06,0,0,1,0,0c0,.06,0,.12,0,.18a.22.22,0,0,0,0,.08l0,.21v0h0a.13.13,0,0,0,0,.06,1.42,1.42,0,0,1,0,.2h0l.16.2h0l.12.15.1.13.38.5.08.11,0-.07.05-.07a3,3,0,0,1,.34-.42.19.19,0,0,1,0-.08l0-.07Zm4.84-2.5c0-.1,0-.2,0-.31l-.15.15-.55.56-.06.06h0l0,0,.05,0,0,0h.09l0,.08h0l.06-.09H37l.06-.07.06-.07.06-.06.08-.07h.09l0-.05-.06-.09s0-.05,0-.08Zm-1.09,1h0a1.1,1.1,0,0,1,0-.16h0v0h0v0h0v0a.08.08,0,0,0,0,0v0l-.29.3Zm-.81-.45-.09-.13h0l0-.07h0l-.11-.16-.28-.39h0L34.76,31l0,0s0,0,0,0l-.53.54.16.23h0l.11.15.06.09.09.13h0l.2.06a.08.08,0,0,1,0,0,.14.14,0,0,1,0-.06L35,32l0-.07h0L35,32l0,.07s0,0,0,.06l0,.06-.09.23.12.16.43-.35,0-.1v0h0l.19,0-.21-.29Zm3.54-2.59-.2.2-.37.38-.32-.5-.54-.84h0l-.08-.12-.05-.08h0l-.06-.09h0L37,27.71l-.22-.34-.34-.54h0l0-.06h0l-.07-.11h0L35.84,26a.77.77,0,0,0,0,.15v.14s0,.06,0,.1,0,0,0,.06,0,0,0,0a1.32,1.32,0,0,0,.17.41l.39.61h0l.31.47.42.65.09.14h0l.09.13.22.35h0l0,0h0v.06a.36.36,0,0,1,0,.11l0,.07a.6.6,0,0,1-.07.14h.18l.09,0,.09,0h0a.56.56,0,0,1,0,.12l0,.08,0,.11,0,.1v0a.43.43,0,0,1,0,.11h0s0,0,0,0l0,0,0,0,0,0,0,0a.09.09,0,0,1-.06,0l0,0h0l-.45.46c0,.11,0,.21,0,.31v.08s0,0,0,.08l.06.09.15-.12a1.2,1.2,0,0,1,.17-.11.1.1,0,0,1,.05,0l0,0a.67.67,0,0,1,.12-.06l.11-.05h0l.1,0,.12-.05a899092960352.36,899092960352.36,0,0,1,0-.06.62.62,0,0,0,0-.13v-.07h0a.65.65,0,0,0,0-.13.28.28,0,0,0,.25-.08l0,0h0s0,0,0,0h0v0h0v-.06s0,0,0,0v0a.41.41,0,0,0,0-.16V30.1h0l.09,0,.06,0,0,0h0l0,0,.05,0,0,0,0,0,0,0,0-.06,0,0s0,0,0,0a599395306901.78,599395306901.78,0,0,1,0-.12h0ZM36.4,25.12l-.09.06-.07.06,0,0,0,0,0,0,0,.06,0,0,0,.06v0a.22.22,0,0,0-.05.08.56.56,0,0,0,0,.08l.48-.54Zm1.42,6.29h0l-.08,0-.08,0h0l-.09,0h0l-.11,0h0l-.09,0h-.09l-.08.07-.06.06-.06.07-.06.07h-.26l-.06.09h0l0-.08h-.09l0,0-.05,0-.16.17h0v0a.08.08,0,0,1,0,0v.07h0v0h0a1.1,1.1,0,0,0,0,.16h0l-.21,0-.19.18-.2-.28-.19,0h0v0l0,.1s0,0,0,.05a1.74,1.74,0,0,1,0,.22,2.17,2.17,0,0,0,.07.24l0,.1a.29.29,0,0,1,0,.09s0,0,0,.07,0,0,0,.06,0,.05,0,.07a.64.64,0,0,1,0,.07.19.19,0,0,1,0,.08v0c0,.06,0,.12.05.18s0,.19.08.28l.11.15h.31v0h.18l.16,0,.05,0,0,0,.09.08h-.05l-.08-.1L36.22,34v.07l0,.09,0,.09,0,.09v.07l0,.07s0,0,0,0l0,.05h0a.31.31,0,0,0,0,.1l.13.2.07.09.06.07h0l.07.08.06.06.06.05.09.07a.48.48,0,0,0,.11.09l0,0,.1.06.13.08.06,0,.06,0h.06l.07,0h0l.08,0h0l.21-.19-.44-.63-.08-.1h0l-.29-.42-.18-.24L36.88,34h0l-.68-1,.29-.29h0l.41-.4.55-.56.07-.08h0l0,0h0l.24-.24h0Zm1.27-2h0L39,29.28l0-.07h0l0,.05.18.36h0a599395306901.78,599395306901.78,0,0,0,0,.12s0,0,0,0l0,0,0,.06,0,0,0,0,0,0-.05,0,0,0h0l0,0-.06,0-.09,0h0v.07a.41.41,0,0,1,0,.16v0s0,0,0,0v.06h0v0h0s0,0,0,0h0l0,0a.28.28,0,0,1-.25.08.65.65,0,0,1,0,.13l.18-.05.09,0h0l.09.14,0,.06H39L39,31a2.14,2.14,0,0,1,.13.19L39,30.85h0l-.15-.23-.1-.15.37-.37.13-.13.12-.13Zm7.16,1a.38.38,0,0,0-.54,0l-.23.2-.63.57,0,0h0l-.46.41-.11.1h0L44,32l-.25.22,0-.1,0-.06-.1-.16v0h0l-.11-.19L43,31l-1.28-2.24-.48-.84.78-.8h0l.38-.38.22-.23h0L43.2,26l.51-.53a.37.37,0,0,0,0-.53.35.35,0,0,0-.19-.1.37.37,0,0,0-.34.11l-.33.33-.49.5-.34.34-.38.38-.75.77-.48-.84,0-.05L40,25.72l-1.09-1.9-.56-1h0l.13-.15.24-.28h0l1.73-2,.44-.51a.38.38,0,0,0,0-.53l0,0a.38.38,0,0,0-.5.06l-.23.27-.39.46-1.4,1.6-.21.24h0l-.15.16-.17-.3-.32-.55h0L37.3,21l-.38-.66-.13-.23h0l-.46-.8-.88-1.53-.19-.34a.37.37,0,0,0-.39-.18h0a.38.38,0,0,0-.13,0,.34.34,0,0,0-.09.08h0a.4.4,0,0,0-.08.23.34.34,0,0,0,0,.2l.22.37h0l.14.23h0l.17.29h0l1,1.75.06.11.38.66.49.85.06.11.12.2h0l.22.39-.23.26-.43.49-.46.53-.25.29h0l0,0-.56.64h0l-.16.19-.45-.69-.68-1.05-.14-.22,0-.06h0l-.24-.38-.86-1.33h0l-.16-.24L32.61,21a.27.27,0,0,0-.07-.08h0a.36.36,0,0,0-.41-.05h0a.36.36,0,0,0-.16.22.41.41,0,0,0,.05.3l.09.14h0l.2.32.53.82h0l.46.71.43.66.55.86h0l.34.53h0l.23.35-.49.57-.53.6h0l-.3.34-.28.33-.25.29-.16.18-.06.07L32.64,28h0v0l-.21-.29h0l-.3-.43-.54-.76h0v0l-.27-.38h0L31.24,26l-.06-.09h0l-.05-.07,0,0h0l-.89-1.26v0a.38.38,0,0,0-.53-.09l0,0a.37.37,0,0,0-.06.49l.15.21.89,1.26.45.64,1,1.39.2.28-.45.52-.52.6-.15.17-.27.31h0l-.35.4-.23.26L29,29.39l-.22-.29h0l-.25-.32-.73-1a.39.39,0,0,0-.1-.08s0,0,0,0a.34.34,0,0,0-.17,0h0a.36.36,0,0,0-.24.07.38.38,0,0,0-.13.4.38.38,0,0,0,.06.13l0,.06.79,1,.47.61.61.79h0l.19.23h0l.44.57-.3.34h0l-.19.22-.11.12h0l-.4.46-.26.3-.3.35-.09.1-.39.45-.11-.13h0l-.48-.55h0l0,0h0l-.48-.56h0l-.19-.23-.5-.58-.55-.66h0l0,0a.27.27,0,0,0-.12-.09l-.07,0a.37.37,0,0,0-.33.08h0l0,0a.38.38,0,0,0,0,.5h0l.07.08h0l.29.34h0l0,0,.26.3h0l.5.58,0,0h0l.32.38h0l.12.14h0l.22.26,0,0h0l.28.33.06.06h0l.22.25-.32.37,0,0-.46.53-.05.06-.13.14-.23.27-.35.39-.24.28-.09.1-.09.11,0,0-.32-.35h0l-.1-.12h0l-.57-.62h0L24,35.46h0l0-.06-.06-.07-.12-.13-.26-.29-.14-.14-.14-.15L23,34.41h0v0l-.08-.08a.39.39,0,0,0-.17-.11.39.39,0,0,0-.3,0l0,0,0,0a.38.38,0,0,0-.07.47l.05.06h0l.19.21.15.16.05.05h0l.09.1.07.08h0l.43.47.17.19h0l.09.1.06.07h0l.19.21.22.24h0l.42.45.19.22,0,0h0l-.11.14,0,0-.11.12h0l-.39.45-.11.12-.1.12h0l-.1.12h0l0,0h0l-.08.09h0l-.33.38h0l-.38.44h0l-.18.21-.05-.05-.1-.1-.75-.74h0l0,0,0,0-.2-.2h0l-.22-.22h0l0-.05-.53-.53-.07-.06-.34-.35-.19-.18a.38.38,0,0,0-.53,0,.37.37,0,0,0,0,.53l.25.25.19.19.19.19.54.53.18.19h0l0,0,.21.21h0l.36.36.62.62-.2.23-.5.58h0l-.24.27-.33.38-.76.87-.77-.7h0l-.7-.64-.56-.51-.25-.23-.07-.05-.05,0a.36.36,0,0,0-.36-.08h0a.36.36,0,0,0-.17.11.37.37,0,0,0,0,.53l.16.14.21.2.56.51.75.68h0l.73.66-.09.1,0,0-.49.57h0l-.39.45h0l-.68.79-.08.08-.23.27h0a.43.43,0,0,0-.09.26.37.37,0,0,0,.13.27.33.33,0,0,0,.13.07.47.47,0,0,0,.17,0,.45.45,0,0,0,.23-.13l.25-.29h0l.78-.89h0l.15-.17h0l.18-.21.07-.08.43-.49.1-.12,0,0,.48.43h0l.06.05.17.15.39.36.22.2.23.21.31.28h0l.5.45-.25.26-.53.54-.06.05,0,0-.46.46h0l-.41.42-.19.19h0l-.08.09,0,0,0,0a.33.33,0,0,0-.09.27.56.56,0,0,0,0,.12h0a.37.37,0,0,0,.07.12.56.56,0,0,0,.17.09h.13l.09,0h0l.1,0,0,0,.35-.36.38-.39h0l.1-.1h0l0,0h0l.37-.37h0l.49-.5,0,0,.27-.28.44.4.33.3.35.32.15.14h0l.05,0,.06.05h0l0,0,.06,0h0l.31.28,0,0h0l.13.12,0,0,.14.13h0l0,0,.18.17h0l-.15.14-.22.19-.21.19h0l0,0h0l-.08.08h0l-.2.19-.3.26h0l-.12.1h0l-.28.24-.19.18,0,0h0a.39.39,0,0,0-.12.19h0a.42.42,0,0,0,.06.31l0,0h0a.36.36,0,0,0,.17.11h.05a.37.37,0,0,0,.31-.09l.07-.07h0l.24-.22.63-.56.13-.12h0l.43-.39.08-.07h0l.23-.21h0l.1-.08.11.1h0l.19.17,0,0,.31.28.15.14.05.05.14.12,0,0h0l.19.17h0l.31.28.16.14.2.19h0l.05,0,.14.13h0l.35.32.34.3,0,0a.38.38,0,0,0,.53,0,.39.39,0,0,0,0-.54l-.16-.14-.14-.12-.49-.45-.05,0-.2-.17h0l-.2-.19L28,49.74l-.31-.28h0l-.19-.17h0l0,0-.13-.12,0,0-.16-.14-.31-.28h0l0,0-.14-.13.46-.41.11-.1h0l.34-.3.36-.33.09-.08.11-.09.3-.27h0l.25-.23.08.08.07.08,0,0h0l0,0,.19.19,0,0,.3.3.14.14.11.11h0l.1.1h0l.19.18.49.49.17.17h0l0,0,.47.46.35.35a.37.37,0,0,0,.53-.53l-.29-.29-.32-.32-.15-.15L31,48h0l-.67-.65h0l-.17-.17-.21-.2-.14-.14-.32-.32h0l-.22-.22-.06-.06.5-.45h0l.29-.27.57-.5.6-.54,1.15,1.25.85.93.44.48.1.11.22.24a.38.38,0,1,0,.56-.5l-.19-.21-.1-.11-.45-.49-.85-.92-1.17-1.28.23-.2h0l.46-.42.57-.51.72-.64,1.2,1.42.81,1,.21.24h0l.15.16.07.09.3.35a.37.37,0,0,0,.52,0h0a.38.38,0,0,0,0-.53l-.29-.34-.14-.17-.28-.33L36.26,44h0l0,0h0l-.73-.87-.65-.76h0l-.37-.44h0l-.21-.25,0,0,.46-.4.57-.51.54-.49.33-.29.1.12,1.14,1.48h0l.27.35h0l.49.64.4.52.27.35a.37.37,0,0,0,.53.07h0a.38.38,0,0,0,.07-.52l-.29-.36-.4-.53L38,41l-.14-.19h0l-.21-.27-.9-1.17.08-.07.34-.3.2-.19h0l.3-.26.05-.05h0l0,0,.29-.26.14-.12.42-.38.28.41.41.57h0l.57.81.72,1,.38.54,0,0,.13.19.1.14a.38.38,0,0,0,.53.09.39.39,0,0,0,.09-.52l-.2-.28-.08-.11-.38-.54-.72-1L40,38.35l-.41-.58-.37-.51.36-.32.41-.37h0l.15-.14,1-.9.06.09h0l.43.66.38.6.41.63.68,1.06.36.56.16.25.08.12a.38.38,0,0,0,.53.11l0,0a.38.38,0,0,0,.08-.5l-.13-.19L44,38.65l-.36-.56L43.58,38,43,37.08l-.45-.69-.39-.61-.26-.41-.16-.24L41.67,35l0,0,.21-.19.76-.68,0,0,.71-.64h0l.08-.07.39.67h0l.37.65.57,1h0l.27.48h0l.61,1.06,0,0,0,.08h0l.13.23a.39.39,0,0,0,.52.14.37.37,0,0,0,.13-.52L46.5,37h0l-.15-.27h0l-.48-.83-1.06-1.85-.38-.66h0l-.32-.57,1-.9h0l.05-.05h0l.65-.58.39-.35a.38.38,0,0,0,.12-.32A.4.4,0,0,0,46.25,30.43Zm-3.94.8.38.66.18.3h0l0,.06h0l0,.08.1.16.11.2-.81.73-1,.87-.11.09-.1-.16h0l-.33-.51-.1-.14,0-.07-.12-.19-.08-.12-.41-.64-.1-.16-.11-.17-.22-.34-.12-.18-.29-.46-.07-.1L39,30.85h0l-.15-.23-.1-.15.37-.37.13-.13.12-.13h0l0,0,.77-.78.34-.35h0l0-.05.17-.16.39.69Zm-3.17,5-.4.37-.49-.7,0-.07h0l-.05-.06,0,0-.2-.29-.44-.63-.08-.1h0l-.29-.42-.18-.24L36.88,34h0l-.68-1,.29-.29h0l.41-.4.55-.56.07-.08h0l0,0h0l.24-.24h0l.34-.33h0l0,0,.48.75h0l.83,1.29.35.54.06.1.22.33.09.14.27.42.19.29h0l-.06,0h0l0,0h0l-.18.16h-.05l-.65.59ZM39.3,26l.38.66.06.11.6,1-.2.2,0,0-.27.28-.84.85-.05.05h0l0,.05-.2.2-.37.38-.32-.5-.54-.84h0l-.08-.12-.05-.08h0l-.06-.09h0L37,27.71l-.22-.34-.34-.54h0l0-.06h0l-.07-.11h0L35.84,26l-.08-.12.1-.12h0l.06-.06h0l.48-.54h0l.08-.1h0l.21-.23.89-1,.27-.3.45.78Zm-5.1,1.67.53-.6.47-.54,0-.06.82,1.28h0l.34.53.34.53.09.13.17.26.31.48h0l.46.73-.12.12h0l-.45.46-.15.15-.55.56-.06.06h0l0,0-.16.17h0l-.29.3-.19.18-.2-.28-.21-.29h0l-.09-.13h0l0-.07h0l-.11-.16-.28-.39h0L34.76,31l0,0h0l-.42-.6-.09-.12L34,30l-.35-.49h0l-.2-.27h0l-.26-.38h0l.26-.31.23-.26.28-.32Zm-2.87,3.29,0,0,.34-.39.52-.6.29-.33.19-.21,1,1.34.14.21.26.37.19.26.16.23h0l.11.15.06.09.09.13h0l.18.25.12.16.28.4-.64.64v0l-.15.15h0l0,0-.08.08h0l-.24.24,0,0-.16.15-.1.1-.49.5-.11-.15h0l-.53-.67,0,0,0-.07-.18-.23h0l-.16-.21-.47-.6-.05-.07h0l-.26-.35h0l-.72-.93Zm-2.7,8.74h0l0,0-.38.39L28,39.82h0l-.38-.41-.53-.58-.21-.24-.3-.32h0L26.26,38h0l-.33-.35h0l-.12-.13-.09-.09h0l.55-.62h0l0,0h0l.08-.08.35-.41h0l.12-.14.18-.21h0l.32-.37.29-.34h0l0,0h0l.21.24h0l.12.15.09.1h0l.13.15.12.13.16.2.08.1.28.31h0l.22.27.35.42.47.55.19.22.09.11-.51.52-.18.18h0l0,0h0l-.33.34Zm-1.37,1.39-.53.54h0l-.61.62-.32.32-.12.13-.08-.08-.28-.28h0l-.13-.12-.72-.72-.25-.25h0l-.1-.1h0l0,0h0L24,41l-.08-.08-.14-.14h0l-.45-.44-.11-.11.46-.53h0l.41-.47.1-.11.1-.12.12-.14.08-.1h0l.07-.07.06-.07.3-.34.3-.35.32.34.06.06.42.47.16.17.36.38,0,0h0l.37.4.33.37h0l.16.17h0l.25.27-.15.15h0Zm1.68-7.39h0l.27-.31.27-.31.24-.28.51-.58.31.4h0l.7.91.09.12h0l.16.2h0l.12.15.1.13.38.5.08.11.11.14.3.38.18.24-.24.23-.42.44-.37.37-.17.17,0,0h0l-.77.78-.15-.18h0l-.15-.18L30.32,37,30,36.6h0l-.34-.4-.28-.33-.21-.25L29,35.44l-.08-.1h0l-.16-.19h0l-.29-.34-.17-.21h0l-.07-.08v0l0,0,.43-.5h0Zm-6.42,11.1-.69-.63-.56-.51-.56-.51.29-.34h0l.55-.63.43-.5.09-.1h0l.41-.47h0l.22-.25.07.07.45.44.15.16.14.14,0,0,0,0,.34.33.05.05h0l.21.2.83.83.06.07h0l.05.05v0h0l-.28.29,0,0-.54.54-1,1-.17.18L23,45.17Zm3.36,3h0l0,0h0l-.13-.12h0l-.07-.06,0,0-.13-.12h0l-.06-.06L25,47h0l-.17-.16,0,0-.14-.14-.21-.19-.81-.72,1.11-1.13.46-.46.08-.08v0l.2-.2,0,0,.15-.15.89.89.54.54.06.06h0L28,46l0,0h0l.1.09-.16.16h0l-.18.16h0l-.17.15,0,0h0l-.05.05-.15.13h0l-.05,0h0l0,0h0l-.22.19h0l-.52.47h0l-.1.08-.34.31-.17-.16Zm4.78-4-.54.49,0,0-.56.51-.85.76-.32-.31L28,45l-.3-.3-.54-.53-.33-.34h0l-.59-.58.6-.61.42-.42.53-.54.45-.46,1,1.1.21.22h0l.17.18h0l.14.15.06.08.36.39h0l.4.44h0ZM32,42.7l-.74.66-.56-.61-.38-.42-.21-.22h0l-.2-.22-.1-.12-.7-.76h0l-.34-.37.19-.19.64-.65.09-.09.54-.55.16-.16h0l.37-.38,1.11,1.31.49.57.9,1.07-.66.6h0l0,0Zm2.93-2.62-.57.51-.54.48L32.88,40l-.27-.32h0l-.22-.26-.1-.11-.73-.87h0l-.31-.36.33-.33.22-.23.17-.17h0l0,0,.54-.55,0,0,.64-.65.64.83h0l.55.71.11.14.29.37h0l.06.09.86,1.11Zm.56-2.38h0l-.21-.26h0L35,37.1l-.25-.32-.23-.3-.14-.19L34,35.86l-.26-.33.16-.17.54-.54.15-.16.1-.1.29-.3.05,0,0,0,.59-.59.11.15h0l.11.15h0L36,34h0l1,1.37.44.62.21.29h0l.06.09h0l.09.13.22.31h0l.23.33-.15.14-.37.33-.16.14h0l0,0-.12.1-.23.22h0l-.25.22-.08.07-.4.36-.06.06Zm3.64-8.27h0L39,29.28l0-.07h0l0,.05.18.36h0a599395306901.78,599395306901.78,0,0,0,0,.12s0,0,0,0l0,0,0,.06,0,0,0,0,0,0-.05,0,0,0h0l0,0-.06,0-.09,0h0v.07a.41.41,0,0,1,0,.16v0s0,0,0,0v.06h0v0h0s0,0,0,0h0l0,0a.28.28,0,0,1-.25.08.65.65,0,0,1,0,.13l.18-.05.09,0h0l.09.14,0,.06H39L39,31l.19.29.3.46-.29-.46-.07-.1L39,30.85h0l-.15-.23-.1-.15.37-.37.13-.13.12-.13Zm-1.27,2h0l-.08,0-.08,0h0l-.09,0h0l-.11,0h0l-.09,0h-.09l-.08.07-.06.06-.06.07-.06.07h-.26l-.06.09h0l0-.08h-.09l0,0-.05,0-.16.17h0v0a.08.08,0,0,1,0,0v.07h0v0h0a1.1,1.1,0,0,0,0,.16h0l-.21,0-.19.18-.2-.28-.19,0h0v0l0,.1s0,0,0,.05a1.74,1.74,0,0,1,0,.22,2.17,2.17,0,0,0,.07.24l0,.1a.29.29,0,0,1,0,.09s0,0,0,.07,0,0,0,.06,0,.05,0,.07a.64.64,0,0,1,0,.07.19.19,0,0,1,0,.08v0c0,.06,0,.12.05.18s0,.19.08.28l.11.15h.31v0h.18l.16,0,.05,0,0,0,.09.08h-.05l-.08-.1L36.22,34v.07l0,.09,0,.09,0,.09v.07l0,.07s0,0,0,0l0,.05h0a.31.31,0,0,0,0,.1l.13.2.07.09.06.07h0l.07.08.06.06.06.05.09.07a.48.48,0,0,0,.11.09l0,0,.1.06.13.08.06,0,.06,0h.06l.07,0h0l.08,0h0l.21-.19-.44-.63-.08-.1h0l-.29-.42-.18-.24L36.88,34h0l-.68-1,.29-.29h0l.41-.4.55-.56.07-.08h0l0,0h0l.24-.24h0ZM36.4,25.12l-.09.06-.07.06,0,0,0,0,0,0,0,.06,0,0,0,.06v0a.22.22,0,0,0-.05.08.56.56,0,0,0,0,.08l.48-.54Zm2.49,4.13-.2.2-.37.38-.32-.5-.54-.84h0l-.08-.12-.05-.08h0l-.06-.09h0L37,27.71l-.22-.34-.34-.54h0l0-.06h0l-.07-.11h0L35.84,26a.77.77,0,0,0,0,.15v.14s0,.06,0,.1,0,0,0,.06,0,0,0,0a1.32,1.32,0,0,0,.17.41l.39.61h0l.31.47.42.65.09.14.09.13.22.35h0l0,0h0v.06a.36.36,0,0,1,0,.11l0,.07a.6.6,0,0,1-.07.14h.18l.09,0,.09,0h0a.56.56,0,0,1,0,.12l0,.08,0,.11,0,.1v0a.43.43,0,0,1,0,.11h0s0,0,0,0l0,0,0,0,0,0,0,0a.09.09,0,0,1-.06,0l0,0h0l-.45.46c0,.11,0,.21,0,.31v.08s0,0,0,.08l.06.09.15-.12a1.2,1.2,0,0,1,.17-.11.1.1,0,0,1,.05,0l0,0a.34.34,0,0,1,.12-.06l.11-.05h0l.1,0,.12-.05a899092960352.36,899092960352.36,0,0,1,0-.06.62.62,0,0,0,0-.13v-.07h0a.65.65,0,0,0,0-.13.28.28,0,0,0,.25-.08l0,0h0s0,0,0,0h0v0h0v-.06s0,0,0,0v0a.41.41,0,0,0,0-.16V30.1h0l.09,0,.06,0,0,0h0l0,0,.05,0,0,0,0,0,0,0,0-.06,0,0s0,0,0,0a599395306901.78,599395306901.78,0,0,1,0-.12h0Zm-3.54,2.6h0l-.09-.13h0l0-.07h0l-.11-.16-.28-.39h0L34.76,31l0,0s0,0,0,0l-.53.54.16.23h0l.11.15.06.09.09.13h0l.2.06h0a.08.08,0,0,1,0,0,.14.14,0,0,1,0-.06L35,32l0-.07h0L35,32l0,.07s0,0,0,.06l0,.06-.09.23.12.16.43-.35,0-.1v0h0l.19,0Zm.6.39.21,0h0a1.1,1.1,0,0,1,0-.16h0v0h0v0h0v0a.08.08,0,0,0,0,0v0Zm1.3-1c0-.1,0-.2,0-.31l-.15.15-.55.56-.06.06h0l0,0,.05,0,0,0h.09l0,.08h0l.06-.09H37l.06-.07.06-.07.06-.06.08-.07h.09l0-.05-.06-.09s0-.05,0-.08ZM32.59,34l-.18-.23h0l-.16-.21-.47-.6-.05-.07h0l-.26-.35c0,.07,0,.13,0,.2v.08a.06.06,0,0,1,0,0c0,.06,0,.12,0,.18a.22.22,0,0,0,0,.08l0,.21v0h0a.13.13,0,0,0,0,.06,1.42,1.42,0,0,1,0,.2h0l.16.2h0l.12.15.1.13.38.5.08.11,0-.07.05-.07a3,3,0,0,1,.34-.42.19.19,0,0,1,0-.08ZM35,31.92h0L35,32l-.06.13a.14.14,0,0,0,0,.06.08.08,0,0,0,0,0h0l-.2-.06.18.25.09-.23,0-.06s0,0,0-.06L35,32l0-.07Zm-.07.65.28.4-.64.64v0l-.15.15h0l0,0-.08.08h0l-.24.24.09.06.36.24.15.09,0,0,.29-.3.05,0,0,0,.59-.59.11.15h0c0-.09-.05-.18-.08-.28s0-.12-.05-.18v0a.19.19,0,0,0,0-.08.64.64,0,0,0,0-.07s0,0,0-.07,0,0,0-.06,0-.05,0-.07a.29.29,0,0,0,0-.09l0-.1a2.17,2.17,0,0,1-.07-.24,1.74,1.74,0,0,0,0-.22s0,0,0-.05Zm-8.7,4.17h0l-.07,0h0l-.08,0h0l-.06,0h0l0,0h0l-.08,0h-.21v.07l-.1.09-.11.07,0,0-.07.05-.06,0-.05,0-.08,0-.37.17h0l0,0h0l.38.07h0l.13,0,0,0,.06,0,.07,0,0,0,.06,0,.06,0,.11-.09h0l.55-.62h0l0,0Zm1.37-1.55-.05,0-.05.05,0,0s0,0,0,0a.1.1,0,0,0,0,0h0a.35.35,0,0,1-.09.07h0l-.09.06h0l-.07,0-.06,0h0l-.14.07-.08,0-.07,0h0l-.16.05.23.29.18-.21h0l.32-.37.29-.34Zm2,1-.28-.33-.21-.25L29,35.44l-.08-.1h0l-.16-.19,0,.1s0,.09,0,.13l-.05.11h0a.9.9,0,0,0-.05.09l-.09.14,0,0a.76.76,0,0,1-.08.11l.16.2.08.1.28.31h0l.22.27.35.42a.08.08,0,0,0,0,0l.07-.06.1-.1.08-.09v0a.41.41,0,0,0,.09-.1l.12-.14h0ZM24,41.31l-.15-.25-.24.25h0l-.16.16.14.14,0,0,0,0,.34.33h0l.26-.27Zm1,2.45h0l-.17-.19-.54.54.51.56.46-.46.08-.08Zm4.57-1.2a1.21,1.21,0,0,0-.05-.14h0s0-.09,0-.14l-.05-.16q-.12-.37-.27-.9l-.05-.2h0l-.34-.37.19-.19.64-.65,0,0-.05,0a.55.55,0,0,0-.18-.06h-.16l-.12,0h-.39l0,0-.38.39L28,39.82h0l-.38-.41-.53-.58-.21-.24-.3-.32-.53.54.16.17.36.38,0,0h0l.37.4.33.37h0l.16.17h0l.25.27-.15.15h0l-.28.29-.53.54h0l-.61.62.46.24.2.11,0,0,.42-.42.53-.54.45-.46,1,1.1.21.22h0l.17.18v0A.36.36,0,0,0,29.53,42.56Zm.3-3.86h0l-.11-.14-.18.18h0l0,0h0l-.33.34-.56.57H29l.12,0h.07l.09,0a.55.55,0,0,1,.18.06l.05,0,0,0,.09-.09.54-.55Zm4.64-3.88-.23-.35-.19-.3-.16.15-.1.1-.49.5-.11-.15h0l-.53-.67,0,0a.19.19,0,0,0,0,.08,3,3,0,0,0-.34.42l-.05.07,0,.07.11.14.3.38.18.24-.24.23v.06a.19.19,0,0,0,0,.08h0v.07h0l0,.2-.06.09h0l-.07.09-.09.11,0,0h0c-.13.16-.27.3-.39.45h0l-.05.07-.05.07h0l0,.05h0l.15.21.54-.55,0,0,.64-.65.64.83.16-1-.26-.33.16-.17Zm.2-.29-.15-.09-.36-.24-.09-.06,0,0,.19.3.23.35.15-.16.1-.1Z"/><path class="cls-2" d="M35.91,16.84l0-.06a1.24,1.24,0,0,0-.27-.37l0,0-.11-.09-.06,0,0,0,0,0-.06,0-.06,0h-.06l-.44.57h0l-.31.4,0,.05,0,0h0v.13h0v0a.87.87,0,0,1-.07.17h0l0,0v0h0l0,0h0l0,0,0,0h0l0,0,0,0-.05,0,0,0H33.8l-.32.42v0l0,.06,0,.06,0,.07v0l0,0h0l.47,1,.16-.2.61-.79.09-.11L35,18.3l.27-.35.05-.07.11-.14L36,17h0A1.72,1.72,0,0,0,35.91,16.84Zm0,0,0-.06a1.24,1.24,0,0,0-.27-.37l0,0-.11-.09-.06,0,0,0,0,0-.06,0-.06,0h-.06l-.44.57h0l-.31.4,0,.05,0,0h0v.13h0v0a.87.87,0,0,1-.07.17h0l0,0v0h0l0,0h0l0,0,0,0h0l0,0,0,0-.05,0,0,0H33.8l-.32.42v0l0,.06,0,.06,0,.07v0l0,0h0l.47,1,.16-.2.61-.79.09-.11L35,18.3l.27-.35.05-.07.11-.14L36,17h0A1.72,1.72,0,0,0,35.91,16.84Zm0,0,0-.06a1.24,1.24,0,0,0-.27-.37l0,0-.11-.09-.06,0,0,0,0,0-.06,0-.06,0h-.06l-.44.57h0l-.31.4,0,.05,0,0h0v.13h0v0a.87.87,0,0,1-.07.17h0l0,0v0h0l0,0h0l0,0,0,0h0l0,0,0,0-.05,0,0,0H33.8l-.32.42v0l0,.06,0,.06,0,.07v0l0,0h0l.47,1,.16-.2.61-.79.09-.11L35,18.3l.27-.35.05-.07.11-.14L36,17A1.72,1.72,0,0,0,35.91,16.84ZM49.23,35.4,36,8.41l.81-1h0L39,4.72a.63.63,0,0,0,.11-.57h0a.64.64,0,0,0-.2-.32.63.63,0,0,0-.89.09l-.65.81h0l-2,2.5-.57.69a.63.63,0,0,0-.08.68l2.38,4.84,0,.1-.7.9h0l-.55.72h0l-.12.15h0l-.61.8-.44.57h0l-.31.4,0,.05,0,0h0l-.18.23-.14.18-.18.24h0l-.32.42v0h0l-.2.25-.11.15-.22.28-.17.23-.27.34h0l0,.06h0l0,0-.17.22h0L32,20.2h0l-.11.14-.05.08h0l-.31.41-.19.23-.14.19h0l-.36.46-.88,1.15h0l-.26.32h0l-.51.66h0l-.45.59-.11.13-.38.5-.64.83-.14.18-.05.06-.06.08-.41.53-.2.26-.27.35h0l-.26.34-.33.43-.16.2,0,0-.49.64h0l-.23.31-.64.83-.24.31-.12.15-.17.22-.48.62-.39.51-.31.4h0l-.06.08h0L21.31,34l-.48.62-.2.26h0l-.3.39h0l-.11.14-1.33,1.72-.46.6-.52.67-.23.31h0L16.73,40l-.25.33-.34.44-.13.17-.36.47-.05.07h0l0,0h0l0,0-.19.26,0,.05h0l-.17.23-.75,1h0l-.08.12a.45.45,0,0,0-.11.23s0,0,0,0a.66.66,0,0,0,.23.6l.28.21,1.92,1.53.69.55.46.37.31.24.59.47.92.73.7.56.17.14h0l.77.61.16.13h0l.11.09h0l.05,0h0l.07.06,0,0,.16.13.06,0,.33.26.16.13.08.06h0l.07.06.08.06h0l.19.15h0l0,0h0l.32.25h0l.06,0,.11.09h0l0,0,.16.13h0l.2.17h0l.3.24h0l.17.13h0l.23.18h0l.17.13h0l.72.58h0l.11.08h0l.19.15h0l0,0h0l.58.45h0l.33.27a.64.64,0,0,0,.53.12h0a.58.58,0,0,0,.26-.13l.84-.68,2.37-1.92,1.14-.93,9.69-7.86h0l1.33-1.08h0l2.35-1.91h0l1.18-1h0l2.76-2.24A.63.63,0,0,0,49.23,35.4Zm-12.5,9.15-.58.48-.89.72h0l-1.06.86-.59.47-.88.72h0l-1,.85-.59.47L29.52,50.4h0l-.42.35-.59.48L27,52.46l0,0-.07-.06h0L26.46,52l-.23-.18L26,51.7h0l0,0h0l-.19-.15-.17-.13-.18-.15-.13-.1h0l0,0L25.09,51h0l-.15-.12-.07-.06h0l-.17-.13-.24-.19-.08-.06h0l-.2-.15,0,0h0L24,50.06h0l0,0L23.84,50l-.07-.05-.32-.26h0l0,0h0l-.13-.1-.06-.05h0l-.15-.12h0L23,49.28h0l-.15-.12h0l-.09-.07-.24-.19-.23-.18-.09-.08,0,0,0,0-.67-.53-.59-.47-.39-.31h0l-.95-.76L18.9,46l-.44-.35h0l-.58-.46L16.31,44l-.59-.47-.09-.07L16,43l.32-.41,0,0h0l.34-.44.26-.33.24-.31.23-.3,0,0,.46-.6,0,0,1-1.32h0l.37-.49.35-.45h0l.12-.15.09-.13.47-.6.79-1,.09-.12,0,0h0l.43-.56,0,0h0l.18-.23.27-.36.1-.12h0l.09-.12.15-.19h0l.06-.07.22-.3.57-.73.13-.17h0l.55-.72h0l.08-.09,0-.06h0l.13-.17h0l.3-.38.21-.28.14-.19h0l.1-.12h0l.21-.26.67-.87,0,0h0l.53-.69,0,0h0l.45-.59.35-.45h0l.41-.53.05-.07,0-.05h0l.42-.55,0,0h0l0,0h0l0,0,.42-.54h0l.21-.27.49-.63.31-.41.23-.3.25-.32.1-.13,0,0h0l.14-.18h0l.27-.34h0l.07-.09h0l.68-.88.25-.32h0l.17-.22.08-.11.28-.36,0,0,.17-.22h0l.07-.09.24-.3h0v0L33,21l.18-.25h0l.27-.34h0l.25-.32.34-.44.09-.13.16-.2.61-.79.09-.11L35,18.3l.27-.35.05-.07.11-.14L36,17h0l.56-.72.15-.19.48-.62h0l.54-.7,2.2,4.5.2.4.13.28.23.46,2.16,4.41.2.39.14.29.21.43,2.1,4.28.18.37.15.31.2.4,1.94,4h0l.1.22-1.53,1.24h0l-.36.3h0l-.24.18-.08.07h0l-.46.38h0l-1.19,1-.59.48-1.86,1.51-.59.47-.08.07h0l-1.7,1.37-.58.47Zm-.82-27.71,0-.06a1.24,1.24,0,0,0-.27-.37l0,0-.11-.09-.06,0,0,0,0,0-.06,0-.06,0h-.06l-.44.57h0l-.31.4,0,.05,0,0h0v.13h0v0a.87.87,0,0,1-.07.17h0l0,0v0h0l0,0h0l0,0,0,0h0l0,0,0,0-.05,0,0,0H33.8l-.32.42v0l0,.06,0,.06,0,.07v0l0,0h0l.47,1,.16-.2.61-.79.09-.11L35,18.3l.27-.35.05-.07.11-.14L36,17h0A1.72,1.72,0,0,0,35.91,16.84Zm0,0,0-.06a1.24,1.24,0,0,0-.27-.37l0,0-.11-.09-.06,0,0,0,0,0-.06,0-.06,0h-.06l-.44.57h0l-.31.4,0,.05,0,0h0v.13h0v0a.87.87,0,0,1-.07.17h0l0,0v0h0l0,0h0l0,0,0,0h0l0,0,0,0-.05,0,0,0H33.8l-.32.42v0l0,.06,0,.06,0,.07v0l0,0h0l.47,1,.16-.2.61-.79.09-.11L35,18.3l.27-.35.05-.07.11-.14L36,17h0A1.72,1.72,0,0,0,35.91,16.84Zm0,0,0-.06a1.24,1.24,0,0,0-.27-.37l0,0-.11-.09-.06,0,0,0,0,0-.06,0-.06,0h-.06l-.44.57h0l-.31.4,0,.05,0,0h0v.13h0v0a.87.87,0,0,1-.07.17h0l0,0v0h0l0,0h0l0,0,0,0h0l0,0,0,0-.05,0,0,0H33.8l-.32.42v0l0,.06,0,.06,0,.07v0l0,0h0l.47,1,.16-.2.61-.79.09-.11L35,18.3l.27-.35.05-.07.11-.14L36,17h0A1.72,1.72,0,0,0,35.91,16.84Z"/><path class="cls-10" d="M36.34,7.07c.38.26.44.51.67.2l2.85-3.43c.59-.71-.42-1.67-1-.93L35.4,7c-.21.27-.06.31.18.19S36.11,6.92,36.34,7.07Z"/><path class="cls-13" d="M56.53,47.51a.39.39,0,0,0-.55-.06.39.39,0,0,0-.06.56.37.37,0,0,0,.35.14.44.44,0,0,0,.2-.08.44.44,0,0,0,.13-.18A.4.4,0,0,0,56.53,47.51Z"/><path class="cls-13" d="M53.17,50.67a.42.42,0,0,1-.09.14l0,0a.5.5,0,0,1-.2.08.4.4,0,0,1-.26-.06.37.37,0,0,1-.12-.55.32.32,0,0,1,.08-.09.39.39,0,0,1,.52,0l0,0A.38.38,0,0,1,53.17,50.67Z"/><path class="cls-82" d="M28.21,5.46c-.11-.32-.25-.56-.37-.86a1.19,1.19,0,0,0,.26-1C27.86,2.18,26.49,1,24.89.44A7.21,7.21,0,0,0,21.4.07a5.65,5.65,0,0,0-4,2.26c-.23.34-.4.92-.22,1.08s.15,0,.46-.1a9.67,9.67,0,0,1,5.4-.94,5.43,5.43,0,0,1,2.67,1.12,10.86,10.86,0,0,1,1,.87,1.41,1.41,0,0,0,.74.42,3.85,3.85,0,0,1,.39,1.16A.7.7,0,0,0,28.21,5.46Z"/><path class="cls-83" d="M27.86,4.58a1.21,1.21,0,0,0,.24-1C27.86,2.18,26.49,1,24.89.44A7.21,7.21,0,0,0,21.4.07a5.65,5.65,0,0,0-4,2.26,1.58,1.58,0,0,0-.29.91,2.39,2.39,0,0,1,.73-.91A6.91,6.91,0,0,1,25,1.51,4.78,4.78,0,0,1,27.86,4.58Z"/><path class="cls-82" d="M29.29,21.33c-.23.24-.39.47-.59.72a1.19,1.19,0,0,0-1.05.25c-1.11.85-1.49,2.59-1.28,4.29a7.26,7.26,0,0,0,1.28,3.26,5.65,5.65,0,0,0,3.85,2.49c.4,0,1-.07,1.06-.3s0-.15-.31-.37a9.59,9.59,0,0,1-3.32-4.35,5.54,5.54,0,0,1-.25-2.89A12,12,0,0,1,29,23.17a1.46,1.46,0,0,0,0-.85,4.1,4.1,0,0,1,.85-.88A.69.69,0,0,0,29.29,21.33Z"/><path class="cls-83" d="M28.67,22a1.2,1.2,0,0,0-1,.26c-1.11.85-1.49,2.59-1.28,4.29a7.26,7.26,0,0,0,1.28,3.26,5.65,5.65,0,0,0,3.85,2.49,1.55,1.55,0,0,0,.93-.16A2.33,2.33,0,0,1,31.29,32a6.88,6.88,0,0,1-4-5.92A4.76,4.76,0,0,1,28.67,22Z"/><path class="cls-84" d="M39.54,8a.31.31,0,0,1-.22-.09.31.31,0,0,1,0-.44,21,21,0,0,1,7.33-5,16.64,16.64,0,0,1,4.46-1.05.31.31,0,0,1,.06.62,16.21,16.21,0,0,0-4.3,1A20.44,20.44,0,0,0,39.76,7.9.31.31,0,0,1,39.54,8Z"/><path class="cls-84" d="M41.77,13.72a.37.37,0,0,1-.2-.07.32.32,0,0,1,0-.44,17.1,17.1,0,0,1,4.68-4.08,15.83,15.83,0,0,1,3.07-1.42.31.31,0,0,1,.4.19.32.32,0,0,1-.2.4,16.48,16.48,0,0,0-3,1.36A17,17,0,0,0,42,13.6.3.3,0,0,1,41.77,13.72Z"/><path class="cls-84" d="M50.6,8.07a.32.32,0,0,1-.3-.21.33.33,0,0,1,.2-.4,8,8,0,0,1,1.43-.32,6.84,6.84,0,0,1,.91-.06h0a.31.31,0,0,1,0,.62,7.54,7.54,0,0,0-.83.06,6.38,6.38,0,0,0-1.31.29Z"/><path class="cls-85" d="M29.46,58.65a29.61,29.61,0,0,0,6,.64,29,29,0,0,0,6.76-.76l0,2.7-12.78.12Z"/><path class="cls-65" d="M47.8,18.76c-.55,1.54.26,2.26,1.17,2.39a2,2,0,0,0,2.09-1.7A2,2,0,0,0,49.76,17C48.74,16.72,47.83,17.51,47.8,18.76Z"/><path class="cls-66" d="M47.79,18.76c-.4,1-.13,1.88.53,2s1.45-.73,1.63-1.6-.06-1.87-.69-2.1S47.82,17.63,47.79,18.76Z"/><path class="cls-67" d="M48.83,18.5c0,.28.1.62.29.62s.32-.35.31-.65-.1-.62-.29-.62S48.83,18.2,48.83,18.5Z"/><path class="cls-68" d="M48.25,18.57a1,1,0,0,0-.13-.42c-.19-.31-.39-.35-.41-.2a1.14,1.14,0,0,0,.12.79.78.78,0,0,0-.7.52.87.87,0,0,0,.84,0,3.29,3.29,0,0,0,0,.7.65.65,0,0,0,.4-.36,1,1,0,0,0,0-.52.68.68,0,0,0,.63-.58A.54.54,0,0,0,48.25,18.57Z"/></g></g></svg>